<?xml version="1.0" encoding="utf-8"?>
<!-- Generator: Adobe Illustrator 23.0.6, SVG Export Plug-In . SVG Version: 6.00 Build 0)  -->
<svg width="246" height="120" version="1.1" id="Calque_1" xmlns="http://www.w3.org/2000/svg" xmlns:xlink="http://www.w3.org/1999/xlink" x="0px" y="0px"
	 viewBox="0 0 246 120" style="enable-background:new 0 0 246 120;" xml:space="preserve">
<style type="text/css">
	.st0{fill:none;}
	.st1{fill:#E42535;}
</style>
<rect y="0" class="st0" width="246" height="120"/>
<g>
	<polygon class="st1" points="19.6,33.3 19.6,45.9 19.6,46.2 83,24.9 83,12 	"/>
	<g>
		<path d="M121.5,48.6h17.4v4.5h-12.3v4.7h10.9v4.5h-10.9v4.8h12.5v4.5h-17.5V48.6z"/>
		<path d="M111.1,48.6h4.2l10,23h-5.7l-2-4.9h-8.9l-1.9,4.9h-5.6L111.1,48.6z M113.1,55.3l-2.8,7.2h5.6L113.1,55.3z"/>
		<path d="M140.3,48.6h5.1v23h-5.1V48.6z"/>
		<path d="M24.6,48.9h9.2c5.3,0,8.6,3.2,8.6,7.7v0.1c0,5.2-4,7.9-9.1,7.9h-3.7v6.7h-4.9V48.9z M33.4,60.2c2.5,0,3.9-1.5,3.9-3.4
			v-0.1c0-2.2-1.5-3.4-4-3.4h-3.8v6.8H33.4z"/>
		<path d="M44.2,48.5h17.5v4.5H49.2v4.7h10.9v4.5H49.2v4.9h12.6v4.5H44.2L44.2,48.5L44.2,48.5z"/>
		<path d="M62.8,60.2L62.8,60.2c0-6.4,4.8-11.6,11.7-11.6c4.2,0,6.8,1.4,8.8,3.5l-3.1,3.6c-1.7-1.6-3.5-2.5-5.7-2.5
			c-3.8,0-6.5,3.1-6.5,7v0.1c0,3.8,2.7,7,6.5,7c2.6,0,4.1-1,5.9-2.6l3.1,3.2c-2.3,2.5-4.9,4-9.2,4C67.7,71.7,62.8,66.6,62.8,60.2z"
			/>
		<path d="M14.6,61.7c0,3.6-1.8,5.4-4.8,5.4s-4.8-1.9-4.8-5.5V48.9H0v12.8c0,6.6,3.7,10,9.7,10c6,0,9.8-3.3,9.8-10.1l0-15.4l-5,1.7
			C14.6,47.9,14.6,61.7,14.6,61.7z"/>
		<polygon points="92.3,82.4 91.7,82.4 91.7,37.9 92.3,37.9 		"/>
		<g>
			<g>
				<path d="M0.6,76.5v2.1c0,0.6,0.1,1,0.8,1c0.7,0,0.7-0.5,0.7-1v-2.1h0.4v2.2c0,0.7-0.3,1.2-1.1,1.2c-0.8,0-1.2-0.4-1.2-1.2v-2.2
					H0.6z"/>
				<path d="M3.9,76.5h0.5l1.7,2.6h0v-2.6h0.4v3.3H6l-1.7-2.6h0v2.6H3.9C3.9,79.8,3.9,76.5,3.9,76.5z"/>
				<path d="M7.9,76.5h0.4v3.3H7.9V76.5z"/>
				<path d="M11.2,79.8h-0.4l-1.3-3.3h0.5l1.1,2.8l1-2.8h0.4L11.2,79.8z"/>
				<path d="M13.4,76.5h1.8v0.3h-1.4v1.1h1.2v0.3h-1.2v1.2h1.5v0.3h-1.9C13.4,79.8,13.4,76.5,13.4,76.5z"/>
				<path d="M16.5,76.5h1.1c0.3,0,0.9,0.2,0.9,0.8c0,0.4-0.3,0.8-0.7,0.9l1.1,1.6h-0.5l-1-1.4H17v1.4h-0.4
					C16.5,79.8,16.5,76.5,16.5,76.5z M17,78.1c0.1,0,0.1,0,0.2,0c0.6,0,0.9-0.2,0.9-0.7c0-0.3-0.3-0.5-0.6-0.5H17V78.1z"/>
				<path d="M19.8,79.3c0.3,0.1,0.6,0.3,0.9,0.3c0.3,0,0.6-0.2,0.6-0.5c0-0.8-1.5-0.8-1.5-1.8c0-0.3,0.2-0.9,1-0.9
					c0.3,0,0.5,0,0.8,0.1v0.4c-0.3-0.1-0.5-0.2-0.8-0.2c-0.4,0-0.6,0.3-0.6,0.5c0,0.7,1.6,0.7,1.6,1.8c0,0.3-0.2,1-1.1,1
					c-0.3,0-0.6-0.1-0.9-0.2L19.8,79.3L19.8,79.3z"/>
				<path d="M23.1,76.5h0.4v3.3h-0.4V76.5z"/>
				<path d="M25.8,76.8h-1.2v-0.3h2.8v0.3h-1.2v3h-0.4C25.8,79.8,25.8,76.8,25.8,76.8z"/>
				<path d="M28.5,76.5h1.8v0.3H29v1.1h1.2v0.3H29v1.2h1.5v0.3h-1.9L28.5,76.5L28.5,76.5z M29.4,75.6h0.5l-0.6,0.7h-0.4L29.4,75.6z"
					/>
				<path d="M33.6,76.5h1.1c0.5,0,0.9,0.2,0.9,0.9c0,0.9-0.8,1.2-1.6,1.1v1.3h-0.4V76.5z M34.1,78.2c0.7,0,1.1-0.2,1.1-0.8
					c0-0.4-0.3-0.6-0.6-0.6h-0.5V78.2z"/>
				<path d="M37.4,76.5h0.4l1.3,3.3h-0.5l-0.4-0.9h-1.5l-0.4,0.9h-0.4L37.4,76.5z M38.2,78.6L37.6,77L37,78.6H38.2z"/>
				<path d="M40.3,76.5h1.1c0.3,0,0.9,0.2,0.9,0.8c0,0.4-0.3,0.8-0.7,0.9l1.1,1.6h-0.5l-1-1.4h-0.5v1.4h-0.4V76.5z M40.7,78.1
					c0.1,0,0.1,0,0.2,0c0.6,0,0.9-0.2,0.9-0.7c0-0.3-0.3-0.5-0.6-0.5h-0.4V78.1z"/>
				<path d="M43.8,76.5h0.4v3.3h-0.4V76.5z"/>
				<path d="M45.5,79.3c0.3,0.1,0.6,0.3,0.9,0.3c0.3,0,0.6-0.2,0.6-0.5c0-0.8-1.5-0.8-1.5-1.8c0-0.3,0.2-0.9,1-0.9
					c0.3,0,0.5,0,0.8,0.1v0.4c-0.3-0.1-0.5-0.2-0.8-0.2c-0.4,0-0.6,0.3-0.6,0.5c0,0.7,1.6,0.7,1.6,1.8c0,0.3-0.2,1-1.1,1
					c-0.3,0-0.6-0.1-0.9-0.2L45.5,79.3L45.5,79.3z"/>
				<path d="M48.6,78.3h1v0.3h-1V78.3z"/>
				<path d="M50.8,76.5h1.8v0.3h-1.4v1.1h1.2v0.3h-1.2v1.2h1.5v0.3h-1.9L50.8,76.5L50.8,76.5z"/>
				<path d="M53.7,79.3c0.3,0.1,0.6,0.3,0.9,0.3c0.3,0,0.6-0.2,0.6-0.5c0-0.8-1.5-0.8-1.5-1.8c0-0.3,0.2-0.9,1-0.9
					c0.3,0,0.5,0,0.8,0.1v0.4c-0.3-0.1-0.5-0.2-0.8-0.2c-0.4,0-0.6,0.3-0.6,0.5c0,0.7,1.6,0.7,1.6,1.8c0,0.3-0.2,1-1.1,1
					c-0.3,0-0.6-0.1-0.9-0.2L53.7,79.3L53.7,79.3z"/>
				<path d="M57.8,76.8h-1.2v-0.3h2.8v0.3h-1.2v3h-0.4V76.8z"/>
				<path d="M65,77c-0.3-0.1-0.7-0.2-1.1-0.2c-0.8,0-1.1,0.7-1.1,1.4c0,0.7,0.3,1.4,1.1,1.4c0.5,0,0.8-0.1,1.1-0.3v0.4
					c-0.3,0.2-0.7,0.3-1.1,0.3c-1,0-1.6-0.8-1.6-1.8c0-1,0.5-1.8,1.6-1.8c0.4,0,0.8,0.1,1.1,0.2V77z"/>
				<path d="M66.3,76.5h1.1c0.3,0,0.9,0.2,0.9,0.8c0,0.4-0.3,0.8-0.7,0.9l1.1,1.6h-0.6l-1-1.4h-0.5v1.4h-0.4L66.3,76.5L66.3,76.5z
					 M66.8,78.1c0.1,0,0.1,0,0.2,0c0.6,0,0.9-0.2,0.9-0.7c0-0.3-0.3-0.5-0.6-0.5h-0.4L66.8,78.1L66.8,78.1z"/>
				<path d="M69.8,76.5h1.8v0.3h-1.4v1.1h1.2v0.3h-1.2v1.2h1.5v0.3h-1.9V76.5z M70.8,75.6h0.5l-0.6,0.7h-0.4L70.8,75.6z"/>
				<path d="M73.7,76.8h-1.2v-0.3h2.8v0.3h-1.2v3h-0.4L73.7,76.8L73.7,76.8z"/>
				<path d="M76.4,76.5h1.8v0.3h-1.4v1.1H78v0.3h-1.2v1.2h1.5v0.3h-1.9L76.4,76.5L76.4,76.5z"/>
				<path d="M79.5,76.5H80v3.3h-0.4V76.5z"/>
				<path d="M81.4,76.5h0.4v3h1.5v0.3h-2L81.4,76.5L81.4,76.5z"/>
			</g>
		</g>
		<g>
			<path d="M101.2,80.4l1.3-3.3h0.5l1.3,3.3h-0.5l-0.4-0.9H102l-0.4,0.9H101.2z M102.2,79.1h1.1l-0.6-1.4L102.2,79.1z"/>
			<path d="M105.6,80.4v-3.3h1.1c0.4,0,0.7,0.1,1,0.2c0.2,0.1,0.4,0.3,0.5,0.5c0.1,0.2,0.2,0.5,0.2,0.9c0,0.3-0.1,0.6-0.2,0.9
				c-0.1,0.3-0.3,0.5-0.5,0.6c-0.2,0.2-0.6,0.2-1,0.2H105.6z M106,80h0.6c0.3,0,0.5,0,0.7-0.1c0.2-0.1,0.3-0.3,0.4-0.5
				s0.1-0.5,0.1-0.7c0-0.2,0-0.4-0.1-0.6c-0.1-0.2-0.2-0.3-0.4-0.5c-0.2-0.1-0.5-0.2-0.9-0.2H106L106,80L106,80z"/>
			<path d="M109.8,80.4v-3.3h0.7l0.9,2.6l0.9-2.6h0.6v3.3h-0.4v-2.7l-0.9,2.5h-0.5l-0.9-2.5v2.7H109.8z"/>
			<path d="M114.5,80.4v-3.3h0.5v3.3H114.5z"/>
			<path d="M116.6,80.4v-3.3h0.5l1.7,2.6v-2.6h0.4v3.3h-0.5l-1.7-2.6v2.6H116.6z"/>
			<path d="M120.7,80.4v-3.3h0.5v3.3H120.7z"/>
			<path d="M122.6,80.3v-0.5c0.3,0.1,0.5,0.2,0.6,0.2c0.1,0,0.2,0,0.3,0c0.2,0,0.3-0.1,0.5-0.2c0.1-0.1,0.2-0.2,0.2-0.4
				c0-0.1,0-0.2-0.1-0.3c-0.1-0.1-0.2-0.2-0.4-0.3l-0.2-0.1c-0.3-0.2-0.5-0.3-0.6-0.5c-0.1-0.1-0.2-0.3-0.2-0.5c0-0.2,0-0.3,0.1-0.4
				c0.1-0.1,0.2-0.2,0.3-0.3c0.1-0.1,0.3-0.1,0.5-0.1c0.3,0,0.5,0,0.8,0.1v0.4c-0.2-0.1-0.4-0.2-0.5-0.2c-0.1,0-0.2,0-0.3,0
				c-0.2,0-0.3,0-0.4,0.2c-0.1,0.1-0.1,0.2-0.1,0.3c0,0.1,0,0.1,0.1,0.2s0.1,0.1,0.2,0.2c0.1,0.1,0.2,0.1,0.3,0.2l0.2,0.1
				c0.3,0.2,0.5,0.3,0.6,0.5c0.1,0.1,0.2,0.3,0.2,0.5c0,0.3-0.1,0.5-0.3,0.7c-0.2,0.2-0.5,0.3-0.9,0.3c-0.1,0-0.2,0-0.3,0
				C123,80.4,122.8,80.4,122.6,80.3z"/>
			<path d="M126.8,80.4v-3h-1.2v-0.4h2.8v0.4h-1.2v3H126.8z"/>
			<path d="M129.7,80.4v-3.3h1c0.4,0,0.6,0.1,0.8,0.2c0.1,0.2,0.2,0.4,0.2,0.6c0,0.1,0,0.2-0.1,0.4c0,0.1-0.1,0.2-0.2,0.3
				c-0.1,0.1-0.2,0.2-0.4,0.2l1.1,1.6h-0.6l-0.9-1.4h-0.4v1.4L129.7,80.4L129.7,80.4z M130.2,78.6h0.2c0.3,0,0.6-0.1,0.7-0.2
				c0.1-0.1,0.2-0.3,0.2-0.5c0-0.1,0-0.2-0.1-0.3s-0.1-0.1-0.2-0.2c-0.1,0-0.2-0.1-0.5-0.1h-0.3L130.2,78.6L130.2,78.6z"/>
			<path d="M133,80.4l1.3-3.3h0.5l1.3,3.3h-0.5l-0.4-0.9h-1.4l-0.4,0.9H133z M133.9,79.1h1.1l-0.6-1.4L133.9,79.1z"/>
			<path d="M138.1,80.4v-3h-1.2v-0.4h2.8v0.4h-1.2v3H138.1z"/>
			<path d="M141,80.4v-3.3h0.5v3.3H141z"/>
			<path d="M144.4,80.5c-0.3,0-0.6-0.1-0.8-0.2c-0.2-0.1-0.4-0.3-0.5-0.6c-0.1-0.3-0.2-0.6-0.2-0.9c0-0.3,0.1-0.6,0.2-0.9
				c0.1-0.3,0.3-0.5,0.5-0.6c0.2-0.1,0.5-0.2,0.8-0.2c0.3,0,0.6,0.1,0.8,0.2c0.2,0.1,0.4,0.4,0.5,0.6c0.1,0.3,0.2,0.6,0.2,0.9
				c0,0.3-0.1,0.6-0.2,0.9c-0.1,0.3-0.3,0.5-0.5,0.6C145.1,80.4,144.8,80.5,144.4,80.5z M144.4,80.1c0.3,0,0.6-0.1,0.8-0.4
				s0.3-0.6,0.3-1c0-0.4-0.1-0.8-0.3-1c-0.2-0.2-0.4-0.4-0.8-0.4c-0.3,0-0.6,0.1-0.8,0.4c-0.2,0.2-0.3,0.6-0.3,1s0.1,0.8,0.3,1
				C143.9,80,144.1,80.1,144.4,80.1z"/>
			<path d="M147.4,80.4v-3.3h0.5l1.7,2.6v-2.6h0.4v3.3h-0.5l-1.7-2.6v2.6H147.4z"/>
			<path d="M153.8,80.4v-3.3h1.9v0.4h-1.4v1.1h1.2v0.3h-1.2V80h1.5v0.4L153.8,80.4L153.8,80.4z"/>
			<path d="M157.8,80.4v-3h-1.2v-0.4h2.8v0.4h-1.2v3H157.8z"/>
			<path d="M162.9,80.4v-3.3h1.9v0.4h-1.4v1.1h1.2v0.3h-1.2V80h1.5v0.4L162.9,80.4L162.9,80.4z M163.5,76.8l0.5-0.7h0.5l-0.6,0.7
				H163.5z"/>
			<path d="M168.7,80.2c-0.1,0.1-0.3,0.1-0.4,0.2c-0.1,0-0.2,0.1-0.3,0.1c-0.1,0-0.2,0-0.4,0c-0.6,0-1-0.2-1.2-0.5
				c-0.3-0.3-0.4-0.7-0.4-1.2c0-0.5,0.1-0.9,0.4-1.3c0.3-0.3,0.7-0.5,1.2-0.5c0.3,0,0.6,0,1,0.1v0.4c-0.3-0.1-0.6-0.2-0.7-0.2
				s-0.2,0-0.4,0c-0.4,0-0.7,0.1-0.9,0.4c-0.2,0.3-0.3,0.6-0.3,1c0,0.4,0.1,0.7,0.3,1c0.2,0.3,0.5,0.4,0.9,0.4c0.1,0,0.2,0,0.3,0
				c0.1,0,0.2,0,0.3-0.1c0.1,0,0.2-0.1,0.4-0.2L168.7,80.2L168.7,80.2z"/>
			<path d="M170.1,80.4v-3.3h0.5v1.4h1.6v-1.4h0.5v3.3h-0.5v-1.6h-1.6v1.6H170.1z"/>
			<path d="M173.9,80.4l1.3-3.3h0.5l1.3,3.3h-0.5l-0.4-0.9h-1.4l-0.4,0.9H173.9z M174.8,79.1h1.1l-0.6-1.4L174.8,79.1z"/>
			<path d="M178.2,80.4v-3.3h0.5l1.7,2.6v-2.6h0.4v3.3h-0.5l-1.7-2.6v2.6H178.2z"/>
			<path d="M184.9,80.3c-0.3,0.1-0.5,0.1-0.6,0.1c-0.1,0-0.3,0-0.4,0c-0.4,0-0.7-0.1-0.9-0.2c-0.2-0.1-0.4-0.4-0.5-0.6
				c-0.1-0.3-0.2-0.6-0.2-0.9c0-0.5,0.1-0.9,0.4-1.3s0.7-0.5,1.2-0.5c0.3,0,0.7,0,1,0.2v0.4c-0.3-0.1-0.6-0.2-0.7-0.2
				c-0.1,0-0.2,0-0.4,0c-0.4,0-0.7,0.1-0.9,0.4c-0.2,0.3-0.3,0.6-0.3,1c0,0.2,0,0.5,0.1,0.7c0.1,0.2,0.2,0.4,0.4,0.5
				c0.2,0.1,0.4,0.2,0.7,0.2c0.1,0,0.1,0,0.2,0c0.1,0,0.2,0,0.3-0.1v-1.1h0.5L184.9,80.3L184.9,80.3z"/>
			<path d="M186.5,80.4v-3.3h1.9v0.4h-1.4v1.1h1.2v0.3h-1.2V80h1.5v0.4L186.5,80.4L186.5,80.4z"/>
			<path d="M189.5,80.3v-0.5c0.3,0.1,0.5,0.2,0.6,0.2c0.1,0,0.2,0,0.3,0c0.2,0,0.3-0.1,0.5-0.2c0.1-0.1,0.2-0.2,0.2-0.4
				c0-0.1,0-0.2-0.1-0.3c-0.1-0.1-0.2-0.2-0.4-0.3l-0.2-0.1c-0.3-0.2-0.5-0.3-0.6-0.5c-0.1-0.1-0.2-0.3-0.2-0.5c0-0.2,0-0.3,0.1-0.4
				s0.2-0.2,0.3-0.3c0.1-0.1,0.3-0.1,0.5-0.1c0.3,0,0.5,0,0.8,0.1v0.4c-0.2-0.1-0.4-0.2-0.5-0.2c-0.1,0-0.2,0-0.3,0
				c-0.2,0-0.3,0-0.4,0.2c-0.1,0.1-0.1,0.2-0.1,0.3c0,0.1,0,0.1,0.1,0.2s0.1,0.1,0.2,0.2c0.1,0.1,0.2,0.1,0.3,0.2l0.2,0.1
				c0.3,0.2,0.5,0.3,0.6,0.5s0.2,0.3,0.2,0.5c0,0.3-0.1,0.5-0.3,0.7s-0.5,0.3-0.9,0.3c-0.1,0-0.2,0-0.3,0
				C189.9,80.4,189.8,80.4,189.5,80.3z"/>
			<path d="M195.2,80.4v-3.3h0.5v3.3H195.2z"/>
			<path d="M197.3,80.4v-3.3h0.5l1.7,2.6v-2.6h0.4v3.3h-0.5l-1.7-2.6v2.6H197.3z"/>
			<path d="M202.2,80.4v-3H201v-0.4h2.8v0.4h-1.2v3H202.2z"/>
			<path d="M205.1,80.4v-3.3h1.9v0.4h-1.4v1.1h1.2v0.3h-1.2V80h1.5v0.4L205.1,80.4L205.1,80.4z"/>
			<path d="M208.4,80.4v-3.3h1c0.4,0,0.6,0.1,0.8,0.2c0.1,0.2,0.2,0.4,0.2,0.6c0,0.1,0,0.2-0.1,0.4c0,0.1-0.1,0.2-0.2,0.3
				c-0.1,0.1-0.2,0.2-0.4,0.2l1.1,1.6h-0.6l-0.9-1.4h-0.4v1.4L208.4,80.4L208.4,80.4z M208.8,78.6h0.2c0.3,0,0.6-0.1,0.7-0.2
				c0.1-0.1,0.2-0.3,0.2-0.5c0-0.1,0-0.2-0.1-0.3c0-0.1-0.1-0.1-0.2-0.2c-0.1,0-0.2-0.1-0.5-0.1h-0.3L208.8,78.6L208.8,78.6z"/>
			<path d="M212,80.4v-3.3h0.5l1.7,2.6v-2.6h0.4v3.3h-0.5l-1.7-2.6v2.6H212z"/>
			<path d="M215.8,80.4l1.3-3.3h0.5l1.3,3.3h-0.5l-0.4-0.9h-1.4l-0.4,0.9H215.8z M216.7,79.1h1.1l-0.6-1.4L216.7,79.1z"/>
			<path d="M220.9,80.4v-3h-1.2v-0.4h2.8v0.4h-1.2v3H220.9z"/>
			<path d="M223.8,80.4v-3.3h0.5v3.3H223.8z"/>
			<path d="M227.2,80.5c-0.3,0-0.6-0.1-0.8-0.2c-0.2-0.1-0.4-0.3-0.5-0.6c-0.1-0.3-0.2-0.6-0.2-0.9c0-0.3,0.1-0.6,0.2-0.9
				c0.1-0.3,0.3-0.5,0.5-0.6c0.2-0.1,0.5-0.2,0.8-0.2c0.3,0,0.6,0.1,0.8,0.2c0.2,0.1,0.4,0.4,0.5,0.6c0.1,0.3,0.2,0.6,0.2,0.9
				c0,0.3-0.1,0.6-0.2,0.9c-0.1,0.3-0.3,0.5-0.5,0.6C227.8,80.4,227.6,80.5,227.2,80.5z M227.2,80.1c0.3,0,0.6-0.1,0.8-0.4
				c0.2-0.2,0.3-0.6,0.3-1c0-0.4-0.1-0.8-0.3-1c-0.2-0.2-0.4-0.4-0.8-0.4c-0.3,0-0.6,0.1-0.8,0.4c-0.2,0.2-0.3,0.6-0.3,1
				s0.1,0.8,0.3,1S226.9,80.1,227.2,80.1z"/>
			<path d="M230.2,80.4v-3.3h0.5l1.7,2.6v-2.6h0.4v3.3h-0.5l-1.7-2.6v2.6H230.2z"/>
			<path d="M234,80.4l1.3-3.3h0.5l1.3,3.3h-0.5l-0.4-0.9h-1.4l-0.4,0.9H234z M234.9,79.1h1.1l-0.6-1.4L234.9,79.1z"/>
			<path d="M238.3,77.1h0.5v2.1c0,0.4,0.1,0.6,0.2,0.8c0.1,0.1,0.3,0.2,0.6,0.2c0.2,0,0.3,0,0.4-0.1c0.1-0.1,0.2-0.1,0.2-0.3
				c0.1-0.1,0.1-0.3,0.1-0.6v-2.1h0.4v2.1c0,0.4,0,0.6-0.1,0.8c-0.1,0.2-0.2,0.3-0.4,0.4c-0.2,0.1-0.4,0.1-0.6,0.1
				c-0.3,0-0.5,0-0.7-0.1c-0.2-0.1-0.3-0.2-0.4-0.4c-0.1-0.2-0.1-0.4-0.1-0.8L238.3,77.1L238.3,77.1z"/>
			<path d="M241.9,80.4l1.1-1.7l-1-1.6h0.6l0.8,1.3l0.8-1.3h0.4l-1.1,1.6l1.1,1.7H244l-0.8-1.3l-0.9,1.3L241.9,80.4L241.9,80.4z"/>
		</g>
	</g>
	<g>
		<path class="st1" d="M151,57.6v-8.3h1.7v8.3H151z"/>
		<path class="st1" d="M154.7,57.6v-8.3h1.5l3.9,5.7v-5.7h1.4v8.3h-1.6l-3.8-5.7v5.7H154.7z"/>
		<path class="st1" d="M165.4,57.6v-7.2h-3v-1.1h7.7v1.1h-3v7.2H165.4z"/>
		<path class="st1" d="M171.1,57.6v-8.3h5.2v1.1h-3.5v2.3h2.9v1.1h-2.9v2.6h3.7v1.2H171.1z"/>
		<path class="st1" d="M177.9,57.6v-8.3h3.1c1.7,0,2.5,0.7,2.5,2.1c0,0.5-0.1,1-0.4,1.4c-0.3,0.4-0.7,0.7-1.2,1l2.7,3.9h-2.1
			l-2.1-3.4h-1v3.4L177.9,57.6L177.9,57.6z M179.5,53h0.4c1.3,0,1.9-0.5,1.9-1.5c0-0.7-0.6-1.1-1.7-1.1h-0.6L179.5,53L179.5,53z"/>
		<path class="st1" d="M185.7,57.6v-8.3h1.5l3.9,5.7v-5.7h1.4v8.3h-1.6l-3.8-5.7v5.7H185.7z"/>
		<path class="st1" d="M193.5,57.6l3.2-8.3h1.7l3.2,8.3h-1.8l-0.9-2.2h-3.4l-0.9,2.2H193.5z M196,54.2h2.6l-1.3-3.3L196,54.2z"/>
		<path class="st1" d="M204.8,57.6v-7.2h-3v-1.1h7.7v1.1h-3v7.2H204.8z"/>
		<path class="st1" d="M210.5,57.6v-8.3h1.7v8.3H210.5z"/>
		<path class="st1" d="M217.8,57.8c-1.3,0-2.3-0.4-3-1.2c-0.8-0.8-1.1-1.9-1.1-3.2c0-1.3,0.4-2.4,1.1-3.2s1.8-1.2,3.1-1.2
			c1.3,0,2.3,0.4,3.1,1.2c0.8,0.8,1.1,1.8,1.1,3.2c0,1.4-0.4,2.4-1.1,3.2C220.2,57.4,219.1,57.8,217.8,57.8z M217.8,56.6
			c0.7,0,1.3-0.3,1.8-0.9c0.4-0.6,0.7-1.4,0.7-2.4c0-1-0.2-1.7-0.7-2.3c-0.4-0.6-1-0.9-1.7-0.9c-0.7,0-1.3,0.3-1.7,0.9
			c-0.4,0.6-0.7,1.4-0.7,2.3c0,1,0.2,1.8,0.6,2.3C216.6,56.3,217.1,56.6,217.8,56.6z"/>
		<path class="st1" d="M223.5,57.6v-8.3h1.5l3.9,5.7v-5.7h1.4v8.3h-1.6l-3.8-5.7v5.7H223.5z"/>
		<path class="st1" d="M231.3,57.6l3.2-8.3h1.7l3.2,8.3h-1.8l-0.9-2.2h-3.4l-0.9,2.2H231.3z M233.8,54.2h2.6l-1.3-3.3L233.8,54.2z"
			/>
		<path class="st1" d="M240.5,57.6v-8.3h1.7v7.2h3.8v1.2H240.5z"/>
		<path class="st1" d="M150.5,71.1v-1.4c0.9,0.4,1.7,0.6,2.3,0.6c0.4,0,0.8-0.1,1.1-0.3c0.3-0.2,0.4-0.5,0.4-0.8
			c0-0.3-0.1-0.5-0.2-0.7c-0.2-0.2-0.5-0.4-0.9-0.7l-0.6-0.3c-0.7-0.4-1.3-0.8-1.6-1.2c-0.3-0.4-0.5-0.8-0.5-1.4
			c0-0.7,0.3-1.2,0.8-1.7c0.5-0.4,1.2-0.6,2-0.6c0.7,0,1.4,0.1,2.3,0.3v1.3c-0.9-0.3-1.5-0.5-2-0.5c-0.4,0-0.7,0.1-0.9,0.3
			c-0.2,0.2-0.3,0.4-0.3,0.7c0,0.2,0.1,0.4,0.2,0.6c0.2,0.2,0.5,0.4,0.9,0.6l0.6,0.3c0.8,0.5,1.4,0.9,1.7,1.2
			c0.3,0.4,0.5,0.8,0.5,1.4c0,0.8-0.3,1.4-0.9,1.8c-0.6,0.4-1.4,0.7-2.4,0.7C152.2,71.4,151.4,71.3,150.5,71.1z"/>
		<path class="st1" d="M164.1,70.8c-0.8,0.4-1.8,0.5-2.9,0.5c-1.4,0-2.4-0.4-3.2-1.2c-0.8-0.8-1.1-1.8-1.1-3.2
			c0-1.4,0.4-2.5,1.2-3.2c0.8-0.8,1.9-1.1,3.3-1.1c0.9,0,1.8,0.1,2.7,0.3v1.4c-1-0.4-1.9-0.5-2.6-0.5c-0.9,0-1.6,0.3-2,0.8
			c-0.5,0.6-0.7,1.4-0.7,2.4c0,1,0.3,1.8,0.8,2.4c0.5,0.6,1.2,0.8,2.1,0.8c0.8,0,1.6-0.2,2.5-0.6L164.1,70.8L164.1,70.8z"/>
		<path class="st1" d="M165.5,71.2v-8.3h1.7v3.4h3.4v-3.4h1.7v8.3h-1.7v-3.8h-3.4v3.8H165.5z"/>
		<path class="st1" d="M178,71.4c-1.3,0-2.3-0.4-3-1.2c-0.8-0.8-1.1-1.9-1.1-3.2c0-1.3,0.4-2.4,1.1-3.2c0.8-0.8,1.8-1.2,3.1-1.2
			c1.3,0,2.3,0.4,3.1,1.2c0.8,0.8,1.1,1.8,1.1,3.2c0,1.4-0.4,2.4-1.1,3.2C180.3,71,179.3,71.4,178,71.4z M178,70.2
			c0.7,0,1.3-0.3,1.8-0.9c0.4-0.6,0.7-1.4,0.7-2.4c0-1-0.2-1.7-0.7-2.3c-0.4-0.6-1-0.9-1.7-0.9c-0.7,0-1.3,0.3-1.7,0.9
			c-0.4,0.6-0.7,1.4-0.7,2.3c0,1,0.2,1.8,0.6,2.3S177.3,70.2,178,70.2z"/>
		<path class="st1" d="M187.3,71.4c-1.3,0-2.3-0.4-3-1.2c-0.8-0.8-1.1-1.9-1.1-3.2c0-1.3,0.4-2.4,1.1-3.2c0.8-0.8,1.8-1.2,3.1-1.2
			c1.3,0,2.3,0.4,3.1,1.2c0.8,0.8,1.1,1.8,1.1,3.2c0,1.4-0.4,2.4-1.1,3.2C189.7,71,188.6,71.4,187.3,71.4z M187.3,70.2
			c0.7,0,1.3-0.3,1.8-0.9c0.4-0.6,0.7-1.4,0.7-2.4c0-1-0.2-1.7-0.7-2.3c-0.4-0.6-1-0.9-1.7-0.9c-0.7,0-1.3,0.3-1.7,0.9
			c-0.4,0.6-0.7,1.4-0.7,2.3c0,1,0.2,1.8,0.6,2.3S186.6,70.2,187.3,70.2z"/>
		<path class="st1" d="M193,71.2v-8.3h1.7V70h3.8v1.2H193z"/>
	</g>
</g>
</svg>
