<?xml version="1.0" encoding="utf-8"?>
<!-- Generator: Adobe Illustrator 23.1.0, SVG Export Plug-In . SVG Version: 6.00 Build 0)  -->
<svg width="246" height="120" version="1.1" id="Calque_1" xmlns="http://www.w3.org/2000/svg" xmlns:xlink="http://www.w3.org/1999/xlink" x="0px" y="0px"
	 viewBox="0 0 246 120" style="enable-background:new 0 0 246 120;" xml:space="preserve">
<style type="text/css">
	.st0{fill:#E42535;}
	.st1{fill:url(#SVGID_1_);}
</style>
<title>en-tete_EPISEN</title>
<g>
	<path d="M24,49.3h8.9c5.2,0,8.4,3.1,8.4,7.6v0.1c0,5.1-3.9,7.7-8.8,7.7h-3.7v6.6H24V49.3z M32.6,60.3c2.4,0,3.8-1.4,3.8-3.3v-0.1
		c0-2.2-1.5-3.3-3.9-3.3h-3.7v6.7H32.6z"/>
	<path d="M43.4,49.3h16.5v4.3H48.2V58h10.3v4.3H48.2v4.6h11.9v4.3H43.4V49.3z"/>
	<path d="M61.3,60.3L61.3,60.3c0-6.3,4.7-11.4,11.4-11.4c4.1,0,6.6,1.4,8.6,3.4l-3.1,3.5c-1.7-1.5-3.4-2.5-5.6-2.5
		c-3.7,0-6.3,3.1-6.3,6.8v0.1c0,3.8,2.6,6.9,6.3,6.9c2.5,0,4-1,5.8-2.6l3.1,3.1c-2.2,2.4-4.8,3.9-9,3.9
		C66.1,71.5,61.3,66.5,61.3,60.3z"/>
	<path d="M14.3,61.8c0,3.5-1.8,5.3-4.7,5.3c-2.9,0-4.7-1.8-4.7-5.4V49.3H0v12.5c0,6.4,3.6,9.7,9.5,9.7c5.9,0,9.6-3.3,9.6-9.9l0-15
		l-4.9,1.7V61.8z"/>
	<polygon class="st0" points="19.1,34 19.1,46.6 81,25.8 81,13.2 	"/>
	<polygon points="90.1,81.9 89.5,81.9 89.5,38.5 90.1,38.5 90.1,81.9 	"/>
	<g>
		<g>
			<path d="M0.5,76.2v2c0,0.6,0.1,1,0.8,1c0.7,0,0.7-0.5,0.7-1v-2h0.4v2.2c0,0.7-0.3,1.2-1.1,1.2c-0.8,0-1.2-0.4-1.2-1.2v-2.2H0.5z"
				/>
			<path d="M3.8,76.2h0.4l1.7,2.6h0v-2.6h0.4v3.3H5.9l-1.7-2.6h0v2.6H3.8V76.2z"/>
			<path d="M7.7,76.2h0.4v3.3H7.7V76.2z"/>
			<path d="M10.9,79.5h-0.4l-1.2-3.3h0.5l1,2.7l1-2.7h0.4L10.9,79.5z"/>
			<path d="M13.1,76.2h1.8v0.3h-1.4v1.1h1.1v0.3h-1.1v1.2H15v0.3h-1.9V76.2z"/>
			<path d="M16.1,76.2h1.1c0.3,0,0.9,0.2,0.9,0.8c0,0.4-0.3,0.8-0.7,0.9l1.1,1.5H18L17,78.1h-0.4v1.4h-0.4V76.2z M16.6,77.7
				c0.1,0,0.1,0,0.2,0c0.5,0,0.9-0.2,0.9-0.7c0-0.3-0.3-0.5-0.6-0.5h-0.4V77.7z"/>
			<path d="M19.4,78.9c0.3,0.1,0.6,0.3,0.9,0.3c0.3,0,0.6-0.2,0.6-0.5c0-0.8-1.5-0.8-1.5-1.7c0-0.3,0.2-0.9,1-0.9
				c0.3,0,0.5,0,0.8,0.1v0.4c-0.3-0.1-0.5-0.2-0.8-0.2c-0.4,0-0.6,0.3-0.6,0.5c0,0.7,1.5,0.7,1.5,1.7c0,0.3-0.2,0.9-1.1,0.9
				c-0.3,0-0.6-0.1-0.8-0.1V78.9z"/>
			<path d="M22.6,76.2H23v3.3h-0.4V76.2z"/>
			<path d="M25.2,76.5H24v-0.3h2.7v0.3h-1.2v2.9h-0.4V76.5z"/>
			<path d="M27.8,76.2h1.8v0.3h-1.4v1.1h1.1v0.3h-1.1v1.2h1.5v0.3h-1.9V76.2z M28.7,75.3h0.5l-0.6,0.7h-0.4L28.7,75.3z"/>
			<path d="M32.8,76.2h1.1c0.5,0,0.9,0.2,0.9,0.8c0,0.9-0.8,1.1-1.5,1.1v1.3h-0.4V76.2z M33.2,77.8c0.7,0,1.1-0.2,1.1-0.8
				c0-0.4-0.3-0.6-0.6-0.6h-0.5V77.8z"/>
			<path d="M36.5,76.2H37l1.3,3.3h-0.5l-0.4-0.9H36l-0.4,0.9h-0.4L36.5,76.2z M37.3,78.2l-0.6-1.5l-0.6,1.5H37.3z"/>
			<path d="M39.3,76.2h1.1c0.3,0,0.9,0.2,0.9,0.8c0,0.4-0.3,0.8-0.7,0.9l1.1,1.5h-0.5l-0.9-1.4h-0.4v1.4h-0.4V76.2z M39.7,77.7
				c0.1,0,0.1,0,0.2,0c0.5,0,0.9-0.2,0.9-0.7c0-0.3-0.3-0.5-0.6-0.5h-0.4V77.7z"/>
			<path d="M42.7,76.2h0.4v3.3h-0.4V76.2z"/>
			<path d="M44.4,78.9c0.3,0.1,0.6,0.3,0.9,0.3c0.3,0,0.6-0.2,0.6-0.5c0-0.8-1.5-0.8-1.5-1.7c0-0.3,0.2-0.9,1-0.9
				c0.3,0,0.5,0,0.8,0.1v0.4c-0.3-0.1-0.5-0.2-0.8-0.2c-0.4,0-0.6,0.3-0.6,0.5c0,0.7,1.5,0.7,1.5,1.7c0,0.3-0.2,0.9-1.1,0.9
				c-0.3,0-0.6-0.1-0.8-0.1V78.9z"/>
			<path d="M47.4,77.9h1v0.3h-1V77.9z"/>
			<path d="M49.6,76.2h1.8v0.3h-1.4v1.1h1.1v0.3h-1.1v1.2h1.5v0.3h-1.9V76.2z"/>
			<path d="M52.4,78.9c0.3,0.1,0.6,0.3,0.9,0.3c0.3,0,0.6-0.2,0.6-0.5c0-0.8-1.5-0.8-1.5-1.7c0-0.3,0.2-0.9,1-0.9
				c0.3,0,0.5,0,0.8,0.1v0.4c-0.3-0.1-0.5-0.2-0.8-0.2c-0.4,0-0.6,0.3-0.6,0.5c0,0.7,1.5,0.7,1.5,1.7c0,0.3-0.2,0.9-1.1,0.9
				c-0.3,0-0.6-0.1-0.8-0.1V78.9z"/>
			<path d="M56.4,76.5h-1.2v-0.3H58v0.3h-1.2v2.9h-0.4V76.5z"/>
			<path d="M63.5,76.7c-0.3-0.1-0.7-0.2-1.1-0.2c-0.8,0-1.1,0.7-1.1,1.4c0,0.7,0.3,1.4,1.1,1.4c0.5,0,0.8-0.1,1.1-0.3v0.4
				c-0.3,0.2-0.7,0.3-1.1,0.3c-1,0-1.5-0.8-1.5-1.7c0-0.9,0.5-1.7,1.5-1.7c0.4,0,0.8,0.1,1.1,0.1V76.7z"/>
			<path d="M64.7,76.2h1.1c0.3,0,0.9,0.2,0.9,0.8c0,0.4-0.3,0.8-0.7,0.9l1.1,1.5h-0.5l-0.9-1.4h-0.4v1.4h-0.4V76.2z M65.2,77.7
				c0.1,0,0.1,0,0.2,0c0.5,0,0.9-0.2,0.9-0.7c0-0.3-0.3-0.5-0.6-0.5h-0.4V77.7z"/>
			<path d="M68.2,76.2H70v0.3h-1.4v1.1h1.1v0.3h-1.1v1.2h1.5v0.3h-1.9V76.2z M69.1,75.3h0.5L69,75.9h-0.4L69.1,75.3z"/>
			<path d="M72,76.5h-1.2v-0.3h2.7v0.3h-1.2v2.9H72V76.5z"/>
			<path d="M74.6,76.2h1.8v0.3H75v1.1h1.1v0.3H75v1.2h1.5v0.3h-1.9V76.2z"/>
			<path d="M77.6,76.2H78v3.3h-0.4V76.2z"/>
			<path d="M79.5,76.2h0.4v2.9h1.5v0.3h-1.9V76.2z"/>
		</g>
	</g>
	<g>
		<g>
			<path d="M151.8,53.5V58h7.4v4h-7.4v4.9h8.3v4.3h-13.7V49.2h13.6v4.2H151.8z"/>
			<path d="M168.4,63.5v7.7h-5.3V49.2h8.6c2.6,0,4.6,0.6,6,1.9c1.4,1.4,2.2,3.3,2.1,5.2c0,1.3-0.3,2.5-0.9,3.6
				c-0.6,1.1-1.6,2-2.7,2.5c-1.4,0.6-2.9,1-4.4,0.9L168.4,63.5z M174.3,56.4c0-1.9-1.1-2.9-3.2-2.9h-2.7v5.7h2.7
				C173.2,59.2,174.3,58.3,174.3,56.4z"/>
			<path d="M187.6,49.2v21.9h-5.3V49.2H187.6z"/>
			<path d="M206.1,68.2c-0.6,1-1.5,1.8-2.6,2.3c-1.3,0.6-2.7,0.9-4.2,0.9c-2.2,0.1-4.3-0.5-6.1-1.8c-1.6-1.2-2.5-3-2.6-5h5.6
				c0,0.7,0.4,1.4,0.9,2c0.5,0.5,1.2,0.7,1.9,0.7c0.6,0,1.2-0.2,1.6-0.6c0.4-0.4,0.6-0.9,0.6-1.5c0-0.5-0.2-1-0.5-1.4
				c-0.4-0.4-0.8-0.7-1.3-0.9c-0.5-0.2-1.3-0.5-2.2-0.9c-1.2-0.4-2.3-0.9-3.4-1.4c-0.9-0.5-1.7-1.1-2.3-2c-1.3-2.1-1.3-4.7,0-6.8
				c0.7-1,1.6-1.7,2.7-2.2c1.3-0.5,2.6-0.8,4-0.8c2.4,0,4.4,0.6,5.8,1.7c1.4,1.2,2.3,2.9,2.4,4.8h-5.7c-0.1-0.6-0.3-1.3-0.8-1.7
				c-0.5-0.4-1.1-0.7-1.7-0.6c-0.5,0-1.1,0.2-1.5,0.5c-0.4,0.4-0.6,0.9-0.6,1.5c0,0.5,0.2,1,0.5,1.3c0.4,0.4,0.8,0.7,1.3,0.9
				c0.5,0.2,1.3,0.5,2.2,0.9c1.2,0.4,2.3,0.9,3.4,1.4c0.9,0.5,1.7,1.2,2.3,2c0.7,1,1,2.2,1,3.5C207,66.1,206.7,67.2,206.1,68.2z"/>
			<path d="M215.2,53.5V58h7.4v4h-7.4v4.9h8.3v4.3h-13.6V49.2h13.6v4.2H215.2z"/>
			<path d="M246,71.2h-5.3l-8.9-13.5v13.5h-5.3V49.2h5.3l8.9,13.6V49.2h5.3L246,71.2z"/>
		</g>
	</g>
	<g>
		
			<linearGradient id="SVGID_1_" gradientUnits="userSpaceOnUse" x1="101.8594" y1="74.5309" x2="165.9622" y2="109.1365" gradientTransform="matrix(1 0 0 -1 -3 132.86)">
			<stop  offset="0.1" style="stop-color:#655AA0"/>
			<stop  offset="0.25" style="stop-color:#466FB5"/>
			<stop  offset="0.55" style="stop-color:#009FE3"/>
			<stop  offset="0.57" style="stop-color:#04A0D9"/>
			<stop  offset="0.71" style="stop-color:#16A5A8"/>
			<stop  offset="0.84" style="stop-color:#24A984"/>
			<stop  offset="0.94" style="stop-color:#2CAB6E"/>
			<stop  offset="1" style="stop-color:#2FAC66"/>
		</linearGradient>
		<path class="st1" d="M162.9,26.6c0.5-2.8-0.1-5.7-1.8-8c-1.9-2.8-5-4.7-8.3-5.2c-6.5-1-11.9,2.7-13.4,8.5c-1,3.9,0.5,9.1-1.3,15
			c-3.9,12.8-23.7,17.7-29.2,8.6c-0.4-0.7-1.1-2.4-1.4-3.2c-0.9-2.1-3.8-3.8-6.5-2.6c-4.3,2-3.7,8.4,0.7,9.4
			c3.6,0.8,6.7-0.3,10.3,2.2c5.8,3.7,6.4,11.8,14,10.7c3.5-0.5,5.1-3.5,5.7-5.9C138.1,31.5,160.2,42.4,162.9,26.6z"/>
	</g>
</g>
</svg>
