<?xml version="1.0" encoding="UTF-8"?>
<svg xmlns="http://www.w3.org/2000/svg" id="a" viewBox="0 0 547.5 107.52">
  <defs>
    <style>.b{fill:#e00034;}.c{fill:#2f2a85;}.d{fill:#767272;}.e{fill:#767171;}</style>
  </defs>
  <polyline class="c" points="318.84 28.45 318.84 107.52 316.14 107.52 316.14 28.45"></polyline>
  <g>
    <path d="M331.07,50.07c0-1.16,.94-2.09,2.53-2.09s2.31,.99,2.31,.99l-.77,.77s-.49-.66-1.54-.66c-.83,0-1.32,.5-1.32,.99,0,1.76,4.07,.66,4.07,3.52,0,1.32-.99,2.31-2.75,2.31-1.87,0-2.75-1.21-2.75-1.21l.77-.77s.61,.88,1.98,.88c.99,0,1.54-.55,1.54-1.21,0-1.76-4.07-.66-4.07-3.52Z"></path>
    <path d="M340.03,50.4c1.49,0,2.75,1.26,2.75,2.75s-1.27,2.75-2.75,2.75-2.75-1.27-2.75-2.75,1.27-2.75,2.75-2.75Zm0,.99c-.88,0-1.65,.77-1.65,1.76s.77,1.76,1.65,1.76,1.65-.77,1.65-1.76-.77-1.76-1.65-1.76Z"></path>
    <path d="M347.73,55.24s-.6,.66-1.6,.66c-1.27,0-2.15-.88-2.15-2.31v-3.08h1.1v3.08c0,.77,.55,1.32,1.27,1.32,.83,0,1.38-.55,1.38-1.54v-2.86h1.1v5.28h-1.1v-.55Z"></path>
    <path d="M353.07,51.83s-.39-.44-.99-.44c-.5,0-.77,.27-.77,.55,0,.99,2.7,.44,2.7,2.31,0,.88-.77,1.65-1.98,1.65-1.38,0-2.04-.94-2.04-.94l.72-.71s.5,.66,1.32,.66c.6,0,.88-.28,.88-.66,0-.99-2.7-.44-2.7-2.31,0-.77,.77-1.54,1.87-1.54,1.16,0,1.71,.71,1.71,.71l-.72,.71Z"></path>
    <path d="M358.62,55.79h-1.1v-7.7h1.1v7.7Z"></path>
    <path d="M363.41,55.79v-.55s-.6,.66-1.6,.66c-1.1,0-1.87-.77-1.87-1.54,0-.88,.6-1.48,1.54-1.65l1.93-.33c0-.55-.44-.99-1.1-.99-.94,0-1.38,.71-1.38,.71l-.71-.71s.71-.99,2.09-.99,2.2,.88,2.2,1.98v3.41h-1.1Zm0-2.42v-.11l-1.71,.28c-.39,.07-.66,.33-.66,.71,0,.33,.33,.66,.94,.66,.88,0,1.43-.55,1.43-1.54Z"></path>
    <path d="M370.67,50.4c1.38,0,2.15,1.04,2.15,1.04l-.72,.71s-.49-.77-1.43-.77c-.88,0-1.65,.77-1.65,1.76s.77,1.76,1.65,1.76c.94,0,1.49-.83,1.49-.83l.72,.71s-.83,1.1-2.2,1.1c-1.48,0-2.75-1.27-2.75-2.75s1.27-2.75,2.75-2.75Z"></path>
    <path d="M376.38,50.4c1.49,0,2.75,1.26,2.75,2.75s-1.27,2.75-2.75,2.75-2.75-1.27-2.75-2.75,1.27-2.75,2.75-2.75Zm0,.99c-.88,0-1.65,.77-1.65,1.76s.77,1.76,1.65,1.76,1.65-.77,1.65-1.76-.77-1.76-1.65-1.76Z"></path>
    <path d="M383.92,53.04h-3.85v-.99h3.85v.99Z"></path>
    <path d="M385.73,48.75h.99v1.76h1.1v.99h-1.1v2.74c0,.4,.27,.67,.66,.67,.27,0,.55-.11,.55-.11v.99s-.33,.11-.77,.11c-.99,0-1.54-.55-1.54-1.65v-2.75h-.99v-.99h.55c.33,0,.55-.22,.55-.66v-1.1Z"></path>
    <path d="M393,55.24s-.6,.66-1.6,.66c-1.27,0-2.15-.88-2.15-2.31v-3.08h1.1v3.08c0,.77,.55,1.32,1.27,1.32,.83,0,1.38-.55,1.38-1.54v-2.86h1.1v5.28h-1.1v-.55Z"></path>
    <path d="M396.35,48.75h.99v1.76h1.1v.99h-1.1v2.74c0,.4,.28,.67,.66,.67,.27,0,.55-.11,.55-.11v.99s-.33,.11-.77,.11c-.99,0-1.54-.55-1.54-1.65v-2.75h-.99v-.99h.55c.33,0,.55-.22,.55-.66v-1.1Z"></path>
    <path d="M400.64,53.54c.11,.71,.77,1.38,1.65,1.38,1.04,0,1.59-.83,1.59-.83l.72,.71s-.83,1.1-2.31,1.1-2.75-1.27-2.75-2.81,1.21-2.7,2.7-2.7,2.58,1.1,2.58,2.58c0,.33-.05,.55-.05,.55h-4.13Zm.04-.94h3.06c-.13-.71-.68-1.27-1.51-1.27s-1.38,.55-1.55,1.27Z"></path>
    <path d="M407.24,55.79h-1.1v-7.7h1.1v7.7Z"></path>
    <path d="M410.1,55.79h-1.1v-7.7h1.1v7.7Z"></path>
    <path d="M412.52,53.54c.11,.71,.77,1.38,1.65,1.38,1.04,0,1.59-.83,1.59-.83l.72,.71s-.83,1.1-2.31,1.1-2.75-1.27-2.75-2.81,1.21-2.7,2.7-2.7,2.58,1.1,2.58,2.58c0,.33-.05,.55-.05,.55h-4.13Zm.04-.94h3.06c-.13-.71-.68-1.27-1.51-1.27s-1.38,.55-1.55,1.27Z"></path>
    <path d="M424.07,51.12v-3.03h1.1v7.7h-1.1v-.61s-.66,.72-1.71,.72c-1.38,0-2.58-1.21-2.58-2.75s1.21-2.75,2.58-2.75c1.05,0,1.71,.71,1.71,.71Zm0,2.04c0-.99-.77-1.76-1.6-1.76s-1.59,.77-1.59,1.76,.77,1.76,1.59,1.76,1.6-.77,1.6-1.76Z"></path>
    <path d="M427.59,53.54c.11,.71,.77,1.38,1.65,1.38,1.04,0,1.59-.83,1.59-.83l.72,.71s-.83,1.1-2.31,1.1-2.75-1.27-2.75-2.81,1.21-2.7,2.7-2.7,2.58,1.1,2.58,2.58c0,.33-.05,.55-.05,.55h-4.13Zm.04-.94h3.06c-.13-.71-.68-1.27-1.51-1.27s-1.38,.55-1.55,1.27Z"></path>
    <path d="M435.73,50.4c.38,0,.71,.33,.71,.71s-.33,.71-.71,.71-.71-.33-.71-.71,.33-.71,.71-.71Zm0,4.07c.38,0,.71,.33,.71,.71s-.33,.72-.71,.72-.71-.33-.71-.72,.33-.71,.71-.71Z"></path>
    <path d="M336.4,70.66v-4.57h1.65v4.57c0,1.87-1.43,3.3-3.36,3.3s-3.36-1.43-3.36-3.3v-4.57h1.65v4.57c0,1.05,.77,1.82,1.71,1.82s1.71-.77,1.71-1.82Z"></path>
    <path d="M346.85,66.09v7.7h-1.43l-3.8-4.9v4.9h-1.65v-7.7h1.43l3.8,4.9v-4.9h1.65Z"></path>
    <path d="M348.83,66.09h1.65v7.7h-1.65v-7.7Z"></path>
    <path d="M351.69,66.09h1.76l1.98,5.72,1.98-5.72h1.76l-2.86,7.7h-1.76l-2.86-7.7Z"></path>
    <path d="M366.16,72.31v1.49h-5.78v-7.7h5.67v1.49h-4.02v1.54h3.14v1.49h-3.14v1.71h4.13Z"></path>
    <path d="M367.69,66.09h3.41c1.54,0,2.64,1.12,2.64,2.53,0,1.65-1.38,2.26-1.38,2.26l1.65,2.92h-1.76l-1.48-2.7h-1.43v2.7h-1.65v-7.7Zm3.36,1.49h-1.71v2.04h1.71c.6,0,1.04-.44,1.04-.99,0-.6-.44-1.04-1.04-1.04Z"></path>
    <path d="M375.06,68.18c0-1.21,1.04-2.26,2.7-2.26s2.53,1.04,2.53,1.04l-.99,1.05s-.55-.66-1.43-.66c-.66,0-1.04,.38-1.04,.83,0,1.43,3.8,.6,3.8,3.36,0,1.38-1.05,2.42-2.92,2.42s-2.92-1.27-2.92-1.27l.99-.99s.66,.82,1.82,.82c.83,0,1.27-.44,1.27-.99,0-1.43-3.8-.61-3.8-3.36Z"></path>
    <path d="M382.11,66.09h1.65v7.7h-1.65v-7.7Z"></path>
    <path d="M391.02,66.09v1.49h-2.2v6.22h-1.65v-6.22h-2.2v-1.49h6.05Z"></path>
    <path d="M398,72.31v1.49h-5.78v-7.7h5.67v1.49h-4.02v1.54h3.14v1.49h-3.14v1.71h4.13Zm-2.64-8.8h1.54l-1.21,1.65h-1.21l.88-1.65Z"></path>
    <path d="M405.04,66.09c1.6,0,2.75,1.13,2.75,2.58s-1.15,2.59-2.75,2.59h-1.59v2.53h-1.65v-7.7h3.25Zm-1.59,1.49v2.2h1.54c.66,0,1.16-.5,1.16-1.1s-.5-1.1-1.16-1.1h-1.54Z"></path>
    <path d="M410.81,71.98l-.66,1.82h-1.76l3.03-7.7h1.76l3.03,7.7h-1.76l-.66-1.82h-2.97Zm1.49-3.96l-.93,2.53h1.87l-.94-2.53Z"></path>
    <path d="M417.3,66.09h3.41c1.54,0,2.64,1.12,2.64,2.53,0,1.65-1.38,2.26-1.38,2.26l1.65,2.92h-1.76l-1.49-2.7h-1.43v2.7h-1.65v-7.7Zm3.36,1.49h-1.71v2.04h1.71c.6,0,1.04-.44,1.04-.99,0-.6-.44-1.04-1.04-1.04Z"></path>
    <path d="M425.11,66.09h1.65v7.7h-1.65v-7.7Z"></path>
    <path d="M428.3,68.18c0-1.21,1.04-2.26,2.7-2.26s2.53,1.04,2.53,1.04l-.99,1.05s-.55-.66-1.43-.66c-.66,0-1.04,.38-1.04,.83,0,1.43,3.8,.6,3.8,3.36,0,1.38-1.05,2.42-2.92,2.42s-2.92-1.27-2.92-1.27l.99-.99s.66,.82,1.82,.82c.83,0,1.26-.44,1.26-.99,0-1.43-3.79-.61-3.79-3.36Z"></path>
    <path d="M438.7,71.21h-3.96v-1.32h3.96v1.32Z"></path>
    <path d="M445.85,72.31v1.49h-5.78v-7.7h5.67v1.49h-4.01v1.54h3.13v1.49h-3.13v1.71h4.12Z"></path>
    <path d="M446.95,68.18c0-1.21,1.04-2.26,2.7-2.26s2.53,1.04,2.53,1.04l-.99,1.05s-.55-.66-1.43-.66c-.66,0-1.04,.38-1.04,.83,0,1.43,3.8,.6,3.8,3.36,0,1.38-1.05,2.42-2.92,2.42s-2.92-1.27-2.92-1.27l.99-.99s.66,.82,1.82,.82c.83,0,1.26-.44,1.26-.99,0-1.43-3.79-.61-3.79-3.36Z"></path>
    <path d="M459.27,66.09v1.49h-2.2v6.22h-1.65v-6.22h-2.2v-1.49h6.05Z"></path>
    <path d="M469.66,67.47l-1.04,1.05s-.71-1.1-2.15-1.1-2.53,1.1-2.53,2.53,1.1,2.53,2.53,2.53,2.26-1.1,2.26-1.1l.99,1.04s-1.1,1.54-3.25,1.54c-2.37,0-4.18-1.82-4.18-4.02s1.82-4.02,4.18-4.02c2.15,0,3.19,1.54,3.19,1.54Z"></path>
    <path d="M471.04,66.09h3.41c1.54,0,2.64,1.12,2.64,2.53,0,1.65-1.38,2.26-1.38,2.26l1.65,2.92h-1.76l-1.49-2.7h-1.43v2.7h-1.65v-7.7Zm3.36,1.49h-1.71v2.04h1.71c.61,0,1.04-.44,1.04-.99,0-.6-.44-1.04-1.04-1.04Z"></path>
    <path d="M484.62,72.31v1.49h-5.78v-7.7h5.67v1.49h-4.02v1.54h3.13v1.49h-3.13v1.71h4.12Zm-2.64-8.8h1.54l-1.21,1.65h-1.21l.88-1.65Z"></path>
    <path d="M491.44,66.09v1.49h-2.2v6.22h-1.65v-6.22h-2.2v-1.49h6.05Z"></path>
    <path d="M498.43,72.31v1.49h-5.78v-7.7h5.67v1.49h-4.02v1.54h3.13v1.49h-3.13v1.71h4.12Z"></path>
    <path d="M499.97,66.09h1.65v7.7h-1.65v-7.7Z"></path>
    <path d="M503.6,73.79v-7.7h1.65v6.22h3.58v1.49h-5.23Z"></path>
    <path d="M336.4,83.86v-4.57h1.65v4.57c0,1.87-1.43,3.3-3.36,3.3s-3.36-1.43-3.36-3.3v-4.57h1.65v4.57c0,1.05,.77,1.82,1.71,1.82s1.71-.77,1.71-1.82Z"></path>
    <path d="M346.85,79.29v7.7h-1.43l-3.8-4.9v4.9h-1.65v-7.7h1.43l3.8,4.9v-4.9h1.65Z"></path>
    <path d="M348.83,79.29h1.65v7.7h-1.65v-7.7Z"></path>
    <path d="M351.69,79.29h1.76l1.98,5.72,1.98-5.72h1.76l-2.86,7.7h-1.76l-2.86-7.7Z"></path>
    <path d="M366.16,85.51v1.49h-5.78v-7.7h5.67v1.49h-4.02v1.54h3.14v1.49h-3.14v1.71h4.13Z"></path>
    <path d="M367.69,79.29h3.41c1.54,0,2.64,1.12,2.64,2.53,0,1.65-1.38,2.26-1.38,2.26l1.65,2.92h-1.76l-1.48-2.7h-1.43v2.7h-1.65v-7.7Zm3.36,1.49h-1.71v2.04h1.71c.6,0,1.04-.44,1.04-.99,0-.6-.44-1.04-1.04-1.04Z"></path>
    <path d="M375.06,81.38c0-1.21,1.04-2.26,2.7-2.26s2.53,1.04,2.53,1.04l-.99,1.05s-.55-.66-1.43-.66c-.66,0-1.04,.38-1.04,.83,0,1.43,3.8,.6,3.8,3.36,0,1.38-1.05,2.42-2.92,2.42s-2.92-1.27-2.92-1.27l.99-.99s.66,.82,1.82,.82c.83,0,1.27-.44,1.27-.99,0-1.43-3.8-.61-3.8-3.36Z"></path>
    <path d="M382.11,79.29h1.65v7.7h-1.65v-7.7Z"></path>
    <path d="M391.02,79.29v1.49h-2.2v6.22h-1.65v-6.22h-2.2v-1.49h6.05Z"></path>
    <path d="M398,85.51v1.49h-5.78v-7.7h5.67v1.49h-4.02v1.54h3.14v1.49h-3.14v1.71h4.13Zm-2.64-8.8h1.54l-1.21,1.65h-1.21l.88-1.65Z"></path>
    <path d="M408.89,82.81v2.86s-1.16,1.49-3.36,1.49c-2.37,0-4.18-1.82-4.18-4.02s1.82-4.02,4.18-4.02c2.15,0,3.19,1.54,3.19,1.54l-1.04,1.04s-.71-1.1-2.15-1.1-2.53,1.1-2.53,2.53,1.1,2.53,2.53,2.53c1.16,0,1.71-.6,1.71-.6v-1.05h-1.38v-1.21h3.03Z"></path>
    <path d="M415.71,83.86v-4.57h1.65v4.57c0,1.87-1.43,3.3-3.36,3.3s-3.36-1.43-3.36-3.3v-4.57h1.65v4.57c0,1.05,.77,1.82,1.71,1.82s1.71-.77,1.71-1.82Z"></path>
    <path d="M418.84,81.38c0-1.21,1.04-2.26,2.7-2.26s2.53,1.04,2.53,1.04l-.99,1.05s-.55-.66-1.43-.66c-.66,0-1.04,.38-1.04,.83,0,1.43,3.8,.6,3.8,3.36,0,1.38-1.05,2.42-2.92,2.42s-2.92-1.27-2.92-1.27l.99-.99s.66,.82,1.82,.82c.83,0,1.26-.44,1.26-.99,0-1.43-3.79-.61-3.79-3.36Z"></path>
    <path d="M431.16,79.29v1.49h-2.2v6.22h-1.65v-6.22h-2.2v-1.49h6.05Z"></path>
    <path d="M433.91,85.18l-.66,1.82h-1.76l3.03-7.7h1.76l3.03,7.7h-1.76l-.66-1.82h-2.97Zm1.49-3.96l-.93,2.53h1.87l-.94-2.53Z"></path>
    <path d="M439.63,79.29h1.76l1.98,5.72,1.98-5.72h1.76l-2.86,7.7h-1.76l-2.86-7.7Z"></path>
    <path d="M454.1,85.51v1.49h-5.78v-7.7h5.67v1.49h-4.02v1.54h3.14v1.49h-3.14v1.71h4.13Z"></path>
    <path d="M463.67,85.51v1.49h-5.78v-7.7h5.67v1.49h-4.02v1.54h3.13v1.49h-3.13v1.71h4.12Z"></path>
    <path d="M465.21,79.29h1.65v7.7h-1.65v-7.7Z"></path>
    <path d="M474.5,79.29v1.49h-4.02v1.71h3.13v1.49h-3.13v3.03h-1.65v-7.7h5.67Z"></path>
    <path d="M481.6,79.29v1.49h-4.02v1.71h3.13v1.49h-3.13v3.03h-1.65v-7.7h5.67Z"></path>
    <path d="M488.8,85.51v1.49h-5.78v-7.7h5.67v1.49h-4.02v1.54h3.13v1.49h-3.13v1.71h4.12Z"></path>
    <path d="M490.34,86.99v-7.7h1.65v6.22h3.58v1.49h-5.23Z"></path>
  </g>
  <g>
    <path d="M315.96,11.32h1.8v8.4h-1.8V11.32Z"></path>
    <path d="M327.42,11.32v8.4h-1.56l-4.14-5.34v5.34h-1.8V11.32h1.56l4.14,5.34v-5.34h1.8Z"></path>
    <path d="M329.1,13.6c0-1.32,1.14-2.46,2.94-2.46s2.76,1.14,2.76,1.14l-1.08,1.14s-.6-.72-1.56-.72c-.72,0-1.14,.42-1.14,.9,0,1.56,4.14,.66,4.14,3.66,0,1.5-1.14,2.64-3.18,2.64s-3.18-1.38-3.18-1.38l1.08-1.08s.72,.9,1.98,.9c.9,0,1.38-.48,1.38-1.08,0-1.56-4.14-.66-4.14-3.66Z"></path>
    <path d="M342.54,11.32v1.62h-2.4v6.78h-1.8v-6.78h-2.4v-1.62h6.6Z"></path>
    <path d="M343.86,11.32h1.8v8.4h-1.8V11.32Z"></path>
    <path d="M353.58,11.32v1.62h-2.4v6.78h-1.8v-6.78h-2.4v-1.62h6.6Z"></path>
    <path d="M360.36,16.3v-4.98h1.8v4.98c0,2.04-1.56,3.6-3.66,3.6s-3.66-1.56-3.66-3.6v-4.98h1.8v4.98c0,1.14,.84,1.98,1.86,1.98s1.86-.84,1.86-1.98Z"></path>
    <path d="M370.02,11.32v1.62h-2.4v6.78h-1.8v-6.78h-2.4v-1.62h6.6Z"></path>
    <path d="M376.92,11.32c2.46,0,4.32,1.86,4.32,4.2s-1.86,4.2-4.32,4.2h-3.12V11.32h3.12Zm-1.32,1.62v5.16h1.32c1.38,0,2.52-1.14,2.52-2.58s-1.08-2.58-2.52-2.58h-1.32Z"></path>
    <path d="M389.22,18.1v1.62h-6.3V11.32h6.18v1.62h-4.38v1.68h3.42v1.62h-3.42v1.86h4.5Z"></path>
    <path d="M393.36,11.32h3.72c1.68,0,2.88,1.22,2.88,2.76,0,1.8-1.5,2.46-1.5,2.46l1.8,3.18h-1.92l-1.62-2.94h-1.56v2.94h-1.8V11.32Zm3.66,1.62h-1.86v2.22h1.86c.66,0,1.14-.48,1.14-1.08,0-.66-.48-1.14-1.14-1.14Z"></path>
    <path d="M408.18,18.1v1.62h-6.3V11.32h6.18v1.62h-4.38v1.68h3.42v1.62h-3.42v1.86h4.5Z"></path>
    <path d="M417.42,12.82l-1.14,1.14s-.78-1.2-2.34-1.2-2.76,1.2-2.76,2.76,1.2,2.76,2.76,2.76,2.46-1.2,2.46-1.2l1.08,1.14s-1.2,1.68-3.54,1.68c-2.58,0-4.56-1.98-4.56-4.38s1.98-4.38,4.56-4.38c2.34,0,3.48,1.68,3.48,1.68Z"></path>
    <path d="M426.12,19.72h-1.8v-3.42h-3.6v3.42h-1.8V11.32h1.8v3.36h3.6v-3.36h1.8v8.4Z"></path>
    <path d="M434.58,18.1v1.62h-6.3V11.32h6.18v1.62h-4.38v1.68h3.42v1.62h-3.42v1.86h4.5Z"></path>
    <path d="M436.26,11.32h3.72c1.68,0,2.88,1.22,2.88,2.76,0,1.8-1.5,2.46-1.5,2.46l1.8,3.18h-1.92l-1.62-2.94h-1.56v2.94h-1.8V11.32Zm3.66,1.62h-1.86v2.22h1.86c.66,0,1.14-.48,1.14-1.08,0-.66-.48-1.14-1.14-1.14Z"></path>
    <path d="M452.34,12.82l-1.14,1.14s-.78-1.2-2.34-1.2-2.76,1.2-2.76,2.76,1.2,2.76,2.76,2.76,2.46-1.2,2.46-1.2l1.08,1.14s-1.2,1.68-3.54,1.68c-2.58,0-4.56-1.98-4.56-4.38s1.98-4.38,4.56-4.38c2.34,0,3.48,1.68,3.48,1.68Z"></path>
    <path d="M461.04,19.72h-1.8v-3.42h-3.6v3.42h-1.8V11.32h1.8v3.36h3.6v-3.36h1.8v8.4Z"></path>
    <path d="M469.5,18.1v1.62h-6.3V11.32h6.18v1.62h-4.38v1.68h3.42v1.62h-3.42v1.86h4.5Z"></path>
    <path d="M479.94,18.1v1.62h-6.3V11.32h6.18v1.62h-4.38v1.68h3.42v1.62h-3.42v1.86h4.5Z"></path>
    <path d="M489.12,11.32v8.4h-1.56l-4.14-5.34v5.34h-1.8V11.32h1.56l4.14,5.34v-5.34h1.8Z"></path>
    <path d="M501.48,15.16v3.12s-1.26,1.62-3.66,1.62c-2.58,0-4.56-1.98-4.56-4.38s1.98-4.38,4.56-4.38c2.34,0,3.48,1.68,3.48,1.68l-1.14,1.14s-.78-1.2-2.34-1.2-2.76,1.2-2.76,2.76,1.2,2.76,2.76,2.76c1.26,0,1.86-.66,1.86-.66v-1.14h-1.5v-1.32h3.3Z"></path>
    <path d="M509.76,18.1v1.62h-6.3V11.32h6.18v1.62h-4.38v1.68h3.42v1.62h-3.42v1.86h4.5Z"></path>
    <path d="M510.96,13.6c0-1.32,1.14-2.46,2.94-2.46s2.76,1.14,2.76,1.14l-1.08,1.14s-.6-.72-1.56-.72c-.72,0-1.14,.42-1.14,.9,0,1.56,4.14,.66,4.14,3.66,0,1.5-1.14,2.64-3.18,2.64s-3.18-1.38-3.18-1.38l1.08-1.08s.72,.9,1.98,.9c.9,0,1.38-.48,1.38-1.08,0-1.56-4.14-.66-4.14-3.66Z"></path>
    <path d="M524.4,11.32v1.62h-2.4v6.78h-1.8v-6.78h-2.4v-1.62h6.6Z"></path>
    <path d="M525.72,11.32h1.8v8.4h-1.8V11.32Z"></path>
    <path d="M533.76,11.14c2.58,0,4.56,1.98,4.56,4.38s-1.98,4.38-4.56,4.38-4.56-1.98-4.56-4.38,1.98-4.38,4.56-4.38Zm0,7.14c1.5,0,2.7-1.2,2.7-2.76s-1.2-2.76-2.7-2.76-2.7,1.2-2.7,2.76,1.2,2.76,2.7,2.76Z"></path>
    <path d="M547.5,11.32v8.4h-1.56l-4.14-5.34v5.34h-1.8V11.32h1.56l4.14,5.34v-5.34h1.8Z"></path>
  </g>
  <path class="e" d="M11.09,82.95c0,.34-.09,.65-.26,.9-.17,.26-.47,.46-.9,.61-.43,.15-1,.28-1.71,.39-.71,.11-1.6,.16-2.68,.16s-1.91-.05-2.64-.16c-.73-.11-1.31-.24-1.74-.39-.43-.15-.73-.36-.9-.61-.17-.26-.26-.56-.26-.9V2.84c0-.34,.1-.65,.29-.9,.19-.26,.52-.46,.97-.61,.45-.15,1.03-.28,1.74-.39,.71-.11,1.56-.16,2.55-.16,1.07,0,1.97,.05,2.68,.16,.71,.11,1.28,.24,1.71,.39,.43,.15,.73,.35,.9,.61,.17,.26,.26,.56,.26,.9V82.95Z"></path>
  <path class="e" d="M88.95,82.95c0,.34-.06,.65-.19,.9s-.41,.47-.84,.64c-.43,.17-1.03,.3-1.81,.39-.77,.09-1.81,.13-3.1,.13-1.12,0-2.03-.04-2.74-.13-.71-.09-1.28-.23-1.71-.42-.43-.19-.76-.46-1-.81-.24-.34-.44-.77-.61-1.29l-7.68-19.67c-.9-2.24-1.84-4.29-2.81-6.16-.97-1.87-2.12-3.48-3.45-4.84-1.33-1.35-2.9-2.41-4.71-3.16-1.81-.75-3.98-1.13-6.51-1.13h-7.42v35.54c0,.34-.1,.65-.29,.9-.19,.26-.49,.46-.9,.61-.41,.15-.97,.28-1.68,.39-.71,.11-1.6,.16-2.68,.16s-1.97-.05-2.68-.16c-.71-.11-1.28-.24-1.71-.39-.43-.15-.73-.36-.9-.61-.17-.26-.26-.56-.26-.9V5.68c0-1.68,.44-2.85,1.32-3.52,.88-.67,1.82-1,2.81-1h17.74c2.11,0,3.86,.05,5.26,.16,1.4,.11,2.65,.23,3.77,.35,3.23,.56,6.07,1.44,8.55,2.64,2.47,1.2,4.55,2.73,6.22,4.58,1.68,1.85,2.94,3.97,3.77,6.35,.84,2.39,1.26,5.02,1.26,7.9s-.38,5.3-1.13,7.51c-.75,2.22-1.84,4.17-3.26,5.87-1.42,1.7-3.12,3.17-5.1,4.42-1.98,1.25-4.19,2.3-6.64,3.16,1.38,.6,2.62,1.37,3.74,2.29,1.12,.93,2.16,2.03,3.13,3.32,.97,1.29,1.88,2.77,2.74,4.45,.86,1.68,1.72,3.57,2.58,5.68l7.48,18.38c.6,1.55,.99,2.63,1.16,3.26,.17,.62,.26,1.11,.26,1.45Zm-16.71-58.64c0-3.27-.73-6.03-2.19-8.29-1.46-2.26-3.91-3.88-7.35-4.87-1.08-.3-2.29-.52-3.64-.65s-3.13-.19-5.32-.19h-9.35v28.12h10.84c2.92,0,5.45-.35,7.58-1.06,2.13-.71,3.9-1.7,5.32-2.97,1.42-1.27,2.46-2.76,3.13-4.48,.67-1.72,1-3.59,1-5.61Z"></path>
  <path class="c" d="M166.49,12.51c0,.82-.04,1.54-.13,2.16-.09,.62-.22,1.14-.39,1.55-.17,.41-.39,.7-.64,.87-.26,.17-.54,.26-.84,.26-.52,0-1.38-.41-2.58-1.23-1.2-.82-2.82-1.72-4.84-2.71-2.02-.99-4.44-1.89-7.26-2.71-2.82-.82-6.16-1.23-10.03-1.23-4.6,0-8.73,.84-12.39,2.52-3.66,1.68-6.75,4-9.29,6.97-2.54,2.97-4.48,6.49-5.84,10.58-1.35,4.09-2.03,8.51-2.03,13.29,0,5.33,.74,10.06,2.23,14.19,1.48,4.13,3.54,7.61,6.16,10.45,2.62,2.84,5.75,4.99,9.39,6.45,3.63,1.46,7.62,2.19,11.97,2.19,2.58,0,5.19-.31,7.84-.94,2.64-.62,5.11-1.56,7.39-2.81v-24.32h-19.35c-.73,0-1.28-.36-1.65-1.1-.37-.73-.55-1.87-.55-3.42,0-.82,.04-1.52,.13-2.1,.09-.58,.23-1.05,.42-1.42,.19-.36,.42-.63,.68-.81,.26-.17,.58-.26,.97-.26h26.51c.47,0,.94,.09,1.42,.26,.47,.17,.9,.43,1.29,.77,.39,.34,.69,.82,.9,1.42,.21,.6,.32,1.29,.32,2.06v31.8c0,1.12-.19,2.09-.58,2.9-.39,.82-1.2,1.54-2.45,2.16-1.25,.62-2.86,1.3-4.84,2.03-1.98,.73-4.02,1.35-6.13,1.87-2.11,.52-4.24,.9-6.39,1.16-2.15,.26-4.28,.39-6.39,.39-6.45,0-12.21-1-17.29-3-5.07-2-9.36-4.85-12.87-8.55-3.51-3.7-6.18-8.13-8.03-13.29-1.85-5.16-2.77-10.92-2.77-17.29s1-12.62,3-18c2-5.38,4.82-9.95,8.45-13.74,3.63-3.78,8-6.72,13.09-8.81,5.1-2.09,10.74-3.13,16.93-3.13,3.18,0,6.17,.28,8.97,.84,2.8,.56,5.28,1.22,7.45,1.97,2.17,.75,4,1.57,5.48,2.45,1.48,.88,2.5,1.6,3.06,2.16,.56,.56,.95,1.2,1.16,1.94,.21,.73,.32,1.78,.32,3.16Z"></path>
  <path class="c" d="M189.27,55.21c0,.06-.01,.1-.04,.15-.03,.04-.08,.07-.15,.1-.07,.02-.16,.05-.28,.06-.11,.02-.26,.03-.43,.03s-.31,0-.43-.03c-.12-.02-.21-.04-.28-.06-.07-.02-.12-.06-.15-.1-.03-.04-.04-.09-.04-.15v-12.97c0-.06,.02-.1,.05-.15,.03-.04,.08-.07,.16-.1,.07-.02,.17-.05,.28-.06,.11-.02,.25-.03,.41-.03,.17,0,.32,0,.43,.03,.11,.02,.21,.04,.28,.06s.12,.06,.15,.1c.03,.04,.04,.09,.04,.15v12.97Z"></path>
  <path class="e" d="M200.76,55.22c0,.06-.01,.1-.04,.14-.03,.04-.07,.07-.14,.1-.06,.03-.15,.05-.26,.06-.11,.01-.25,.02-.42,.02s-.32,0-.43-.02c-.11-.01-.2-.03-.26-.06-.06-.03-.11-.06-.14-.1-.03-.04-.04-.09-.04-.14v-5.5c0-.54-.04-.97-.13-1.3-.08-.33-.21-.61-.37-.85-.16-.24-.37-.42-.62-.54-.25-.13-.55-.19-.88-.19-.43,0-.86,.15-1.3,.46-.43,.31-.88,.76-1.36,1.35v6.57c0,.06-.01,.1-.04,.14-.03,.04-.07,.07-.14,.1-.06,.03-.15,.05-.26,.06-.11,.01-.25,.02-.43,.02s-.31,0-.42-.02c-.11-.01-.2-.03-.27-.06-.07-.03-.11-.06-.14-.1-.02-.04-.04-.09-.04-.14v-9.4c0-.06,.01-.1,.03-.14,.02-.04,.06-.07,.13-.1,.06-.03,.14-.05,.24-.06s.23-.02,.39-.02,.28,0,.38,.02,.18,.03,.23,.06c.06,.03,.1,.07,.12,.1,.02,.04,.04,.09,.04,.14v1.24c.53-.59,1.06-1.03,1.58-1.3s1.06-.41,1.59-.41c.63,0,1.15,.11,1.58,.32,.43,.21,.77,.5,1.04,.85,.26,.36,.45,.77,.57,1.25,.12,.48,.17,1.05,.17,1.72v5.73Z"></path>
  <path class="e" d="M209.8,52.66c0,.48-.09,.91-.27,1.28-.18,.38-.43,.69-.76,.95-.33,.26-.72,.45-1.17,.58s-.95,.2-1.49,.2c-.33,0-.65-.03-.96-.08s-.57-.12-.81-.2c-.24-.08-.44-.16-.61-.25s-.29-.17-.37-.24c-.08-.07-.13-.17-.17-.29-.04-.13-.05-.3-.05-.51,0-.13,0-.24,.02-.33,.01-.09,.03-.16,.05-.22,.02-.06,.05-.1,.09-.12,.04-.02,.08-.04,.13-.04,.08,0,.19,.05,.34,.14,.15,.09,.33,.2,.55,.31,.22,.11,.48,.21,.78,.31,.3,.09,.64,.14,1.03,.14,.29,0,.56-.03,.79-.09,.24-.06,.44-.16,.62-.28,.17-.12,.31-.28,.4-.46s.14-.41,.14-.67-.07-.49-.2-.67c-.14-.18-.32-.34-.54-.48-.22-.14-.47-.26-.75-.37-.28-.11-.57-.22-.86-.34-.3-.12-.58-.25-.87-.4-.28-.15-.53-.33-.76-.55-.22-.22-.4-.47-.54-.77-.14-.3-.2-.66-.2-1.08,0-.37,.07-.72,.21-1.06,.14-.34,.36-.63,.64-.89,.29-.25,.64-.46,1.07-.61,.43-.15,.93-.23,1.5-.23,.25,0,.5,.02,.75,.06s.48,.09,.68,.16c.2,.06,.37,.13,.52,.2,.14,.07,.25,.14,.32,.19,.07,.06,.12,.1,.15,.15s.04,.09,.05,.14,.02,.12,.03,.19c.01,.08,.02,.17,.02,.28,0,.12,0,.22-.02,.31-.01,.09-.03,.16-.05,.21-.02,.06-.05,.1-.09,.12-.04,.02-.07,.04-.12,.04-.06,0-.15-.04-.27-.11-.12-.08-.27-.16-.46-.25s-.41-.17-.66-.25c-.25-.08-.54-.11-.87-.11-.29,0-.55,.03-.77,.1-.22,.07-.41,.16-.55,.28-.14,.12-.25,.27-.32,.43-.07,.17-.11,.35-.11,.54,0,.27,.07,.5,.21,.68,.14,.18,.32,.35,.54,.49,.22,.14,.48,.26,.76,.38,.29,.11,.58,.23,.87,.34,.3,.12,.59,.25,.88,.4s.54,.32,.77,.53c.22,.21,.4,.46,.54,.75,.14,.29,.2,.64,.2,1.04Z"></path>
  <path class="e" d="M217.15,54.53c0,.2-.01,.36-.04,.48-.03,.12-.07,.21-.13,.26-.06,.06-.14,.11-.25,.16-.11,.05-.24,.09-.38,.12-.14,.03-.29,.06-.45,.08-.16,.02-.32,.03-.48,.03-.49,0-.91-.06-1.25-.19-.35-.13-.63-.32-.86-.58-.22-.26-.39-.59-.49-.99-.1-.4-.15-.87-.15-1.42v-5.49h-1.32c-.1,0-.19-.06-.25-.17-.06-.11-.09-.29-.09-.54,0-.13,0-.24,.03-.33s.04-.17,.07-.22c.03-.06,.06-.1,.11-.13,.05-.02,.1-.04,.15-.04h1.31v-2.24s.01-.09,.04-.14c.02-.04,.07-.08,.14-.11,.07-.03,.16-.05,.27-.07,.11-.01,.25-.02,.42-.02s.32,0,.43,.02c.11,.01,.2,.04,.26,.07s.11,.07,.14,.11,.04,.09,.04,.14v2.24h2.41c.06,0,.1,.01,.15,.04,.04,.02,.08,.07,.11,.13,.03,.06,.05,.13,.07,.22s.02,.2,.02,.33c0,.25-.03,.43-.09,.54-.06,.11-.15,.17-.25,.17h-2.41v5.24c0,.65,.1,1.14,.29,1.47,.19,.33,.53,.5,1.03,.5,.16,0,.3-.02,.43-.05,.13-.03,.24-.06,.33-.1s.18-.07,.25-.1c.07-.03,.13-.05,.19-.05,.03,0,.07,0,.1,.03,.03,.02,.06,.05,.07,.1,.02,.05,.03,.11,.05,.2s.02,.19,.02,.31Z"></path>
  <path class="e" d="M221.37,42.65c0,.4-.08,.68-.23,.83-.15,.15-.44,.22-.85,.22s-.68-.07-.83-.21-.22-.41-.22-.81,.08-.68,.23-.83,.44-.22,.85-.22,.68,.07,.83,.21c.15,.14,.22,.41,.22,.81Zm-.2,12.57c0,.06-.01,.1-.04,.14-.03,.04-.07,.07-.14,.1-.06,.03-.15,.05-.26,.06-.11,.01-.25,.02-.43,.02s-.31,0-.42-.02c-.11-.01-.2-.03-.27-.06-.07-.03-.11-.06-.14-.1-.02-.04-.04-.09-.04-.14v-9.4s.01-.09,.04-.14,.07-.08,.14-.1c.07-.03,.15-.05,.27-.06,.11-.01,.25-.02,.42-.02s.32,0,.43,.02c.11,.01,.2,.04,.26,.06,.06,.03,.11,.06,.14,.1,.03,.04,.04,.09,.04,.14v9.4Z"></path>
  <path class="e" d="M229.25,54.53c0,.2-.01,.36-.04,.48-.03,.12-.07,.21-.13,.26-.06,.06-.14,.11-.25,.16-.11,.05-.24,.09-.38,.12-.14,.03-.29,.06-.45,.08-.16,.02-.32,.03-.48,.03-.49,0-.91-.06-1.25-.19-.35-.13-.63-.32-.86-.58-.22-.26-.39-.59-.49-.99-.1-.4-.15-.87-.15-1.42v-5.49h-1.32c-.1,0-.19-.06-.25-.17-.06-.11-.09-.29-.09-.54,0-.13,0-.24,.03-.33s.04-.17,.07-.22c.03-.06,.06-.1,.11-.13,.05-.02,.1-.04,.15-.04h1.31v-2.24s.01-.09,.04-.14c.02-.04,.07-.08,.14-.11,.07-.03,.16-.05,.27-.07,.11-.01,.25-.02,.42-.02s.32,0,.43,.02c.11,.01,.2,.04,.26,.07s.11,.07,.14,.11,.04,.09,.04,.14v2.24h2.41c.06,0,.1,.01,.15,.04,.04,.02,.08,.07,.11,.13,.03,.06,.05,.13,.07,.22s.02,.2,.02,.33c0,.25-.03,.43-.09,.54-.06,.11-.15,.17-.25,.17h-2.41v5.24c0,.65,.1,1.14,.29,1.47,.19,.33,.53,.5,1.03,.5,.16,0,.3-.02,.43-.05,.13-.03,.24-.06,.33-.1s.18-.07,.25-.1c.07-.03,.13-.05,.19-.05,.03,0,.07,0,.1,.03,.03,.02,.06,.05,.07,.1,.02,.05,.03,.11,.05,.2s.02,.19,.02,.31Z"></path>
  <path class="e" d="M239.58,55.22c0,.06-.01,.1-.04,.14-.02,.04-.07,.07-.13,.1-.06,.03-.14,.05-.25,.06-.1,.01-.22,.02-.37,.02-.16,0-.29,0-.39-.02-.1-.01-.18-.03-.24-.06-.06-.03-.1-.06-.12-.1-.02-.04-.03-.09-.03-.14v-1.24c-.54,.59-1.07,1.02-1.59,1.3-.52,.27-1.05,.41-1.59,.41-.63,0-1.15-.1-1.58-.31-.43-.21-.77-.49-1.04-.85-.27-.36-.45-.78-.57-1.25-.11-.48-.17-1.06-.17-1.74v-5.7c0-.06,.01-.1,.04-.14,.02-.04,.07-.07,.14-.1,.07-.03,.16-.05,.27-.06s.25-.02,.42-.02,.31,0,.42,.02c.11,.01,.2,.03,.27,.06,.07,.03,.11,.07,.14,.1,.03,.04,.04,.09,.04,.14v5.47c0,.55,.04,.99,.12,1.32,.08,.33,.2,.61,.37,.85,.16,.23,.37,.41,.62,.54s.54,.19,.88,.19c.43,0,.86-.15,1.29-.46s.88-.76,1.36-1.35v-6.57c0-.06,.01-.1,.04-.14,.02-.04,.07-.07,.14-.1,.07-.03,.16-.05,.27-.06,.11-.01,.25-.02,.42-.02s.31,0,.42,.02c.11,.01,.2,.03,.26,.06s.11,.07,.14,.1c.03,.04,.05,.09,.05,.14v9.4Z"></path>
  <path class="e" d="M247.65,54.53c0,.2-.01,.36-.04,.48-.03,.12-.07,.21-.13,.26-.06,.06-.14,.11-.25,.16-.11,.05-.24,.09-.38,.12-.14,.03-.29,.06-.45,.08-.16,.02-.32,.03-.48,.03-.49,0-.91-.06-1.25-.19-.35-.13-.63-.32-.86-.58-.22-.26-.39-.59-.49-.99-.1-.4-.15-.87-.15-1.42v-5.49h-1.32c-.1,0-.19-.06-.25-.17-.06-.11-.09-.29-.09-.54,0-.13,0-.24,.03-.33s.04-.17,.07-.22c.03-.06,.06-.1,.11-.13,.05-.02,.1-.04,.15-.04h1.31v-2.24s.01-.09,.04-.14c.02-.04,.07-.08,.14-.11,.07-.03,.16-.05,.27-.07,.11-.01,.25-.02,.42-.02s.32,0,.43,.02c.11,.01,.2,.04,.26,.07s.11,.07,.14,.11,.04,.09,.04,.14v2.24h2.41c.06,0,.1,.01,.15,.04,.04,.02,.08,.07,.11,.13,.03,.06,.05,.13,.07,.22s.02,.2,.02,.33c0,.25-.03,.43-.09,.54-.06,.11-.15,.17-.25,.17h-2.41v5.24c0,.65,.1,1.14,.29,1.47,.19,.33,.53,.5,1.03,.5,.16,0,.3-.02,.43-.05,.13-.03,.24-.06,.33-.1s.18-.07,.25-.1c.07-.03,.13-.05,.19-.05,.03,0,.07,0,.1,.03,.03,.02,.06,.05,.07,.1,.02,.05,.03,.11,.05,.2s.02,.19,.02,.31Z"></path>
  <path class="d" d="M261.25,42.69s-.08-.09-.15-.11c-.06-.02-.14-.04-.24-.06-.1-.02-.23-.02-.39-.02s-.28,0-.38,.02-.18,.04-.25,.06c-.07,.03-.13,.07-.16,.12-.03,.05-.04,.1-.04,.15v4.73c-.37-.37-.75-.66-1.12-.86-.41-.22-.87-.33-1.37-.33-.6,0-1.13,.11-1.58,.34-.46,.22-.84,.55-1.15,.96-.31,.41-.54,.92-.7,1.5-.16,.58-.23,1.24-.23,1.96,0,.61,.06,1.2,.19,1.75,.13,.55,.33,1.04,.6,1.45,.27,.41,.64,.74,1.08,.99,.44,.24,.98,.37,1.6,.37,.57,0,1.11-.14,1.59-.41,.44-.25,.88-.59,1.29-1.03v.97c0,.06,.02,.11,.05,.16,.03,.05,.08,.08,.15,.11,.06,.02,.14,.04,.23,.05,.09,.01,.2,.02,.33,.02s.23,0,.32-.02c.09-.01,.17-.03,.22-.05,.06-.03,.11-.06,.14-.11,.03-.05,.04-.1,.04-.16v-12.4c0-.06-.02-.11-.05-.16Zm-1.6,6.69v3.31c-.23,.29-.46,.55-.67,.75-.21,.21-.42,.37-.62,.5-.19,.13-.38,.22-.57,.27-.18,.05-.38,.08-.58,.08-.39,0-.72-.09-.97-.27-.26-.18-.47-.43-.62-.73-.16-.31-.27-.66-.33-1.06-.06-.4-.1-.82-.1-1.23,0-.39,.04-.78,.12-1.16,.08-.38,.2-.72,.37-1.02,.17-.29,.38-.54,.65-.72,.26-.18,.59-.27,.97-.27,.41,0,.81,.13,1.18,.4,.38,.26,.78,.65,1.18,1.15Z"></path>
  <path class="d" d="M271.08,48.86c-.14-.49-.37-.92-.67-1.28-.3-.36-.69-.65-1.16-.87-.47-.21-1.04-.32-1.7-.32-.62,0-1.19,.11-1.69,.33-.5,.22-.94,.53-1.29,.94-.35,.4-.63,.9-.82,1.48-.19,.58-.28,1.23-.28,1.96,0,.76,.09,1.44,.27,2.01,.18,.58,.46,1.06,.81,1.45,.36,.38,.81,.68,1.33,.87,.52,.19,1.14,.29,1.83,.29,.4,0,.78-.03,1.13-.09,.35-.06,.66-.13,.93-.2,.27-.07,.49-.15,.66-.23,.23-.11,.29-.15,.32-.18,.04-.04,.07-.08,.09-.12,.02-.04,.04-.09,.05-.14,0-.05,.02-.1,.02-.16,0-.06,0-.13,0-.21,0-.12,0-.21-.01-.29-.01-.08-.03-.15-.05-.2-.02-.05-.06-.09-.1-.12-.11-.07-.24-.05-.5,.06-.14,.06-.33,.14-.56,.22-.22,.08-.49,.15-.8,.22-.31,.06-.66,.1-1.06,.1-.5,0-.92-.07-1.26-.21-.34-.14-.62-.34-.83-.6-.21-.26-.37-.57-.46-.94-.09-.35-.13-.75-.14-1.19h5.46c.17,0,.32-.06,.45-.17,.13-.11,.2-.3,.2-.56v-.28c0-.55-.07-1.07-.21-1.56Zm-3.61-1.15c.72,0,1.27,.22,1.64,.67,.36,.44,.54,1.05,.53,1.81h-4.46c.02-.31,.07-.62,.17-.91,.1-.31,.25-.58,.44-.81,.19-.23,.42-.41,.7-.55,.28-.14,.61-.21,.98-.21Z"></path>
  <path class="c" d="M196.49,80.88c0,.06-.01,.1-.03,.15-.02,.04-.07,.08-.14,.1-.07,.03-.17,.05-.29,.06-.13,.01-.29,.02-.5,.02-.18,0-.33,0-.44-.02s-.21-.04-.28-.07c-.07-.03-.12-.07-.16-.13-.04-.06-.07-.13-.1-.21l-1.24-3.19c-.15-.36-.3-.69-.45-1-.16-.3-.34-.56-.56-.78-.22-.22-.47-.39-.76-.51-.29-.12-.64-.18-1.05-.18h-1.2v5.75c0,.06-.02,.1-.05,.15-.03,.04-.08,.07-.15,.1s-.16,.05-.27,.06-.26,.03-.43,.03-.32,0-.43-.03c-.11-.02-.21-.04-.28-.06s-.12-.06-.15-.1c-.03-.04-.04-.09-.04-.15v-12.51c0-.27,.07-.46,.21-.57,.14-.11,.29-.16,.45-.16h2.87c.34,0,.62,0,.85,.03,.23,.02,.43,.04,.61,.06,.52,.09,.98,.23,1.38,.43,.4,.19,.74,.44,1.01,.74s.48,.64,.61,1.03c.14,.39,.2,.81,.2,1.28s-.06,.86-.18,1.22c-.12,.36-.3,.68-.53,.95-.23,.28-.5,.51-.83,.72-.32,.2-.68,.37-1.08,.51,.22,.1,.42,.22,.61,.37s.35,.33,.51,.54c.16,.21,.3,.45,.44,.72,.14,.27,.28,.58,.42,.92l1.21,2.98c.1,.25,.16,.43,.19,.53,.03,.1,.04,.18,.04,.24Zm-2.7-9.49c0-.53-.12-.98-.36-1.34-.24-.37-.63-.63-1.19-.79-.17-.05-.37-.08-.59-.1-.22-.02-.51-.03-.86-.03h-1.51v4.55h1.75c.47,0,.88-.06,1.23-.17,.34-.12,.63-.28,.86-.48,.23-.21,.4-.45,.51-.73,.11-.28,.16-.58,.16-.91Z"></path>
  <path class="e" d="M206.91,75.78c0,.27-.07,.46-.2,.58-.14,.12-.29,.17-.47,.17h-6.19c0,.52,.05,.99,.16,1.41s.28,.78,.52,1.08c.24,.3,.56,.53,.95,.69s.87,.24,1.44,.24c.45,0,.85-.04,1.2-.11,.35-.07,.65-.15,.91-.25s.47-.17,.63-.25,.29-.11,.37-.11c.05,0,.09,.01,.13,.04,.04,.02,.07,.06,.09,.11,.02,.05,.04,.12,.05,.2,.01,.09,.02,.19,.02,.32,0,.09,0,.17-.01,.24s-.02,.13-.03,.18c-.01,.05-.03,.1-.05,.14-.02,.04-.06,.08-.09,.12-.04,.04-.15,.1-.34,.19-.19,.09-.43,.17-.73,.26s-.65,.16-1.04,.22c-.39,.07-.81,.1-1.26,.1-.77,0-1.45-.11-2.03-.32-.58-.22-1.07-.54-1.47-.96-.4-.42-.7-.96-.9-1.6s-.3-1.39-.3-2.24,.1-1.53,.31-2.18c.21-.64,.51-1.19,.9-1.64,.39-.45,.87-.79,1.43-1.03,.56-.24,1.18-.36,1.87-.36,.74,0,1.37,.12,1.89,.36s.95,.56,1.28,.96c.33,.4,.58,.87,.74,1.41s.23,1.12,.23,1.73v.31Zm-1.73-.51c.02-.91-.18-1.62-.6-2.13-.42-.51-1.05-.77-1.89-.77-.43,0-.8,.08-1.12,.24s-.59,.37-.81,.64c-.22,.26-.39,.57-.5,.92s-.19,.72-.2,1.1h5.13Z"></path>
  <path class="e" d="M216.29,79.46c0,.12,0,.22-.01,.31s-.02,.16-.04,.22c-.02,.06-.04,.11-.06,.16-.02,.05-.08,.11-.17,.2s-.23,.19-.44,.32c-.21,.13-.44,.24-.71,.34-.26,.1-.54,.18-.85,.25-.31,.06-.62,.09-.95,.09-.68,0-1.27-.11-1.8-.33-.52-.22-.96-.55-1.31-.98-.35-.43-.62-.95-.8-1.58-.18-.62-.28-1.34-.28-2.16,0-.93,.11-1.72,.34-2.39,.23-.66,.54-1.21,.93-1.63,.39-.42,.86-.74,1.39-.95,.53-.21,1.11-.31,1.73-.31,.3,0,.59,.03,.87,.08s.54,.13,.78,.22c.24,.09,.45,.2,.63,.31s.32,.22,.4,.3c.08,.08,.14,.15,.17,.2,.03,.05,.06,.11,.08,.17,.02,.07,.04,.14,.04,.22s.01,.19,.01,.31c0,.27-.03,.46-.09,.57s-.14,.16-.23,.16c-.1,0-.22-.06-.36-.17-.14-.12-.31-.24-.52-.38-.21-.14-.46-.27-.76-.38-.3-.11-.65-.17-1.05-.17-.83,0-1.46,.32-1.91,.96s-.66,1.56-.66,2.77c0,.61,.06,1.14,.17,1.59,.11,.46,.28,.84,.51,1.14,.22,.31,.5,.53,.82,.68,.32,.15,.69,.22,1.11,.22s.74-.06,1.04-.19c.3-.13,.56-.26,.78-.41,.22-.15,.4-.29,.55-.41,.15-.12,.27-.18,.35-.18,.05,0,.09,.01,.13,.04,.03,.03,.06,.07,.09,.14,.02,.07,.04,.15,.05,.25s.02,.22,.02,.36Z"></path>
  <path class="e" d="M226.67,80.89c0,.06-.01,.1-.04,.14-.03,.04-.07,.07-.14,.1-.06,.03-.15,.05-.26,.06s-.25,.02-.42,.02-.32,0-.43-.02-.2-.03-.26-.06-.11-.06-.14-.1c-.03-.04-.04-.09-.04-.14v-5.5c0-.54-.04-.97-.13-1.3-.08-.33-.21-.61-.37-.85-.16-.24-.37-.42-.62-.54-.25-.13-.55-.19-.88-.19-.43,0-.86,.15-1.3,.46-.43,.31-.88,.76-1.36,1.35v6.57c0,.06-.01,.1-.04,.14-.03,.04-.07,.07-.14,.1s-.15,.05-.26,.06-.25,.02-.43,.02-.31,0-.42-.02c-.11-.01-.2-.03-.27-.06-.07-.03-.11-.06-.14-.1-.02-.04-.04-.09-.04-.14v-13.95c0-.06,.01-.1,.04-.15,.02-.04,.07-.08,.14-.1,.07-.03,.15-.05,.27-.06,.11-.01,.25-.02,.42-.02s.32,0,.43,.02,.2,.03,.26,.06c.06,.03,.11,.06,.14,.1,.03,.04,.04,.09,.04,.15v5.63c.49-.52,.99-.91,1.49-1.16,.5-.25,1.01-.38,1.51-.38,.63,0,1.15,.11,1.58,.32,.43,.21,.77,.5,1.04,.85s.45,.77,.57,1.25c.12,.48,.17,1.05,.17,1.73v5.72Z"></path>
  <path class="e" d="M237.83,75.78c0,.27-.07,.46-.2,.58-.14,.12-.29,.17-.47,.17h-6.19c0,.52,.05,.99,.16,1.41s.28,.78,.52,1.08c.24,.3,.56,.53,.95,.69s.87,.24,1.44,.24c.45,0,.85-.04,1.2-.11,.35-.07,.65-.15,.91-.25s.47-.17,.63-.25,.29-.11,.37-.11c.05,0,.09,.01,.13,.04,.04,.02,.07,.06,.09,.11,.02,.05,.04,.12,.05,.2,.01,.09,.02,.19,.02,.32,0,.09,0,.17-.01,.24s-.02,.13-.03,.18c-.01,.05-.03,.1-.05,.14-.02,.04-.06,.08-.09,.12-.04,.04-.15,.1-.34,.19s-.43,.17-.73,.26-.65,.16-1.04,.22c-.39,.07-.81,.1-1.26,.1-.77,0-1.45-.11-2.03-.32-.58-.22-1.07-.54-1.47-.96-.4-.42-.7-.96-.9-1.6s-.3-1.39-.3-2.24,.1-1.53,.31-2.18c.21-.64,.51-1.19,.9-1.64,.39-.45,.87-.79,1.43-1.03,.56-.24,1.18-.36,1.87-.36,.74,0,1.37,.12,1.89,.36s.95,.56,1.28,.96c.33,.4,.58,.87,.74,1.41s.23,1.12,.23,1.73v.31Zm-1.73-.51c.02-.91-.18-1.62-.6-2.13-.42-.51-1.05-.77-1.89-.77-.43,0-.8,.08-1.12,.24s-.59,.37-.81,.64c-.22,.26-.39,.57-.5,.92s-.19,.72-.2,1.1h5.13Z"></path>
  <path class="e" d="M245.95,72.11c0,.15,0,.28-.01,.39s-.02,.19-.04,.25c-.02,.06-.05,.1-.08,.14-.03,.03-.07,.05-.13,.05s-.12-.02-.2-.05c-.08-.03-.17-.06-.27-.09-.1-.03-.21-.06-.34-.09-.13-.03-.26-.04-.41-.04-.17,0-.34,.04-.51,.1-.17,.07-.34,.18-.53,.34s-.38,.37-.58,.64c-.2,.26-.42,.59-.67,.97v6.18c0,.06-.01,.1-.04,.14-.03,.04-.07,.07-.14,.1s-.15,.05-.26,.06-.25,.02-.43,.02-.31,0-.42-.02c-.11-.01-.2-.03-.27-.06-.07-.03-.11-.06-.14-.1-.02-.04-.04-.09-.04-.14v-9.4c0-.06,.01-.1,.03-.14,.02-.04,.06-.07,.13-.1,.06-.03,.14-.05,.24-.06,.1-.01,.23-.02,.39-.02s.28,0,.38,.02c.1,.01,.18,.03,.23,.06,.06,.03,.1,.07,.12,.1,.02,.04,.04,.09,.04,.14v1.37c.26-.38,.5-.68,.73-.92,.23-.24,.44-.42,.64-.56,.2-.14,.4-.23,.6-.28,.2-.05,.4-.08,.6-.08,.09,0,.19,0,.31,.02,.12,.01,.24,.03,.36,.06,.13,.03,.24,.06,.34,.09,.1,.03,.17,.07,.21,.1,.04,.03,.07,.07,.08,.1,.01,.03,.03,.07,.04,.12,.01,.05,.02,.12,.02,.21s0,.22,0,.38Z"></path>
  <path class="e" d="M254.67,79.46c0,.12,0,.22-.01,.31,0,.09-.02,.16-.04,.22-.02,.06-.04,.11-.06,.16-.02,.05-.08,.11-.17,.2s-.23,.19-.44,.32c-.21,.13-.44,.24-.71,.34-.26,.1-.54,.18-.85,.25-.31,.06-.62,.09-.95,.09-.68,0-1.27-.11-1.8-.33-.52-.22-.96-.55-1.31-.98-.35-.43-.62-.95-.8-1.58-.18-.62-.28-1.34-.28-2.16,0-.93,.11-1.72,.34-2.39,.23-.66,.54-1.21,.93-1.63,.39-.42,.86-.74,1.39-.95,.53-.21,1.11-.31,1.73-.31,.3,0,.59,.03,.87,.08s.54,.13,.78,.22c.24,.09,.45,.2,.63,.31s.32,.22,.4,.3c.08,.08,.14,.15,.17,.2,.03,.05,.06,.11,.08,.17,.02,.07,.04,.14,.04,.22s.01,.19,.01,.31c0,.27-.03,.46-.09,.57s-.14,.16-.23,.16c-.1,0-.22-.06-.36-.17-.14-.12-.31-.24-.52-.38-.21-.14-.46-.27-.76-.38-.3-.11-.65-.17-1.05-.17-.83,0-1.46,.32-1.91,.96s-.66,1.56-.66,2.77c0,.61,.06,1.14,.17,1.59,.11,.46,.28,.84,.51,1.14,.22,.31,.5,.53,.82,.68,.32,.15,.69,.22,1.11,.22s.74-.06,1.04-.19c.3-.13,.56-.26,.78-.41,.22-.15,.4-.29,.55-.41,.15-.12,.27-.18,.35-.18,.05,0,.09,.01,.13,.04,.03,.03,.06,.07,.09,.14,.02,.07,.04,.15,.05,.25s.02,.22,.02,.36Z"></path>
  <path class="e" d="M265.05,80.89c0,.06-.01,.1-.04,.14-.03,.04-.07,.07-.14,.1-.06,.03-.15,.05-.26,.06s-.25,.02-.42,.02-.32,0-.43-.02-.2-.03-.26-.06-.11-.06-.14-.1c-.03-.04-.04-.09-.04-.14v-5.5c0-.54-.04-.97-.13-1.3-.08-.33-.21-.61-.37-.85-.16-.24-.37-.42-.62-.54-.25-.13-.55-.19-.88-.19-.43,0-.86,.15-1.3,.46-.43,.31-.88,.76-1.36,1.35v6.57c0,.06-.01,.1-.04,.14-.03,.04-.07,.07-.14,.1s-.15,.05-.26,.06-.25,.02-.43,.02-.31,0-.42-.02c-.11-.01-.2-.03-.27-.06-.07-.03-.11-.06-.14-.1-.02-.04-.04-.09-.04-.14v-13.95c0-.06,.01-.1,.04-.15,.02-.04,.07-.08,.14-.1,.07-.03,.15-.05,.27-.06,.11-.01,.25-.02,.42-.02s.32,0,.43,.02,.2,.03,.26,.06c.06,.03,.11,.06,.14,.1,.03,.04,.04,.09,.04,.15v5.63c.49-.52,.99-.91,1.49-1.16,.5-.25,1.01-.38,1.51-.38,.63,0,1.15,.11,1.58,.32,.43,.21,.77,.5,1.04,.85s.45,.77,.57,1.25c.12,.48,.17,1.05,.17,1.73v5.72Z"></path>
  <path class="e" d="M276.22,75.78c0,.27-.07,.46-.2,.58-.14,.12-.29,.17-.47,.17h-6.19c0,.52,.05,.99,.16,1.41s.28,.78,.52,1.08c.24,.3,.56,.53,.95,.69s.87,.24,1.44,.24c.45,0,.85-.04,1.2-.11,.35-.07,.65-.15,.91-.25s.47-.17,.63-.25,.29-.11,.37-.11c.05,0,.09,.01,.13,.04,.04,.02,.07,.06,.09,.11,.02,.05,.04,.12,.05,.2,.01,.09,.02,.19,.02,.32,0,.09,0,.17-.01,.24s-.02,.13-.03,.18c-.01,.05-.03,.1-.05,.14-.02,.04-.06,.08-.09,.12-.04,.04-.15,.1-.34,.19s-.43,.17-.73,.26-.65,.16-1.04,.22c-.39,.07-.81,.1-1.26,.1-.77,0-1.45-.11-2.03-.32-.58-.22-1.07-.54-1.47-.96-.4-.42-.7-.96-.9-1.6s-.3-1.39-.3-2.24,.1-1.53,.31-2.18c.21-.64,.51-1.19,.9-1.64,.39-.45,.87-.79,1.43-1.03,.56-.24,1.18-.36,1.87-.36,.74,0,1.37,.12,1.89,.36s.95,.56,1.28,.96c.33,.4,.58,.87,.74,1.41s.23,1.12,.23,1.73v.31Zm-1.73-.51c.02-.91-.18-1.62-.6-2.13-.42-.51-1.05-.77-1.89-.77-.43,0-.8,.08-1.12,.24s-.59,.37-.81,.64c-.22,.26-.39,.57-.5,.92s-.19,.72-.2,1.1h5.13Z"></path>
  <path class="d" d="M289.97,74.53c-.14-.49-.37-.92-.67-1.28-.3-.36-.69-.65-1.16-.87-.47-.21-1.04-.32-1.7-.32-.62,0-1.19,.11-1.69,.33-.5,.21-.94,.53-1.29,.94-.35,.41-.63,.9-.82,1.48s-.28,1.24-.28,1.96,.09,1.44,.27,2.01c.18,.58,.46,1.06,.81,1.45,.36,.38,.81,.68,1.33,.87,.52,.19,1.14,.29,1.83,.29,.4,0,.78-.03,1.13-.09,.35-.06,.67-.13,.93-.2,.28-.08,.49-.15,.66-.23,.26-.12,.3-.17,.32-.18,.04-.04,.07-.08,.09-.12,.02-.04,.04-.09,.05-.14,0-.05,.02-.1,.02-.16,0-.06,0-.13,0-.21,0-.11,0-.21-.01-.29-.01-.08-.03-.15-.05-.2-.02-.05-.06-.09-.1-.12-.11-.07-.24-.05-.5,.06-.15,.07-.34,.14-.56,.22-.22,.08-.49,.15-.8,.22-.31,.06-.67,.1-1.06,.1-.5,0-.92-.07-1.26-.21-.34-.14-.62-.34-.83-.6-.21-.26-.37-.57-.46-.94-.09-.35-.13-.75-.14-1.19h5.46c.17,0,.32-.06,.45-.17,.13-.11,.2-.3,.2-.56v-.28c0-.55-.07-1.07-.21-1.56Zm-1.44,1.32h-4.46c.02-.31,.07-.62,.17-.91,.1-.3,.25-.58,.44-.81,.19-.23,.42-.41,.7-.55,.28-.14,.61-.21,.98-.21,.72,0,1.27,.22,1.64,.67,.36,.44,.54,1.04,.53,1.81Z"></path>
  <path class="d" d="M299.58,74.26c-.1-.43-.28-.81-.52-1.13-.24-.32-.56-.58-.95-.78-.39-.19-.87-.29-1.44-.29-.49,0-.97,.13-1.45,.37-.44,.23-.89,.59-1.33,1.06v-.96c0-.06-.01-.11-.04-.16-.03-.04-.07-.08-.13-.11-.06-.03-.13-.05-.23-.06-.1,0-.21-.01-.35-.01s-.26,0-.35,.01c-.09,0-.17,.03-.23,.06-.07,.03-.11,.07-.14,.12-.02,.04-.03,.09-.03,.15v8.38c0,.06,.01,.11,.04,.16,.03,.04,.08,.08,.15,.11,.06,.03,.15,.05,.25,.06,.1,.01,.22,.02,.38,.02s.29,0,.39-.02c.1-.01,.19-.03,.25-.06,.07-.03,.11-.06,.14-.11,.03-.04,.05-.1,.05-.16v-5.84c.41-.51,.81-.91,1.19-1.17,.37-.26,.75-.4,1.12-.4,.29,0,.54,.05,.76,.16,.22,.11,.4,.26,.53,.47,.14,.2,.25,.45,.32,.74,.07,.29,.11,.67,.11,1.14v4.91c0,.06,.02,.11,.05,.16,.03,.04,.08,.08,.14,.11,.06,.03,.14,.05,.25,.06,.1,.01,.23,.02,.39,.02s.28,0,.38-.02c.1-.01,.19-.03,.25-.06,.07-.03,.11-.06,.14-.11,.03-.04,.05-.1,.05-.16v-5.11c0-.6-.05-1.12-.16-1.54Z"></path>
  <path class="c" d="M197.62,95.14c0,.13,0,.25-.02,.35-.01,.1-.03,.18-.06,.25-.03,.07-.06,.11-.1,.14-.04,.03-.09,.04-.14,.04-.08,0-.22-.07-.42-.2-.19-.13-.46-.28-.78-.44-.33-.16-.72-.31-1.17-.44-.46-.13-1-.2-1.62-.2-.74,0-1.41,.14-2.01,.41-.59,.27-1.09,.65-1.5,1.13-.41,.48-.73,1.05-.95,1.71-.22,.66-.33,1.38-.33,2.15,0,.86,.12,1.63,.36,2.3,.24,.67,.57,1.23,1,1.69,.42,.46,.93,.81,1.52,1.04,.59,.24,1.23,.36,1.94,.36,.42,0,.84-.05,1.27-.15s.83-.25,1.2-.45v-3.94h-3.13c-.12,0-.21-.06-.27-.18s-.09-.3-.09-.55c0-.13,0-.25,.02-.34s.04-.17,.07-.23c.03-.06,.07-.1,.11-.13,.04-.03,.09-.04,.16-.04h4.29c.08,0,.15,.01,.23,.04,.08,.03,.15,.07,.21,.13,.06,.06,.11,.13,.15,.23,.03,.1,.05,.21,.05,.33v5.15c0,.18-.03,.34-.09,.47-.06,.13-.19,.25-.4,.35-.2,.1-.46,.21-.78,.33-.32,.12-.65,.22-.99,.3-.34,.08-.69,.15-1.03,.19-.35,.04-.69,.06-1.03,.06-1.04,0-1.98-.16-2.8-.49-.82-.32-1.52-.79-2.08-1.38-.57-.6-1-1.32-1.3-2.15-.3-.84-.45-1.77-.45-2.8s.16-2.04,.49-2.91c.32-.87,.78-1.61,1.37-2.22,.59-.61,1.3-1.09,2.12-1.43s1.74-.51,2.74-.51c.51,0,1,.05,1.45,.14,.45,.09,.85,.2,1.21,.32s.65,.25,.89,.4c.24,.14,.41,.26,.5,.35,.09,.09,.15,.2,.19,.31,.03,.12,.05,.29,.05,.51Z"></path>
  <path class="e" d="M208.79,101.45c0,.27-.07,.46-.2,.58-.14,.12-.29,.17-.47,.17h-6.19c0,.52,.05,.99,.16,1.41s.28,.78,.52,1.08c.24,.3,.56,.53,.95,.69s.87,.24,1.44,.24c.45,0,.85-.04,1.2-.11,.35-.07,.65-.15,.91-.25s.47-.17,.63-.25,.29-.11,.37-.11c.05,0,.09,.01,.13,.04,.04,.02,.07,.06,.09,.11,.02,.05,.04,.12,.05,.2,.01,.09,.02,.19,.02,.32,0,.09,0,.17-.01,.24s-.02,.13-.03,.18c-.01,.05-.03,.1-.05,.14-.02,.04-.06,.08-.09,.12-.04,.04-.15,.1-.34,.19s-.43,.17-.73,.26-.65,.16-1.04,.22c-.39,.07-.81,.1-1.26,.1-.77,0-1.45-.11-2.03-.32-.58-.22-1.07-.54-1.47-.96-.4-.42-.7-.96-.9-1.6s-.3-1.39-.3-2.24,.1-1.53,.31-2.18c.21-.64,.51-1.19,.9-1.64,.39-.45,.87-.79,1.43-1.03,.56-.24,1.18-.36,1.87-.36,.74,0,1.37,.12,1.89,.36s.95,.56,1.28,.96c.33,.4,.58,.87,.74,1.41s.23,1.12,.23,1.73v.31Zm-1.73-.51c.02-.91-.18-1.62-.6-2.13-.42-.51-1.05-.77-1.89-.77-.43,0-.8,.08-1.12,.24s-.59,.37-.81,.64c-.22,.26-.39,.57-.5,.92s-.19,.72-.2,1.1h5.13Z"></path>
  <path class="e" d="M217.31,104c0,.48-.09,.91-.27,1.28s-.43,.69-.76,.95c-.33,.26-.72,.45-1.17,.59s-.95,.2-1.49,.2c-.33,0-.65-.03-.96-.08-.3-.05-.57-.12-.81-.2s-.44-.16-.61-.25c-.17-.09-.29-.17-.37-.23s-.13-.17-.17-.29c-.04-.13-.05-.3-.05-.51,0-.13,0-.24,.02-.33,.01-.09,.03-.16,.05-.22,.02-.06,.05-.1,.09-.12,.04-.02,.08-.04,.13-.04,.08,0,.19,.05,.34,.14,.15,.09,.33,.2,.55,.31,.22,.11,.48,.21,.78,.31s.64,.14,1.03,.14c.29,0,.56-.03,.79-.09,.24-.06,.44-.16,.62-.28,.17-.12,.31-.28,.4-.47,.09-.19,.14-.41,.14-.67s-.07-.49-.2-.67c-.14-.18-.32-.34-.54-.48-.22-.14-.47-.26-.75-.37s-.57-.22-.86-.34c-.3-.12-.58-.25-.87-.4s-.53-.33-.76-.55c-.22-.22-.4-.47-.54-.77-.14-.3-.2-.66-.2-1.08,0-.37,.07-.72,.21-1.06,.14-.34,.36-.63,.64-.89,.29-.25,.64-.46,1.07-.61,.43-.15,.93-.23,1.5-.23,.25,0,.5,.02,.75,.06,.25,.04,.48,.09,.68,.16,.2,.06,.37,.13,.52,.2,.14,.07,.25,.14,.32,.19s.12,.1,.15,.15c.02,.04,.04,.09,.05,.14,.01,.05,.02,.12,.03,.19s.02,.17,.02,.28c0,.12,0,.22-.02,.31s-.03,.16-.05,.21c-.02,.06-.05,.1-.09,.12-.04,.02-.07,.04-.12,.04-.06,0-.15-.04-.27-.12-.12-.08-.27-.16-.46-.25s-.41-.17-.66-.25-.54-.11-.87-.11c-.29,0-.55,.03-.77,.1-.22,.07-.41,.16-.55,.28-.14,.12-.25,.27-.32,.43s-.11,.35-.11,.54c0,.27,.07,.5,.21,.68,.14,.18,.32,.35,.54,.49,.22,.14,.48,.26,.76,.38,.29,.11,.58,.23,.87,.34,.3,.12,.59,.25,.88,.4,.29,.15,.54,.32,.77,.53,.22,.21,.4,.46,.54,.75,.14,.29,.2,.64,.2,1.04Z"></path>
  <path class="e" d="M224.66,105.87c0,.2-.01,.36-.04,.48s-.07,.21-.13,.26c-.06,.06-.14,.11-.25,.16-.11,.05-.24,.09-.38,.12-.14,.03-.29,.06-.45,.08-.16,.02-.32,.03-.48,.03-.49,0-.91-.06-1.25-.19s-.63-.32-.86-.59c-.22-.26-.39-.59-.49-.99-.1-.4-.15-.87-.15-1.42v-5.49h-1.32c-.1,0-.19-.06-.25-.17s-.09-.29-.09-.54c0-.13,0-.24,.03-.33,.02-.09,.04-.17,.07-.22,.03-.06,.06-.1,.11-.13,.05-.02,.1-.04,.15-.04h1.31v-2.24s.01-.09,.04-.14c.02-.04,.07-.08,.14-.11,.07-.03,.16-.05,.27-.07,.11-.01,.25-.02,.42-.02s.32,0,.43,.02c.11,.01,.2,.04,.26,.07,.06,.03,.11,.07,.14,.11,.03,.04,.04,.09,.04,.14v2.24h2.41c.06,0,.1,.01,.15,.04,.04,.02,.08,.07,.11,.13,.03,.06,.05,.13,.07,.22,.01,.09,.02,.2,.02,.33,0,.25-.03,.43-.09,.54-.06,.11-.15,.17-.25,.17h-2.41v5.24c0,.65,.1,1.14,.29,1.47,.19,.33,.53,.5,1.03,.5,.16,0,.3-.02,.43-.05,.13-.03,.24-.06,.33-.1,.1-.03,.18-.07,.25-.1,.07-.03,.13-.05,.19-.05,.03,0,.07,0,.1,.03s.06,.05,.07,.1c.02,.05,.03,.11,.05,.2s.02,.19,.02,.31Z"></path>
  <path class="e" d="M228.88,93.98c0,.4-.08,.68-.23,.83-.15,.15-.44,.22-.85,.22s-.68-.07-.83-.21-.22-.41-.22-.81,.08-.68,.23-.83c.15-.15,.44-.22,.85-.22s.68,.07,.83,.21c.15,.14,.22,.41,.22,.81Zm-.2,12.57c0,.06-.01,.1-.04,.14-.03,.04-.07,.07-.14,.1s-.15,.05-.26,.06-.25,.02-.43,.02-.31,0-.42-.02c-.11-.01-.2-.03-.27-.06-.07-.03-.11-.06-.14-.1-.02-.04-.04-.09-.04-.14v-9.4s.01-.09,.04-.14c.02-.04,.07-.08,.14-.1,.07-.03,.15-.05,.27-.06,.11-.01,.25-.02,.42-.02s.32,0,.43,.02,.2,.03,.26,.06c.06,.03,.11,.06,.14,.1,.03,.04,.04,.09,.04,.14v9.4Z"></path>
  <path class="e" d="M240.61,101.75c0,.77-.1,1.47-.3,2.12s-.5,1.2-.9,1.67c-.4,.47-.9,.83-1.5,1.09s-1.3,.39-2.09,.39-1.45-.11-2.02-.34c-.57-.23-1.05-.56-1.44-1s-.67-.97-.86-1.6-.28-1.34-.28-2.13,.1-1.47,.3-2.11,.5-1.2,.9-1.67c.4-.47,.9-.83,1.5-1.09,.6-.26,1.3-.39,2.1-.39s1.45,.11,2.02,.34c.57,.23,1.05,.56,1.44,1,.38,.44,.67,.97,.86,1.6s.29,1.33,.29,2.12Zm-1.79,.12c0-.51-.05-.99-.14-1.44s-.25-.85-.47-1.19c-.22-.34-.51-.61-.89-.81s-.84-.3-1.39-.3c-.51,0-.95,.09-1.32,.27-.37,.18-.67,.44-.91,.77-.24,.33-.42,.72-.53,1.17-.12,.45-.17,.95-.17,1.48s.05,1,.14,1.45c.09,.45,.25,.85,.47,1.19s.52,.61,.89,.8c.37,.2,.84,.3,1.39,.3,.51,0,.94-.09,1.32-.27s.68-.44,.92-.76c.24-.33,.41-.72,.53-1.17,.11-.45,.17-.95,.17-1.49Z"></path>
  <path class="e" d="M251.24,106.56c0,.06-.01,.1-.04,.14-.03,.04-.07,.07-.14,.1-.06,.03-.15,.05-.26,.06s-.25,.02-.42,.02-.32,0-.43-.02-.2-.03-.26-.06-.11-.06-.14-.1c-.03-.04-.04-.09-.04-.14v-5.5c0-.54-.04-.97-.13-1.3-.08-.33-.21-.61-.37-.85-.16-.24-.37-.42-.62-.54-.25-.13-.55-.19-.88-.19-.43,0-.86,.15-1.3,.46-.43,.31-.88,.76-1.36,1.35v6.57c0,.06-.01,.1-.04,.14-.03,.04-.07,.07-.14,.1s-.15,.05-.26,.06-.25,.02-.43,.02-.31,0-.42-.02c-.11-.01-.2-.03-.27-.06-.07-.03-.11-.06-.14-.1-.02-.04-.04-.09-.04-.14v-9.4c0-.06,.01-.1,.03-.14,.02-.04,.06-.07,.13-.1,.06-.03,.14-.05,.24-.06,.1-.01,.23-.02,.39-.02s.28,0,.38,.02c.1,.01,.18,.03,.23,.06,.06,.03,.1,.07,.12,.1,.02,.04,.04,.09,.04,.14v1.24c.53-.59,1.06-1.03,1.58-1.3,.53-.28,1.06-.41,1.59-.41,.63,0,1.15,.11,1.58,.32,.43,.21,.77,.5,1.04,.85s.45,.77,.57,1.25c.12,.48,.17,1.05,.17,1.72v5.73Z"></path>
  <polygon class="b" points="241.98 25.17 187.08 36.44 187.08 29.5 241.98 18.23 241.98 25.17"></polygon>
</svg>
