<?xml version="1.0" encoding="utf-8"?>
<!-- Generator: Adobe Illustrator 25.2.0, SVG Export Plug-In . SVG Version: 6.00 Build 0)  -->
<svg version="1.1" id="Calque_1" xmlns="http://www.w3.org/2000/svg" xmlns:xlink="http://www.w3.org/1999/xlink" x="0px" y="0px"
	 viewBox="0 0 246 120" style="enable-background:new 0 0 246 120;" xml:space="preserve">
<style type="text/css">
	.st0{fill:#2F2A85;}
	.st1{fill:#1D1D1B;}
	.st2{fill:#CC655F;}
</style>
<g id="Logo_endossement_LIPHA_couleur_1_">
	<polyline class="st0" points="101.6,46.9 101.6,92.1 100.1,92.1 100.1,46.9 	"/>
	<g>
		<path d="M108.6,59.2c0-0.7,0.5-1.2,1.4-1.2c0.9,0,1.3,0.6,1.3,0.6l-0.4,0.4c0,0-0.3-0.4-0.9-0.4c-0.5,0-0.8,0.3-0.8,0.6
			c0,1,2.3,0.4,2.3,2c0,0.8-0.6,1.3-1.6,1.3c-1.1,0-1.6-0.7-1.6-0.7l0.4-0.4c0,0,0.3,0.5,1.1,0.5c0.6,0,0.9-0.3,0.9-0.7
			C110.9,60.3,108.6,60.9,108.6,59.2z"/>
		<path d="M113.7,59.4c0.8,0,1.6,0.7,1.6,1.6c0,0.8-0.7,1.6-1.6,1.6c-0.8,0-1.6-0.7-1.6-1.6C112.1,60.2,112.8,59.4,113.7,59.4z
			 M113.7,60c-0.5,0-0.9,0.4-0.9,1s0.4,1,0.9,1c0.5,0,0.9-0.4,0.9-1S114.2,60,113.7,60z"/>
		<path d="M118.1,62.2c0,0-0.3,0.4-0.9,0.4c-0.7,0-1.2-0.5-1.2-1.3v-1.8h0.6v1.8c0,0.4,0.3,0.8,0.7,0.8c0.5,0,0.8-0.3,0.8-0.9v-1.6
			h0.6v3h-0.6V62.2z"/>
		<path d="M121.1,60.3c0,0-0.2-0.3-0.6-0.3c-0.3,0-0.4,0.2-0.4,0.3c0,0.6,1.5,0.3,1.5,1.3c0,0.5-0.4,0.9-1.1,0.9
			c-0.8,0-1.2-0.5-1.2-0.5l0.4-0.4c0,0,0.3,0.4,0.8,0.4c0.3,0,0.5-0.2,0.5-0.4c0-0.6-1.5-0.3-1.5-1.3c0-0.4,0.4-0.9,1.1-0.9
			c0.7,0,1,0.4,1,0.4L121.1,60.3z"/>
		<path d="M124.3,62.5h-0.6v-4.4h0.6V62.5z"/>
		<path d="M127,62.5v-0.3c0,0-0.3,0.4-0.9,0.4c-0.6,0-1.1-0.4-1.1-0.9c0-0.5,0.3-0.8,0.9-0.9l1.1-0.2c0-0.3-0.3-0.6-0.6-0.6
			c-0.5,0-0.8,0.4-0.8,0.4l-0.4-0.4c0,0,0.4-0.6,1.2-0.6c0.8,0,1.3,0.5,1.3,1.1v1.9H127z M127,61.1L127,61.1l-1,0.1
			c-0.2,0-0.4,0.2-0.4,0.4c0,0.2,0.2,0.4,0.5,0.4C126.7,62,127,61.7,127,61.1z"/>
		<path d="M131.2,59.4c0.8,0,1.2,0.6,1.2,0.6l-0.4,0.4c0,0-0.3-0.4-0.8-0.4c-0.5,0-0.9,0.4-0.9,1s0.4,1,0.9,1c0.5,0,0.8-0.5,0.8-0.5
			l0.4,0.4c0,0-0.5,0.6-1.3,0.6c-0.8,0-1.6-0.7-1.6-1.6C129.6,60.2,130.3,59.4,131.2,59.4z"/>
		<path d="M134.5,59.4c0.8,0,1.6,0.7,1.6,1.6c0,0.8-0.7,1.6-1.6,1.6c-0.8,0-1.6-0.7-1.6-1.6C132.9,60.2,133.6,59.4,134.5,59.4z
			 M134.5,60c-0.5,0-0.9,0.4-0.9,1s0.4,1,0.9,1c0.5,0,0.9-0.4,0.9-1S135,60,134.5,60z"/>
		<path d="M138.8,60.9h-2.2v-0.6h2.2V60.9z"/>
		<path d="M139.8,58.5h0.6v1h0.6v0.6h-0.6v1.6c0,0.2,0.2,0.4,0.4,0.4c0.2,0,0.3-0.1,0.3-0.1v0.6c0,0-0.2,0.1-0.4,0.1
			c-0.6,0-0.9-0.3-0.9-0.9v-1.6h-0.6v-0.6h0.3c0.2,0,0.3-0.1,0.3-0.4V58.5z"/>
		<path d="M143.9,62.2c0,0-0.3,0.4-0.9,0.4c-0.7,0-1.2-0.5-1.2-1.3v-1.8h0.6v1.8c0,0.4,0.3,0.8,0.7,0.8c0.5,0,0.8-0.3,0.8-0.9v-1.6
			h0.6v3h-0.6V62.2z"/>
		<path d="M145.9,58.5h0.6v1h0.6v0.6h-0.6v1.6c0,0.2,0.2,0.4,0.4,0.4c0.2,0,0.3-0.1,0.3-0.1v0.6c0,0-0.2,0.1-0.4,0.1
			c-0.6,0-0.9-0.3-0.9-0.9v-1.6h-0.6v-0.6h0.3c0.2,0,0.3-0.1,0.3-0.4V58.5z"/>
		<path d="M148.3,61.2c0.1,0.4,0.4,0.8,0.9,0.8c0.6,0,0.9-0.5,0.9-0.5l0.4,0.4c0,0-0.5,0.6-1.3,0.6c-0.8,0-1.6-0.7-1.6-1.6
			c0-0.8,0.7-1.5,1.5-1.5c0.8,0,1.5,0.6,1.5,1.5c0,0.2,0,0.3,0,0.3H148.3z M148.3,60.7h1.7c-0.1-0.4-0.4-0.7-0.9-0.7
			C148.8,60,148.4,60.3,148.3,60.7z"/>
		<path d="M152.1,62.5h-0.6v-4.4h0.6V62.5z"/>
		<path d="M153.7,62.5h-0.6v-4.4h0.6V62.5z"/>
		<path d="M155.1,61.2c0.1,0.4,0.4,0.8,0.9,0.8c0.6,0,0.9-0.5,0.9-0.5l0.4,0.4c0,0-0.5,0.6-1.3,0.6c-0.8,0-1.6-0.7-1.6-1.6
			c0-0.8,0.7-1.5,1.5-1.5s1.5,0.6,1.5,1.5c0,0.2,0,0.3,0,0.3H155.1z M155.1,60.7h1.7c-0.1-0.4-0.4-0.7-0.9-0.7
			C155.5,60,155.2,60.3,155.1,60.7z"/>
		<path d="M161.7,59.8v-1.7h0.6v4.4h-0.6v-0.3c0,0-0.4,0.4-1,0.4c-0.8,0-1.5-0.7-1.5-1.6c0-0.9,0.7-1.6,1.5-1.6
			C161.3,59.4,161.7,59.8,161.7,59.8z M161.7,61c0-0.6-0.4-1-0.9-1c-0.5,0-0.9,0.4-0.9,1s0.4,1,0.9,1C161.3,62,161.7,61.6,161.7,61z
			"/>
		<path d="M163.7,61.2c0.1,0.4,0.4,0.8,0.9,0.8c0.6,0,0.9-0.5,0.9-0.5l0.4,0.4c0,0-0.5,0.6-1.3,0.6c-0.8,0-1.6-0.7-1.6-1.6
			c0-0.8,0.7-1.5,1.5-1.5c0.8,0,1.5,0.6,1.5,1.5c0,0.2,0,0.3,0,0.3H163.7z M163.7,60.7h1.7c-0.1-0.4-0.4-0.7-0.9-0.7
			C164.1,60,163.8,60.3,163.7,60.7z"/>
		<path d="M168.4,59.4c0.2,0,0.4,0.2,0.4,0.4s-0.2,0.4-0.4,0.4c-0.2,0-0.4-0.2-0.4-0.4S168.1,59.4,168.4,59.4z M168.4,61.8
			c0.2,0,0.4,0.2,0.4,0.4c0,0.2-0.2,0.4-0.4,0.4c-0.2,0-0.4-0.2-0.4-0.4C167.9,61.9,168.1,61.8,168.4,61.8z"/>
		<path d="M111.6,71v-2.6h0.9V71c0,1.1-0.8,1.9-1.9,1.9s-1.9-0.8-1.9-1.9v-2.6h0.9V71c0,0.6,0.4,1,1,1S111.6,71.6,111.6,71z"/>
		<path d="M117.6,68.4v4.4h-0.8l-2.2-2.8v2.8h-0.9v-4.4h0.8l2.2,2.8v-2.8H117.6z"/>
		<path d="M118.7,68.4h0.9v4.4h-0.9V68.4z"/>
		<path d="M120.4,68.4h1l1.1,3.3l1.1-3.3h1l-1.6,4.4h-1L120.4,68.4z"/>
		<path d="M128.6,71.9v0.8h-3.3v-4.4h3.2v0.8h-2.3v0.9h1.8V71h-1.8v1H128.6z"/>
		<path d="M129.5,68.4h1.9c0.9,0,1.5,0.6,1.5,1.4c0,0.9-0.8,1.3-0.8,1.3l0.9,1.7h-1l-0.8-1.5h-0.8v1.5h-0.9V68.4z M131.4,69.2h-1
			v1.2h1c0.3,0,0.6-0.3,0.6-0.6C132,69.5,131.8,69.2,131.4,69.2z"/>
		<path d="M133.7,69.6c0-0.7,0.6-1.3,1.5-1.3c1,0,1.4,0.6,1.4,0.6l-0.6,0.6c0,0-0.3-0.4-0.8-0.4c-0.4,0-0.6,0.2-0.6,0.5
			c0,0.8,2.2,0.3,2.2,1.9c0,0.8-0.6,1.4-1.7,1.4c-1.1,0-1.7-0.7-1.7-0.7l0.6-0.6c0,0,0.4,0.5,1,0.5c0.5,0,0.7-0.3,0.7-0.6
			C135.9,70.7,133.7,71.2,133.7,69.6z"/>
		<path d="M137.7,68.4h0.9v4.4h-0.9V68.4z"/>
		<path d="M142.8,68.4v0.8h-1.3v3.6h-0.9v-3.6h-1.3v-0.8H142.8z"/>
		<path d="M146.8,71.9v0.8h-3.3v-4.4h3.2v0.8h-2.3v0.9h1.8V71h-1.8v1H146.8z M145.3,66.9h0.9l-0.7,0.9h-0.7L145.3,66.9z"/>
		<path d="M153,70.4V72c0,0-0.7,0.8-1.9,0.8c-1.4,0-2.4-1-2.4-2.3c0-1.3,1-2.3,2.4-2.3c1.2,0,1.8,0.9,1.8,0.9l-0.6,0.6
			c0,0-0.4-0.6-1.2-0.6c-0.8,0-1.4,0.6-1.4,1.4c0,0.8,0.6,1.4,1.4,1.4c0.7,0,1-0.3,1-0.3v-0.6h-0.8v-0.7H153z"/>
		<path d="M156.9,71v-2.6h0.9V71c0,1.1-0.8,1.9-1.9,1.9c-1.1,0-1.9-0.8-1.9-1.9v-2.6h0.9V71c0,0.6,0.4,1,1,1
			C156.5,72,156.9,71.6,156.9,71z"/>
		<path d="M158.7,69.6c0-0.7,0.6-1.3,1.5-1.3c1,0,1.4,0.6,1.4,0.6l-0.6,0.6c0,0-0.3-0.4-0.8-0.4c-0.4,0-0.6,0.2-0.6,0.5
			c0,0.8,2.2,0.3,2.2,1.9c0,0.8-0.6,1.4-1.7,1.4c-1.1,0-1.7-0.7-1.7-0.7l0.6-0.6c0,0,0.4,0.5,1,0.5c0.5,0,0.7-0.3,0.7-0.6
			C160.9,70.7,158.7,71.2,158.7,69.6z"/>
		<path d="M165.7,68.4v0.8h-1.3v3.6h-0.9v-3.6h-1.3v-0.8H165.7z"/>
		<path d="M167.3,71.8l-0.4,1h-1l1.7-4.4h1l1.7,4.4h-1l-0.4-1H167.3z M168.2,69.5l-0.5,1.4h1.1L168.2,69.5z"/>
		<path d="M170.6,68.4h1l1.1,3.3l1.1-3.3h1l-1.6,4.4h-1L170.6,68.4z"/>
		<path d="M178.8,71.9v0.8h-3.3v-4.4h3.2v0.8h-2.3v0.9h1.8V71h-1.8v1H178.8z"/>
		<path d="M184.3,71.9v0.8H181v-4.4h3.2v0.8H182v0.9h1.8V71H182v1H184.3z"/>
		<path d="M185.2,68.4h0.9v4.4h-0.9V68.4z"/>
		<path d="M190.5,68.4v0.8h-2.3v1h1.8v0.8h-1.8v1.7h-0.9v-4.4H190.5z"/>
		<path d="M194.6,68.4v0.8h-2.3v1h1.8v0.8h-1.8v1.7h-0.9v-4.4H194.6z"/>
		<path d="M198.7,71.9v0.8h-3.3v-4.4h3.2v0.8h-2.3v0.9h1.8V71h-1.8v1H198.7z"/>
		<path d="M199.5,72.8v-4.4h0.9v3.6h2v0.8H199.5z"/>
		<path d="M111.6,78.5v-2.6h0.9v2.6c0,1.1-0.8,1.9-1.9,1.9s-1.9-0.8-1.9-1.9v-2.6h0.9v2.6c0,0.6,0.4,1,1,1S111.6,79.1,111.6,78.5z"
			/>
		<path d="M115.5,75.9c0.9,0,1.6,0.6,1.6,1.5c0,0.8-0.7,1.5-1.6,1.5h-0.9v1.4h-0.9v-4.4H115.5z M114.6,76.8V78h0.9
			c0.4,0,0.7-0.3,0.7-0.6c0-0.3-0.3-0.6-0.7-0.6H114.6z"/>
		<path d="M121.2,79.5v0.8h-3.3v-4.4h3.2v0.8h-2.3v0.9h1.8v0.8h-1.8v1H121.2z"/>
		<path d="M126.1,76.7l-0.6,0.6c0,0-0.4-0.6-1.2-0.6s-1.4,0.6-1.4,1.4c0,0.8,0.6,1.4,1.4,1.4c0.8,0,1.3-0.6,1.3-0.6l0.6,0.6
			c0,0-0.6,0.9-1.9,0.9c-1.4,0-2.4-1-2.4-2.3c0-1.3,1-2.3,2.4-2.3C125.5,75.8,126.1,76.7,126.1,76.7z"/>
		<path d="M128.9,78c0.4,0,0.8,0.3,0.8,0.8c0,0.4-0.3,0.8-0.8,0.8c-0.4,0-0.8-0.3-0.8-0.8C128.1,78.4,128.5,78,128.9,78z"/>
		<path d="M135,78.5v-2.6h0.9v2.6c0,1.1-0.8,1.9-1.9,1.9c-1.1,0-1.9-0.8-1.9-1.9v-2.6h0.9v2.6c0,0.6,0.4,1,1,1
			C134.6,79.6,135,79.1,135,78.5z"/>
		<path d="M141,75.9v4.4h-0.8l-2.2-2.8v2.8H137v-4.4h0.8l2.2,2.8v-2.8H141z"/>
		<path d="M142.1,75.9h0.9v4.4h-0.9V75.9z"/>
		<path d="M143.7,75.9h1l1.1,3.3l1.1-3.3h1l-1.6,4.4h-1L143.7,75.9z"/>
		<path d="M152,79.5v0.8h-3.3v-4.4h3.2v0.8h-2.3v0.9h1.8v0.8h-1.8v1H152z"/>
		<path d="M152.9,75.9h1.9c0.9,0,1.5,0.6,1.5,1.4c0,0.9-0.8,1.3-0.8,1.3l0.9,1.7h-1l-0.8-1.5h-0.8v1.5h-0.9V75.9z M154.8,76.8h-1
			v1.2h1c0.3,0,0.6-0.3,0.6-0.6C155.4,77,155.1,76.8,154.8,76.8z"/>
		<path d="M157.1,77.1c0-0.7,0.6-1.3,1.5-1.3c1,0,1.4,0.6,1.4,0.6l-0.6,0.6c0,0-0.3-0.4-0.8-0.4c-0.4,0-0.6,0.2-0.6,0.5
			c0,0.8,2.2,0.3,2.2,1.9c0,0.8-0.6,1.4-1.7,1.4c-1.1,0-1.7-0.7-1.7-0.7l0.6-0.6c0,0,0.4,0.5,1,0.5c0.5,0,0.7-0.3,0.7-0.6
			C159.2,78.2,157.1,78.7,157.1,77.1z"/>
		<path d="M161.1,75.9h0.9v4.4h-0.9V75.9z"/>
		<path d="M166.2,75.9v0.8h-1.3v3.6H164v-3.6h-1.3v-0.8H166.2z"/>
		<path d="M170.2,79.5v0.8h-3.3v-4.4h3.2v0.8h-2.3v0.9h1.8v0.8h-1.8v1H170.2z M168.7,74.5h0.9l-0.7,0.9h-0.7L168.7,74.5z"/>
		<path d="M174.2,75.9c0.9,0,1.6,0.6,1.6,1.5c0,0.8-0.7,1.5-1.6,1.5h-0.9v1.4h-0.9v-4.4H174.2z M173.3,76.8V78h0.9
			c0.4,0,0.7-0.3,0.7-0.6c0-0.3-0.3-0.6-0.7-0.6H173.3z"/>
		<path d="M177.5,79.3l-0.4,1h-1l1.7-4.4h1l1.7,4.4h-1l-0.4-1H177.5z M178.3,77l-0.5,1.4h1.1L178.3,77z"/>
		<path d="M181.2,75.9h1.9c0.9,0,1.5,0.6,1.5,1.4c0,0.9-0.8,1.3-0.8,1.3l0.9,1.7h-1l-0.8-1.5h-0.8v1.5h-0.9V75.9z M183.1,76.8h-1
			v1.2h1c0.3,0,0.6-0.3,0.6-0.6C183.7,77,183.5,76.8,183.1,76.8z"/>
		<path d="M185.7,75.9h0.9v4.4h-0.9V75.9z"/>
		<path d="M187.5,77.1c0-0.7,0.6-1.3,1.5-1.3c1,0,1.4,0.6,1.4,0.6l-0.6,0.6c0,0-0.3-0.4-0.8-0.4c-0.4,0-0.6,0.2-0.6,0.5
			c0,0.8,2.2,0.3,2.2,1.9c0,0.8-0.6,1.4-1.7,1.4c-1.1,0-1.7-0.7-1.7-0.7l0.6-0.6c0,0,0.4,0.5,1,0.5c0.5,0,0.7-0.3,0.7-0.6
			C189.7,78.2,187.5,78.7,187.5,77.1z"/>
		<path d="M193.4,78.9h-2.3v-0.8h2.3V78.9z"/>
		<path d="M197.5,79.5v0.8h-3.3v-4.4h3.2v0.8h-2.3v0.9h1.8v0.8h-1.8v1H197.5z"/>
		<path d="M198.1,77.1c0-0.7,0.6-1.3,1.5-1.3c1,0,1.4,0.6,1.4,0.6l-0.6,0.6c0,0-0.3-0.4-0.8-0.4c-0.4,0-0.6,0.2-0.6,0.5
			c0,0.8,2.2,0.3,2.2,1.9c0,0.8-0.6,1.4-1.7,1.4c-1.1,0-1.7-0.7-1.7-0.7l0.6-0.6c0,0,0.4,0.5,1,0.5c0.5,0,0.7-0.3,0.7-0.6
			C200.3,78.2,198.1,78.7,198.1,77.1z"/>
		<path d="M205.2,75.9v0.8h-1.3v3.6H203v-3.6h-1.3v-0.8H205.2z"/>
		<path d="M211.1,76.7l-0.6,0.6c0,0-0.4-0.6-1.2-0.6c-0.8,0-1.4,0.6-1.4,1.4c0,0.8,0.6,1.4,1.4,1.4c0.8,0,1.3-0.6,1.3-0.6l0.6,0.6
			c0,0-0.6,0.9-1.9,0.9c-1.4,0-2.4-1-2.4-2.3c0-1.3,1-2.3,2.4-2.3C210.5,75.8,211.1,76.7,211.1,76.7z"/>
		<path d="M211.9,75.9h1.9c0.9,0,1.5,0.6,1.5,1.4c0,0.9-0.8,1.3-0.8,1.3l0.9,1.7h-1l-0.8-1.5h-0.8v1.5h-0.9V75.9z M213.8,76.8h-1
			v1.2h1c0.3,0,0.6-0.3,0.6-0.6C214.4,77,214.2,76.8,213.8,76.8z"/>
		<path d="M219.6,79.5v0.8h-3.3v-4.4h3.2v0.8h-2.3v0.9h1.8v0.8h-1.8v1H219.6z M218.1,74.5h0.9l-0.7,0.9h-0.7L218.1,74.5z"/>
		<path d="M223.5,75.9v0.8h-1.3v3.6h-0.9v-3.6h-1.3v-0.8H223.5z"/>
		<path d="M227.5,79.5v0.8h-3.3v-4.4h3.2v0.8h-2.3v0.9h1.8v0.8h-1.8v1H227.5z"/>
		<path d="M228.4,75.9h0.9v4.4h-0.9V75.9z"/>
		<path d="M230.5,80.3v-4.4h0.9v3.6h2v0.8H230.5z"/>
	</g>
	<g>
		<path d="M100,33.7v-4.8h1v3.9h2.2v0.9H100z"/>
		<path d="M105,32.6l-0.4,1.1h-1.1l1.9-4.8h1.1l1.9,4.8h-1.1l-0.4-1.1H105z M105.9,30.1l-0.6,1.6h1.2L105.9,30.1z"/>
		<path d="M109,33.7v-4.8h2.1c0.9,0,1.5,0.6,1.5,1.3c0,0.7-0.5,1-0.5,1s0.8,0.3,0.8,1.1c0,0.7-0.7,1.4-1.6,1.4H109z M110,29.8v1h1
			c0.3,0,0.5-0.2,0.5-0.5c0-0.3-0.2-0.5-0.5-0.5H110z M111.1,32.9c0.4,0,0.7-0.3,0.7-0.6c0-0.3-0.3-0.6-0.7-0.6H110v1.2H111.1z"/>
		<path d="M116.1,28.8c1.5,0,2.6,1.1,2.6,2.5c0,1.4-1.1,2.5-2.6,2.5c-1.5,0-2.6-1.1-2.6-2.5C113.5,30,114.6,28.8,116.1,28.8z
			 M116.1,32.9c0.9,0,1.5-0.7,1.5-1.6c0-0.9-0.7-1.6-1.5-1.6c-0.9,0-1.5,0.7-1.5,1.6C114.6,32.2,115.2,32.9,116.1,32.9z"/>
		<path d="M119.7,28.9h2.1c1,0,1.6,0.7,1.6,1.6c0,1-0.9,1.4-0.9,1.4l1,1.8h-1.1l-0.9-1.7h-0.9v1.7h-1V28.9z M121.7,29.9h-1.1v1.3
			h1.1c0.4,0,0.7-0.3,0.7-0.6C122.4,30.1,122.1,29.9,121.7,29.9z"/>
		<path d="M125.5,32.6l-0.4,1.1H124l1.9-4.8h1.1l1.9,4.8h-1.1l-0.4-1.1H125.5z M126.4,30.1l-0.6,1.6h1.2L126.4,30.1z"/>
		<path d="M132.8,28.9v0.9h-1.4v3.9h-1v-3.9H129v-0.9H132.8z"/>
		<path d="M135.9,28.8c1.5,0,2.6,1.1,2.6,2.5c0,1.4-1.1,2.5-2.6,2.5c-1.5,0-2.6-1.1-2.6-2.5C133.3,30,134.4,28.8,135.9,28.8z
			 M135.9,32.9c0.9,0,1.5-0.7,1.5-1.6c0-0.9-0.7-1.6-1.5-1.6c-0.9,0-1.5,0.7-1.5,1.6C134.4,32.2,135,32.9,135.9,32.9z"/>
		<path d="M139.5,28.9h1v4.8h-1V28.9z"/>
		<path d="M141.7,28.9h2.1c1,0,1.6,0.7,1.6,1.6c0,1-0.9,1.4-0.9,1.4l1,1.8h-1.1l-0.9-1.7h-0.9v1.7h-1V28.9z M143.8,29.9h-1.1v1.3
			h1.1c0.4,0,0.7-0.3,0.7-0.6C144.5,30.1,144.2,29.9,143.8,29.9z"/>
		<path d="M150.2,32.8v0.9h-3.6v-4.8h3.5v0.9h-2.5v1h2v0.9h-2v1.1H150.2z"/>
		<path d="M152.6,28.9h1v4.8h-1V28.9z"/>
		<path d="M159.1,28.9v4.8h-0.9l-2.4-3v3h-1v-4.8h0.9l2.4,3v-3H159.1z"/>
		<path d="M163.6,28.9v0.9h-1.4v3.9h-1v-3.9h-1.4v-0.9H163.6z"/>
		<path d="M168,32.8v0.9h-3.6v-4.8h3.5v0.9h-2.5v1h2v0.9h-2v1.1H168z"/>
		<path d="M168.9,28.9h2.1c1,0,1.6,0.7,1.6,1.6c0,1-0.9,1.4-0.9,1.4l1,1.8h-1.1l-0.9-1.7H170v1.7h-1V28.9z M171,29.9H170v1.3h1.1
			c0.4,0,0.7-0.3,0.7-0.6C171.7,30.1,171.4,29.9,171,29.9z"/>
		<path d="M175.6,28.9c1.4,0,2.5,1.1,2.5,2.4c0,1.3-1.1,2.4-2.5,2.4h-1.8v-4.8H175.6z M174.8,29.9v2.9h0.8c0.8,0,1.4-0.7,1.4-1.5
			c0-0.8-0.6-1.5-1.4-1.5H174.8z"/>
		<path d="M179,28.9h1v4.8h-1V28.9z"/>
		<path d="M181,30.2c0-0.8,0.7-1.4,1.7-1.4c1.1,0,1.6,0.7,1.6,0.7l-0.6,0.7c0,0-0.3-0.4-0.9-0.4c-0.4,0-0.7,0.2-0.7,0.5
			c0,0.9,2.4,0.4,2.4,2.1c0,0.9-0.7,1.5-1.8,1.5c-1.2,0-1.8-0.8-1.8-0.8l0.6-0.6c0,0,0.4,0.5,1.1,0.5c0.5,0,0.8-0.3,0.8-0.6
			C183.4,31.4,181,31.9,181,30.2z"/>
		<path d="M189.7,29.8l-0.7,0.7c0,0-0.4-0.7-1.3-0.7c-0.9,0-1.6,0.7-1.6,1.6c0,0.9,0.7,1.6,1.6,1.6c0.9,0,1.4-0.7,1.4-0.7l0.6,0.7
			c0,0-0.7,1-2,1c-1.5,0-2.6-1.1-2.6-2.5c0-1.4,1.1-2.5,2.6-2.5C189,28.8,189.7,29.8,189.7,29.8z"/>
		<path d="M190.6,28.9h1v4.8h-1V28.9z"/>
		<path d="M194.8,28.9c1,0,1.7,0.7,1.7,1.6c0,0.9-0.7,1.6-1.7,1.6h-1v1.6h-1v-4.8H194.8z M193.8,29.9v1.4h1c0.4,0,0.7-0.3,0.7-0.7
			c0-0.4-0.3-0.7-0.7-0.7H193.8z"/>
		<path d="M197.5,33.7v-4.8h1v3.9h2.2v0.9H197.5z"/>
		<path d="M201.5,28.9h1v4.8h-1V28.9z"/>
		<path d="M208.1,28.9v4.8h-0.9l-2.4-3v3h-1v-4.8h0.9l2.4,3v-3H208.1z"/>
		<path d="M210.3,32.6l-0.4,1.1h-1.1l1.9-4.8h1.1l1.9,4.8h-1.1l-0.4-1.1H210.3z M211.2,30.1l-0.6,1.6h1.2L211.2,30.1z"/>
		<path d="M214.3,28.9h1v4.8h-1V28.9z"/>
		<path d="M216.6,28.9h2.1c1,0,1.6,0.7,1.6,1.6c0,1-0.9,1.4-0.9,1.4l1,1.8h-1.1l-0.9-1.7h-0.9v1.7h-1V28.9z M218.7,29.9h-1.1v1.3
			h1.1c0.4,0,0.7-0.3,0.7-0.6C219.3,30.1,219,29.9,218.7,29.9z"/>
		<path d="M225,32.8v0.9h-3.6v-4.8h3.5v0.9h-2.5v1h2v0.9h-2v1.1H225z"/>
		<path d="M101.7,37.2c1.4,0,2.5,1.1,2.5,2.4c0,1.3-1.1,2.4-2.5,2.4H100v-4.8H101.7z M101,38.1V41h0.8c0.8,0,1.4-0.7,1.4-1.5
			c0-0.8-0.6-1.5-1.4-1.5H101z"/>
		<path d="M106.2,37.5l-0.9,1.5l-0.6-0.3l0.7-1.6L106.2,37.5z"/>
		<path d="M110.5,41V42h-3.6v-4.8h3.5v0.9H108v1h2V40h-2V41H110.5z M108.9,35.5h1l-0.8,1h-0.8L108.9,35.5z"/>
		<path d="M114.8,37.2v0.9h-1.4V42h-1v-3.9H111v-0.9H114.8z"/>
		<path d="M118.7,40v-2.8h1V40c0,1.2-0.9,2.1-2.1,2.1c-1.2,0-2.1-0.9-2.1-2.1v-2.8h1V40c0,0.7,0.5,1.1,1.1,1.1
			C118.2,41.1,118.7,40.6,118.7,40z"/>
		<path d="M122.7,37.2c1.4,0,2.5,1.1,2.5,2.4c0,1.3-1.1,2.4-2.5,2.4h-1.8v-4.8H122.7z M121.9,38.1V41h0.8c0.8,0,1.4-0.7,1.4-1.5
			c0-0.8-0.6-1.5-1.4-1.5H121.9z"/>
		<path d="M129.7,41V42h-3.6v-4.8h3.5v0.9h-2.5v1h2V40h-2V41H129.7z"/>
		<path d="M133.8,37.2c1.4,0,2.5,1.1,2.5,2.4c0,1.3-1.1,2.4-2.5,2.4h-1.8v-4.8H133.8z M133.1,38.1V41h0.8c0.8,0,1.4-0.7,1.4-1.5
			c0-0.8-0.6-1.5-1.4-1.5H133.1z"/>
		<path d="M140.4,40v-2.8h1V40c0,1.2-0.9,2.1-2.1,2.1c-1.2,0-2.1-0.9-2.1-2.1v-2.8h1V40c0,0.7,0.5,1.1,1.1,1.1
			C139.9,41.1,140.4,40.6,140.4,40z"/>
		<path d="M146,37.2c1,0,1.7,0.7,1.7,1.6c0,0.9-0.7,1.6-1.7,1.6h-1V42h-1v-4.8H146z M145,38.1v1.4h1c0.4,0,0.7-0.3,0.7-0.7
			c0-0.4-0.3-0.7-0.7-0.7H145z"/>
		<path d="M151,37.1c1.5,0,2.6,1.1,2.6,2.5c0,1.4-1.1,2.5-2.6,2.5c-1.5,0-2.6-1.1-2.6-2.5C148.4,38.2,149.5,37.1,151,37.1z
			 M151,41.1c0.9,0,1.5-0.7,1.5-1.6c0-0.9-0.7-1.6-1.5-1.6c-0.9,0-1.5,0.7-1.5,1.6C149.5,40.4,150.2,41.1,151,41.1z"/>
		<path d="M154.6,42v-4.8h1V41h2.2V42H154.6z"/>
		<path d="M158.6,37.2h1V42h-1V37.2z"/>
		<path d="M164.2,37.2v0.9h-1.4V42h-1v-3.9h-1.4v-0.9H164.2z"/>
		<path d="M164.9,37.2h1V42h-1V37.2z"/>
		<path d="M169.5,37.1c1.5,0,2.6,1.1,2.6,2.5c0,1.5-1.3,2.2-1.3,2.2s0.3,0.5,1.2,0.5h0.1V43h-0.2c-1.5,0-2.1-1-2.1-1s-0.2,0-0.4,0
			c-1.5,0-2.6-1.1-2.6-2.5C166.9,38.2,168,37.1,169.5,37.1z M169.5,41.1c0.9,0,1.5-0.7,1.5-1.6c0-0.9-0.7-1.6-1.5-1.6
			s-1.5,0.7-1.5,1.6C168,40.4,168.7,41.1,169.5,41.1z"/>
		<path d="M176.2,40v-2.8h1V40c0,1.2-0.9,2.1-2.1,2.1c-1.2,0-2.1-0.9-2.1-2.1v-2.8h1V40c0,0.7,0.5,1.1,1.1,1.1
			C175.8,41.1,176.2,40.6,176.2,40z"/>
		<path d="M182.1,41V42h-3.6v-4.8h3.5v0.9h-2.5v1h2V40h-2V41H182.1z"/>
		<path d="M188.5,42h-1v-2h-2.1v2h-1v-4.8h1v1.9h2.1v-1.9h1V42z"/>
		<path d="M190.7,40.8l-0.4,1.1h-1.1l1.9-4.8h1.1l1.9,4.8H193l-0.4-1.1H190.7z M191.7,38.4l-0.6,1.6h1.2L191.7,38.4z"/>
		<path d="M199.1,37.2V42h-0.9l-2.4-3v3h-1v-4.8h0.9l2.4,3v-3H199.1z"/>
		<path d="M204.6,37.2V42h-0.9l-2.4-3v3h-1v-4.8h0.9l2.4,3v-3H204.6z"/>
		<path d="M206.8,40.8l-0.4,1.1h-1.1l1.9-4.8h1.1l1.9,4.8H209l-0.4-1.1H206.8z M207.7,38.4l-0.6,1.6h1.2L207.7,38.4z"/>
		<path d="M214.9,42h-1v-2h-2.1v2h-1v-4.8h1v1.9h2.1v-1.9h1V42z"/>
		<path d="M218.5,40.8l-0.4,1.1H217l1.9-4.8h1.1l1.9,4.8h-1.1l-0.4-1.1H218.5z M219.4,38.4l-0.6,1.6h1.2L219.4,38.4z"/>
		<path d="M222.6,37.2h2.1c1,0,1.6,0.7,1.6,1.6c0,1-0.9,1.4-0.9,1.4l1,1.8h-1.1l-0.9-1.7h-0.9V42h-1V37.2z M224.7,38.1h-1.1v1.3h1.1
			c0.4,0,0.7-0.3,0.7-0.6C225.3,38.4,225,38.1,224.7,38.1z"/>
		<path d="M231,41V42h-3.6v-4.8h3.5v0.9h-2.5v1h2V40h-2V41H231z"/>
		<path d="M236.3,37.2V42h-0.9l-2.4-3v3h-1v-4.8h0.9l2.4,3v-3H236.3z"/>
		<path d="M239.3,37.2c1.4,0,2.5,1.1,2.5,2.4c0,1.3-1.1,2.4-2.5,2.4h-1.8v-4.8H239.3z M238.5,38.1V41h0.8c0.8,0,1.4-0.7,1.4-1.5
			c0-0.8-0.6-1.5-1.4-1.5H238.5z"/>
		<path d="M246,37.2v0.9h-1.4V42h-1v-3.9h-1.4v-0.9H246z"/>
	</g>
	<g>
		<g>
			<path class="st1" d="M16.4,61.5h0.8c0.4,0,0.8-0.2,1-0.5c0.2-0.3,0.5-1.1,0.8-2.4c0.1-0.5,0.3-0.8,0.4-0.9
				c0.2-0.1,0.5-0.2,0.9-0.2c0.4,0,0.7,0,0.9,0.1c0.1,0.1,0.2,0.2,0.2,0.4c0,0.1,0,0.4-0.1,0.7l-0.5,3.5c-0.1,0.4-0.1,0.6-0.2,0.7
				c-0.1,0.1-0.3,0.2-0.6,0.2h-9.7c-0.4,0-0.6-0.3-0.6-0.8c0-0.4,0-0.6,0.1-0.8c0.1-0.1,0.2-0.2,0.3-0.3c0.6-0.2,0.8-0.7,0.8-1.6
				V42.3c0-0.4-0.2-0.6-0.5-0.8c-0.3-0.1-0.5-0.3-0.6-0.4c-0.1-0.2-0.1-0.4-0.1-0.8c0-0.4,0-0.7,0.1-0.8c0.1-0.1,0.2-0.2,0.5-0.2
				h6.8c0.3,0,0.4,0.1,0.5,0.2c0.1,0.1,0.1,0.5,0.1,1c0,0.3,0,0.5-0.1,0.7c-0.1,0.1-0.2,0.2-0.5,0.3c-0.5,0.2-0.7,0.5-0.7,1V61.5z"
				/>
			<path class="st1" d="M22,40.5v-0.8c0-0.3,0.2-0.5,0.5-0.5h7.1c0.3,0,0.4,0,0.5,0.1c0.1,0.1,0.1,0.3,0.1,0.6c0,0.5,0,0.8-0.1,1
				c-0.1,0.1-0.2,0.2-0.4,0.2c-0.6,0.1-0.9,0.5-0.9,1.2v17.8c0,0.4,0.2,0.7,0.7,0.9c0.3,0.1,0.5,0.3,0.5,0.4
				c0.1,0.1,0.1,0.3,0.1,0.6v0.6c0,0.3,0,0.5-0.1,0.5c-0.1,0-0.2,0.1-0.5,0.1h-7.2c-0.3,0-0.4-0.1-0.4-0.3c0-0.7,0-1.1,0.1-1.3
				c0-0.2,0.2-0.3,0.5-0.4c0.5-0.1,0.8-0.4,0.8-0.8V42.8c0-0.4,0-0.7-0.1-0.9c-0.1-0.2-0.3-0.4-0.7-0.5c-0.2-0.1-0.4-0.2-0.5-0.3
				C22,40.9,22,40.8,22,40.5z"/>
			<path class="st1" d="M37.7,55V60c0,0.6,0.2,0.9,0.7,1.1c0.2,0.1,0.4,0.2,0.5,0.4c0.1,0.2,0.1,0.4,0.1,0.9c0,0.4-0.1,0.6-0.2,0.7
				c-0.1,0.1-0.3,0.1-0.7,0.1h-6.7c-0.4,0-0.5-0.3-0.5-0.9c0-0.5,0-0.8,0.1-0.9c0-0.1,0.2-0.2,0.5-0.3c0.3-0.1,0.4-0.2,0.5-0.3
				c0.1-0.1,0.1-0.3,0.1-0.5V42.4c0-0.4-0.3-0.8-0.8-1c-0.3-0.1-0.4-0.4-0.4-0.7l0-0.7c0-0.3,0-0.5,0.1-0.6c0.1-0.1,0.2-0.1,0.5-0.1
				h7.6c2.2,0,3.9,0.7,5.2,2.1c1.3,1.4,1.9,3.3,1.9,5.8c0,1.4-0.2,2.6-0.6,3.7c-0.4,1.1-0.9,1.9-1.5,2.4c-0.6,0.5-1.3,0.9-2.1,1.3
				c-0.8,0.3-1.6,0.5-2.5,0.5H37.7z M37.7,40.9v12.4h1c0.4,0,0.7-0.2,1-0.6c0.3-0.4,0.4-1,0.4-1.9v-7.4c0-1.7-0.6-2.5-1.7-2.5H37.7z
				"/>
			<path class="st1" d="M54,49.5h2.4v-7.4c0-0.2,0-0.4-0.1-0.5c0-0.1-0.2-0.2-0.4-0.3c-0.2-0.1-0.3-0.4-0.3-0.8c0-0.6,0-0.9,0.1-1
				c0-0.1,0.2-0.2,0.4-0.2h6.4c0.3,0,0.5,0.1,0.5,0.2c0.1,0.1,0.1,0.4,0.1,1c0,0.3,0,0.6-0.1,0.6s-0.3,0.2-0.6,0.3
				c-0.4,0.2-0.5,0.5-0.5,0.9v17.7c0,0.5,0.2,0.8,0.6,1.1c0.3,0.2,0.5,0.4,0.5,0.6v0.9c0,0.2,0,0.3-0.1,0.4
				c-0.1,0.1-0.2,0.1-0.5,0.1H56c-0.2,0-0.4,0-0.4-0.1c0-0.1-0.1-0.4-0.1-1.1c0-0.3,0.1-0.6,0.4-0.8c0.3-0.2,0.5-0.5,0.5-0.8v-9.2
				H54v9.3c0,0.3,0.1,0.6,0.4,0.8c0.3,0.2,0.4,0.5,0.4,0.9c0,0.5,0,0.8-0.1,0.9c-0.1,0.1-0.2,0.1-0.4,0.1h-6.5c-0.2,0-0.3,0-0.4-0.1
				c0-0.1-0.1-0.4-0.1-1.1c0-0.3,0-0.5,0.1-0.6c0-0.1,0.2-0.2,0.4-0.3c0.4-0.2,0.6-0.5,0.6-0.9V42.3c0-0.3-0.2-0.6-0.5-0.8
				c-0.4-0.3-0.5-0.6-0.5-1.1c0-0.5,0-0.8,0.1-0.9c0.1-0.1,0.3-0.2,0.6-0.2h6.1c0.3,0,0.4,0,0.5,0.1c0.1,0.1,0.1,0.3,0.1,0.7v0.7
				c0,0.2-0.1,0.3-0.4,0.5c-0.3,0.2-0.5,0.4-0.5,0.8V49.5z"/>
			<path class="st1" d="M71.1,58.1h-3.7l-0.2,1.4c0,0,0,0.1,0,0.1c-0.1,0.3-0.1,0.5-0.1,0.8c0,0.4,0.2,0.7,0.7,0.9
				c0.2,0.1,0.4,0.3,0.5,0.4c0.1,0.1,0.1,0.4,0.1,0.7c0,0.4,0,0.6-0.1,0.7c0,0.1-0.2,0.1-0.3,0.1H64c-0.2,0-0.3-0.2-0.3-0.7
				c0-0.5,0.2-1,0.5-1.3c0.3-0.3,0.5-0.6,0.6-1l2.7-17.4c0-0.3,0.1-0.5,0.1-0.7c0-0.3-0.2-0.6-0.6-0.8c-0.2-0.1-0.3-0.4-0.3-0.8
				c0-0.5,0-0.9,0.1-1c0.1-0.1,0.2-0.2,0.5-0.2h5.7c0.3,0,0.6,0.2,0.7,0.5c0.1,0.3,0.3,1,0.4,2.1c0.1,0.4,0.1,0.8,0.2,1.3l2.4,16.3
				c0.1,0.8,0.4,1.4,0.9,1.8c0.1,0.1,0.2,0.2,0.3,0.3c0,0.1,0.1,0.3,0.1,0.6c0,0.5,0,0.8-0.1,0.9c-0.1,0.1-0.2,0.2-0.4,0.2h-6.6
				c-0.2,0-0.3-0.2-0.3-0.6c0-0.5,0-0.8,0.1-0.9c0-0.1,0.2-0.3,0.4-0.4c0.3-0.2,0.5-0.5,0.5-0.8C71.4,60.1,71.3,59.3,71.1,58.1z
				 M69.3,44.8l-1.7,11.6H71L69.3,44.8z"/>
		</g>
		<g>
			<path class="st2" d="M80.5,103H5.4c-3.5,0-5.4-2.8-5.4-5.4V33.9C0,20.6,11,17,16.8,17h63.7c3.5,0,5.4,2.8,5.4,5.4v75.1
				C85.9,101.1,83.1,103,80.5,103z M5.2,97.9c0,0,0.1,0,0.2,0h75.1c0.1,0,0.3-0.1,0.3-0.1c0,0,0-0.1,0-0.2V22.4
				c0-0.1-0.1-0.3-0.1-0.3c0,0-0.1,0-0.2,0H16.9c-1.2,0-11.8,0.4-11.8,11.8v63.7C5.1,97.6,5.1,97.8,5.2,97.9
				C5.2,97.9,5.2,97.9,5.2,97.9z"/>
		</g>
	</g>
</g>
</svg>
