<?xml version="1.0" encoding="utf-8"?>
<!-- Generator: Adobe Illustrator 25.2.1, SVG Export Plug-In . SVG Version: 6.00 Build 0)  -->
<svg version="1.1" id="Calque_1" xmlns="http://www.w3.org/2000/svg" xmlns:xlink="http://www.w3.org/1999/xlink" x="0px" y="0px"
	 viewBox="0 0 246 85" style="enable-background:new 0 0 246 85;" xml:space="preserve">
<style type="text/css">
	.st0{fill:#2F2A85;}
	.st1{fill:#1D1D1B;}
	.st2{fill:#CC655F;}
</style>
<g id="Logo_endossement_LIPHA_couleur_1_">
	<polyline class="st0" points="101.6,29.9 101.6,75.1 100.1,75.1 100.1,29.9 	"/>
	<g>
		<path d="M108.6,42.2c0-0.7,0.5-1.2,1.4-1.2s1.3,0.6,1.3,0.6l-0.4,0.4c0,0-0.3-0.4-0.9-0.4c-0.5,0-0.8,0.3-0.8,0.6
			c0,1,2.3,0.4,2.3,2c0,0.8-0.6,1.3-1.6,1.3c-1.1,0-1.6-0.7-1.6-0.7l0.4-0.4c0,0,0.3,0.5,1.1,0.5c0.6,0,0.9-0.3,0.9-0.7
			C110.9,43.3,108.6,43.9,108.6,42.2z"/>
		<path d="M113.7,42.4c0.8,0,1.6,0.7,1.6,1.6c0,0.8-0.7,1.6-1.6,1.6c-0.8,0-1.6-0.7-1.6-1.6C112.1,43.2,112.8,42.4,113.7,42.4z
			 M113.7,43c-0.5,0-0.9,0.4-0.9,1s0.4,1,0.9,1s0.9-0.4,0.9-1S114.2,43,113.7,43z"/>
		<path d="M118.1,45.2c0,0-0.3,0.4-0.9,0.4c-0.7,0-1.2-0.5-1.2-1.3v-1.8h0.6v1.8c0,0.4,0.3,0.8,0.7,0.8c0.5,0,0.8-0.3,0.8-0.9v-1.6
			h0.6v3h-0.6V45.2z"/>
		<path d="M121.1,43.3c0,0-0.2-0.3-0.6-0.3c-0.3,0-0.4,0.2-0.4,0.3c0,0.6,1.5,0.3,1.5,1.3c0,0.5-0.4,0.9-1.1,0.9
			c-0.8,0-1.2-0.5-1.2-0.5l0.4-0.4c0,0,0.3,0.4,0.8,0.4c0.3,0,0.5-0.2,0.5-0.4c0-0.6-1.5-0.3-1.5-1.3c0-0.4,0.4-0.9,1.1-0.9
			s1,0.4,1,0.4L121.1,43.3z"/>
		<path d="M124.3,45.5h-0.6v-4.4h0.6V45.5z"/>
		<path d="M127,45.5v-0.3c0,0-0.3,0.4-0.9,0.4s-1.1-0.4-1.1-0.9s0.3-0.8,0.9-0.9l1.1-0.2c0-0.3-0.3-0.6-0.6-0.6
			c-0.5,0-0.8,0.4-0.8,0.4l-0.4-0.4c0,0,0.4-0.6,1.2-0.6c0.8,0,1.3,0.5,1.3,1.1v1.9L127,45.5L127,45.5z M127,44.1L127,44.1l-1,0.1
			c-0.2,0-0.4,0.2-0.4,0.4s0.2,0.4,0.5,0.4C126.7,45,127,44.7,127,44.1z"/>
		<path d="M131.2,42.4c0.8,0,1.2,0.6,1.2,0.6l-0.4,0.4c0,0-0.3-0.4-0.8-0.4s-0.9,0.4-0.9,1s0.4,1,0.9,1s0.8-0.5,0.8-0.5l0.4,0.4
			c0,0-0.5,0.6-1.3,0.6s-1.6-0.7-1.6-1.6C129.6,43.2,130.3,42.4,131.2,42.4z"/>
		<path d="M134.5,42.4c0.8,0,1.6,0.7,1.6,1.6c0,0.8-0.7,1.6-1.6,1.6c-0.8,0-1.6-0.7-1.6-1.6C132.9,43.2,133.6,42.4,134.5,42.4z
			 M134.5,43c-0.5,0-0.9,0.4-0.9,1s0.4,1,0.9,1s0.9-0.4,0.9-1S135,43,134.5,43z"/>
		<path d="M138.8,43.9h-2.2v-0.6h2.2V43.9z"/>
		<path d="M139.8,41.5h0.6v1h0.6v0.6h-0.6v1.6c0,0.2,0.2,0.4,0.4,0.4s0.3-0.1,0.3-0.1v0.6c0,0-0.2,0.1-0.4,0.1
			c-0.6,0-0.9-0.3-0.9-0.9v-1.6h-0.6v-0.6h0.3c0.2,0,0.3-0.1,0.3-0.4L139.8,41.5L139.8,41.5z"/>
		<path d="M143.9,45.2c0,0-0.3,0.4-0.9,0.4c-0.7,0-1.2-0.5-1.2-1.3v-1.8h0.6v1.8c0,0.4,0.3,0.8,0.7,0.8c0.5,0,0.8-0.3,0.8-0.9v-1.6
			h0.6v3h-0.6L143.9,45.2L143.9,45.2z"/>
		<path d="M145.9,41.5h0.6v1h0.6v0.6h-0.6v1.6c0,0.2,0.2,0.4,0.4,0.4s0.3-0.1,0.3-0.1v0.6c0,0-0.2,0.1-0.4,0.1
			c-0.6,0-0.9-0.3-0.9-0.9v-1.6h-0.6v-0.6h0.3c0.2,0,0.3-0.1,0.3-0.4L145.9,41.5L145.9,41.5z"/>
		<path d="M148.3,44.2c0.1,0.4,0.4,0.8,0.9,0.8c0.6,0,0.9-0.5,0.9-0.5l0.4,0.4c0,0-0.5,0.6-1.3,0.6s-1.6-0.7-1.6-1.6
			c0-0.8,0.7-1.5,1.5-1.5s1.5,0.6,1.5,1.5c0,0.2,0,0.3,0,0.3H148.3z M148.3,43.7h1.7c-0.1-0.4-0.4-0.7-0.9-0.7
			C148.8,43,148.4,43.3,148.3,43.7z"/>
		<path d="M152.1,45.5h-0.6v-4.4h0.6V45.5z"/>
		<path d="M153.7,45.5h-0.6v-4.4h0.6V45.5z"/>
		<path d="M155.1,44.2c0.1,0.4,0.4,0.8,0.9,0.8c0.6,0,0.9-0.5,0.9-0.5l0.4,0.4c0,0-0.5,0.6-1.3,0.6s-1.6-0.7-1.6-1.6
			c0-0.8,0.7-1.5,1.5-1.5s1.5,0.6,1.5,1.5c0,0.2,0,0.3,0,0.3H155.1z M155.1,43.7h1.7c-0.1-0.4-0.4-0.7-0.9-0.7
			C155.5,43,155.2,43.3,155.1,43.7z"/>
		<path d="M161.7,42.8v-1.7h0.6v4.4h-0.6v-0.3c0,0-0.4,0.4-1,0.4c-0.8,0-1.5-0.7-1.5-1.6c0-0.9,0.7-1.6,1.5-1.6
			C161.3,42.4,161.7,42.8,161.7,42.8z M161.7,44c0-0.6-0.4-1-0.9-1s-0.9,0.4-0.9,1s0.4,1,0.9,1S161.7,44.6,161.7,44z"/>
		<path d="M163.7,44.2c0.1,0.4,0.4,0.8,0.9,0.8c0.6,0,0.9-0.5,0.9-0.5l0.4,0.4c0,0-0.5,0.6-1.3,0.6s-1.6-0.7-1.6-1.6
			c0-0.8,0.7-1.5,1.5-1.5s1.5,0.6,1.5,1.5c0,0.2,0,0.3,0,0.3H163.7z M163.7,43.7h1.7c-0.1-0.4-0.4-0.7-0.9-0.7
			C164.1,43,163.8,43.3,163.7,43.7z"/>
		<path d="M168.4,42.4c0.2,0,0.4,0.2,0.4,0.4s-0.2,0.4-0.4,0.4S168,43,168,42.8S168.1,42.4,168.4,42.4z M168.4,44.8
			c0.2,0,0.4,0.2,0.4,0.4s-0.2,0.4-0.4,0.4s-0.4-0.2-0.4-0.4C167.9,44.9,168.1,44.8,168.4,44.8z"/>
		<path d="M111.6,54v-2.6h0.9V54c0,1.1-0.8,1.9-1.9,1.9s-1.9-0.8-1.9-1.9v-2.6h0.9V54c0,0.6,0.4,1,1,1S111.6,54.6,111.6,54z"/>
		<path d="M117.6,51.4v4.4h-0.8l-2.2-2.8v2.8h-0.9v-4.4h0.8l2.2,2.8v-2.8H117.6z"/>
		<path d="M118.7,51.4h0.9v4.4h-0.9V51.4z"/>
		<path d="M120.4,51.4h1l1.1,3.3l1.1-3.3h1l-1.6,4.4h-1L120.4,51.4z"/>
		<path d="M128.6,54.9v0.8h-3.3v-4.4h3.2v0.8h-2.3V53h1.8v1h-1.8v1L128.6,54.9L128.6,54.9z"/>
		<path d="M129.5,51.4h1.9c0.9,0,1.5,0.6,1.5,1.4c0,0.9-0.8,1.3-0.8,1.3l0.9,1.7h-1l-0.8-1.5h-0.8v1.5h-0.9L129.5,51.4L129.5,51.4z
			 M131.4,52.2h-1v1.2h1c0.3,0,0.6-0.3,0.6-0.6S131.8,52.2,131.4,52.2z"/>
		<path d="M133.7,52.6c0-0.7,0.6-1.3,1.5-1.3c1,0,1.4,0.6,1.4,0.6l-0.6,0.6c0,0-0.3-0.4-0.8-0.4c-0.4,0-0.6,0.2-0.6,0.5
			c0,0.8,2.2,0.3,2.2,1.9c0,0.8-0.6,1.4-1.7,1.4c-1.1,0-1.7-0.7-1.7-0.7l0.6-0.6c0,0,0.4,0.5,1,0.5c0.5,0,0.7-0.3,0.7-0.6
			C135.9,53.7,133.7,54.2,133.7,52.6z"/>
		<path d="M137.7,51.4h0.9v4.4h-0.9V51.4z"/>
		<path d="M142.8,51.4v0.8h-1.3v3.6h-0.9v-3.6h-1.3v-0.8H142.8z"/>
		<path d="M146.8,54.9v0.8h-3.3v-4.4h3.2v0.8h-2.3V53h1.8v1h-1.8v1L146.8,54.9L146.8,54.9z M145.3,49.9h0.9l-0.7,0.9h-0.7
			L145.3,49.9z"/>
		<path d="M153,53.4V55c0,0-0.7,0.8-1.9,0.8c-1.4,0-2.4-1-2.4-2.3s1-2.3,2.4-2.3c1.2,0,1.8,0.9,1.8,0.9l-0.6,0.6
			c0,0-0.4-0.6-1.2-0.6s-1.4,0.6-1.4,1.4s0.6,1.4,1.4,1.4c0.7,0,1-0.3,1-0.3V54h-0.8v-0.7L153,53.4L153,53.4z"/>
		<path d="M156.9,54v-2.6h0.9V54c0,1.1-0.8,1.9-1.9,1.9c-1.1,0-1.9-0.8-1.9-1.9v-2.6h0.9V54c0,0.6,0.4,1,1,1S156.9,54.6,156.9,54z"
			/>
		<path d="M158.7,52.6c0-0.7,0.6-1.3,1.5-1.3c1,0,1.4,0.6,1.4,0.6l-0.6,0.6c0,0-0.3-0.4-0.8-0.4c-0.4,0-0.6,0.2-0.6,0.5
			c0,0.8,2.2,0.3,2.2,1.9c0,0.8-0.6,1.4-1.7,1.4c-1.1,0-1.7-0.7-1.7-0.7l0.6-0.6c0,0,0.4,0.5,1,0.5c0.5,0,0.7-0.3,0.7-0.6
			C160.9,53.7,158.7,54.2,158.7,52.6z"/>
		<path d="M165.7,51.4v0.8h-1.3v3.6h-0.9v-3.6h-1.3v-0.8H165.7z"/>
		<path d="M167.3,54.8l-0.4,1h-1l1.7-4.4h1l1.7,4.4h-1l-0.4-1H167.3z M168.2,52.5l-0.5,1.4h1.1L168.2,52.5z"/>
		<path d="M170.6,51.4h1l1.1,3.3l1.1-3.3h1l-1.6,4.4h-1L170.6,51.4z"/>
		<path d="M178.8,54.9v0.8h-3.3v-4.4h3.2v0.8h-2.3V53h1.8v1h-1.8v1L178.8,54.9L178.8,54.9z"/>
		<path d="M184.3,54.9v0.8H181v-4.4h3.2v0.8H182V53h1.8v1H182v1L184.3,54.9L184.3,54.9z"/>
		<path d="M185.2,51.4h0.9v4.4h-0.9V51.4z"/>
		<path d="M190.5,51.4v0.8h-2.3v1h1.8V54h-1.8v1.7h-0.9v-4.4L190.5,51.4L190.5,51.4z"/>
		<path d="M194.6,51.4v0.8h-2.3v1h1.8V54h-1.8v1.7h-0.9v-4.4L194.6,51.4L194.6,51.4z"/>
		<path d="M198.7,54.9v0.8h-3.3v-4.4h3.2v0.8h-2.3V53h1.8v1h-1.8v1L198.7,54.9L198.7,54.9z"/>
		<path d="M199.5,55.8v-4.4h0.9V55h2v0.8H199.5z"/>
		<path d="M111.6,61.5v-2.6h0.9v2.6c0,1.1-0.8,1.9-1.9,1.9s-1.9-0.8-1.9-1.9v-2.6h0.9v2.6c0,0.6,0.4,1,1,1S111.6,62.1,111.6,61.5z"
			/>
		<path d="M115.5,58.9c0.9,0,1.6,0.6,1.6,1.5c0,0.8-0.7,1.5-1.6,1.5h-0.9v1.4h-0.9v-4.4H115.5z M114.6,59.8V61h0.9
			c0.4,0,0.7-0.3,0.7-0.6c0-0.3-0.3-0.6-0.7-0.6H114.6z"/>
		<path d="M121.2,62.5v0.8h-3.3v-4.4h3.2v0.8h-2.3v0.9h1.8v0.8h-1.8v1L121.2,62.5L121.2,62.5z"/>
		<path d="M126.1,59.7l-0.6,0.6c0,0-0.4-0.6-1.2-0.6s-1.4,0.6-1.4,1.4s0.6,1.4,1.4,1.4s1.3-0.6,1.3-0.6l0.6,0.6c0,0-0.6,0.9-1.9,0.9
			c-1.4,0-2.4-1-2.4-2.3s1-2.3,2.4-2.3C125.5,58.8,126.1,59.7,126.1,59.7z"/>
		<path d="M128.9,61c0.4,0,0.8,0.3,0.8,0.8c0,0.4-0.3,0.8-0.8,0.8c-0.4,0-0.8-0.3-0.8-0.8C128.1,61.4,128.5,61,128.9,61z"/>
		<path d="M135,61.5v-2.6h0.9v2.6c0,1.1-0.8,1.9-1.9,1.9c-1.1,0-1.9-0.8-1.9-1.9v-2.6h0.9v2.6c0,0.6,0.4,1,1,1
			C134.6,62.6,135,62.1,135,61.5z"/>
		<path d="M141,58.9v4.4h-0.8l-2.2-2.8v2.8h-1v-4.4h0.8l2.2,2.8v-2.8H141z"/>
		<path d="M142.1,58.9h0.9v4.4h-0.9V58.9z"/>
		<path d="M143.7,58.9h1l1.1,3.3l1.1-3.3h1l-1.6,4.4h-1L143.7,58.9z"/>
		<path d="M152,62.5v0.8h-3.3v-4.4h3.2v0.8h-2.3v0.9h1.8v0.8h-1.8v1L152,62.5L152,62.5z"/>
		<path d="M152.9,58.9h1.9c0.9,0,1.5,0.6,1.5,1.4c0,0.9-0.8,1.3-0.8,1.3l0.9,1.7h-1l-0.8-1.5h-0.8v1.5h-0.9L152.9,58.9L152.9,58.9z
			 M154.8,59.8h-1V61h1c0.3,0,0.6-0.3,0.6-0.6C155.4,60,155.1,59.8,154.8,59.8z"/>
		<path d="M157.1,60.1c0-0.7,0.6-1.3,1.5-1.3c1,0,1.4,0.6,1.4,0.6l-0.6,0.6c0,0-0.3-0.4-0.8-0.4c-0.4,0-0.6,0.2-0.6,0.5
			c0,0.8,2.2,0.3,2.2,1.9c0,0.8-0.6,1.4-1.7,1.4c-1.1,0-1.7-0.7-1.7-0.7l0.6-0.6c0,0,0.4,0.5,1,0.5c0.5,0,0.7-0.3,0.7-0.6
			C159.2,61.2,157.1,61.7,157.1,60.1z"/>
		<path d="M161.1,58.9h0.9v4.4h-0.9V58.9z"/>
		<path d="M166.2,58.9v0.8h-1.3v3.6H164v-3.6h-1.3v-0.8H166.2z"/>
		<path d="M170.2,62.5v0.8h-3.3v-4.4h3.2v0.8h-2.3v0.9h1.8v0.8h-1.8v1L170.2,62.5L170.2,62.5z M168.7,57.5h0.9l-0.7,0.9h-0.7
			L168.7,57.5z"/>
		<path d="M174.2,58.9c0.9,0,1.6,0.6,1.6,1.5c0,0.8-0.7,1.5-1.6,1.5h-0.9v1.4h-0.9v-4.4H174.2z M173.3,59.8V61h0.9
			c0.4,0,0.7-0.3,0.7-0.6c0-0.3-0.3-0.6-0.7-0.6H173.3z"/>
		<path d="M177.5,62.3l-0.4,1h-1l1.7-4.4h1l1.7,4.4h-1l-0.4-1H177.5z M178.3,60l-0.5,1.4h1.1L178.3,60z"/>
		<path d="M181.2,58.9h1.9c0.9,0,1.5,0.6,1.5,1.4c0,0.9-0.8,1.3-0.8,1.3l0.9,1.7h-1l-0.8-1.5h-0.8v1.5h-0.9L181.2,58.9L181.2,58.9z
			 M183.1,59.8h-1V61h1c0.3,0,0.6-0.3,0.6-0.6C183.7,60,183.5,59.8,183.1,59.8z"/>
		<path d="M185.7,58.9h0.9v4.4h-0.9V58.9z"/>
		<path d="M187.5,60.1c0-0.7,0.6-1.3,1.5-1.3c1,0,1.4,0.6,1.4,0.6l-0.6,0.6c0,0-0.3-0.4-0.8-0.4c-0.4,0-0.6,0.2-0.6,0.5
			c0,0.8,2.2,0.3,2.2,1.9c0,0.8-0.6,1.4-1.7,1.4c-1.1,0-1.7-0.7-1.7-0.7l0.6-0.6c0,0,0.4,0.5,1,0.5c0.5,0,0.7-0.3,0.7-0.6
			C189.7,61.2,187.5,61.7,187.5,60.1z"/>
		<path d="M193.4,61.9h-2.3v-0.8h2.3V61.9z"/>
		<path d="M197.5,62.5v0.8h-3.3v-4.4h3.2v0.8h-2.3v0.9h1.8v0.8h-1.8v1L197.5,62.5L197.5,62.5z"/>
		<path d="M198.1,60.1c0-0.7,0.6-1.3,1.5-1.3c1,0,1.4,0.6,1.4,0.6l-0.6,0.6c0,0-0.3-0.4-0.8-0.4c-0.4,0-0.6,0.2-0.6,0.5
			c0,0.8,2.2,0.3,2.2,1.9c0,0.8-0.6,1.4-1.7,1.4c-1.1,0-1.7-0.7-1.7-0.7l0.6-0.6c0,0,0.4,0.5,1,0.5c0.5,0,0.7-0.3,0.7-0.6
			C200.3,61.2,198.1,61.7,198.1,60.1z"/>
		<path d="M205.2,58.9v0.8h-1.3v3.6H203v-3.6h-1.3v-0.8H205.2z"/>
		<path d="M211.1,59.7l-0.6,0.6c0,0-0.4-0.6-1.2-0.6s-1.4,0.6-1.4,1.4s0.6,1.4,1.4,1.4c0.8,0,1.3-0.6,1.3-0.6l0.6,0.6
			c0,0-0.6,0.9-1.9,0.9c-1.4,0-2.4-1-2.4-2.3s1-2.3,2.4-2.3C210.5,58.8,211.1,59.7,211.1,59.7z"/>
		<path d="M211.9,58.9h1.9c0.9,0,1.5,0.6,1.5,1.4c0,0.9-0.8,1.3-0.8,1.3l0.9,1.7h-1l-0.8-1.5h-0.8v1.5h-0.9L211.9,58.9L211.9,58.9z
			 M213.8,59.8h-1V61h1c0.3,0,0.6-0.3,0.6-0.6C214.4,60,214.2,59.8,213.8,59.8z"/>
		<path d="M219.6,62.5v0.8h-3.3v-4.4h3.2v0.8h-2.3v0.9h1.8v0.8h-1.8v1L219.6,62.5L219.6,62.5z M218.1,57.5h0.9l-0.7,0.9h-0.7
			L218.1,57.5z"/>
		<path d="M223.5,58.9v0.8h-1.3v3.6h-0.9v-3.6H220v-0.8H223.5z"/>
		<path d="M227.5,62.5v0.8h-3.3v-4.4h3.2v0.8h-2.3v0.9h1.8v0.8h-1.8v1L227.5,62.5L227.5,62.5z"/>
		<path d="M228.4,58.9h0.9v4.4h-0.9V58.9z"/>
		<path d="M230.5,63.3v-4.4h0.9v3.6h2v0.8H230.5z"/>
	</g>
	<g>
		<path d="M100,16.7v-4.8h1v3.9h2.2v0.9C103.2,16.7,100,16.7,100,16.7z"/>
		<path d="M105,15.6l-0.4,1.1h-1.1l1.9-4.8h1.1l1.9,4.8h-1.1l-0.4-1.1H105z M105.9,13.1l-0.6,1.6h1.2L105.9,13.1z"/>
		<path d="M109,16.7v-4.8h2.1c0.9,0,1.5,0.6,1.5,1.3c0,0.7-0.5,1-0.5,1s0.8,0.3,0.8,1.1c0,0.7-0.7,1.4-1.6,1.4H109z M110,12.8v1h1
			c0.3,0,0.5-0.2,0.5-0.5s-0.2-0.5-0.5-0.5H110z M111.1,15.9c0.4,0,0.7-0.3,0.7-0.6s-0.3-0.6-0.7-0.6H110v1.2H111.1z"/>
		<path d="M116.1,11.8c1.5,0,2.6,1.1,2.6,2.5c0,1.4-1.1,2.5-2.6,2.5s-2.6-1.1-2.6-2.5C113.5,13,114.6,11.8,116.1,11.8z M116.1,15.9
			c0.9,0,1.5-0.7,1.5-1.6s-0.7-1.6-1.5-1.6c-0.9,0-1.5,0.7-1.5,1.6S115.2,15.9,116.1,15.9z"/>
		<path d="M119.7,11.9h2.1c1,0,1.6,0.7,1.6,1.6c0,1-0.9,1.4-0.9,1.4l1,1.8h-1.1l-0.9-1.7h-0.9v1.7h-1v-4.8H119.7z M121.7,12.9h-1.1
			v1.3h1.1c0.4,0,0.7-0.3,0.7-0.6C122.4,13.1,122.1,12.9,121.7,12.9z"/>
		<path d="M125.5,15.6l-0.4,1.1H124l1.9-4.8h1.1l1.9,4.8h-1.1l-0.4-1.1H125.5z M126.4,13.1l-0.6,1.6h1.2L126.4,13.1z"/>
		<path d="M132.8,11.9v0.9h-1.4v3.9h-1v-3.9H129v-0.9C129,11.9,132.8,11.9,132.8,11.9z"/>
		<path d="M135.9,11.8c1.5,0,2.6,1.1,2.6,2.5c0,1.4-1.1,2.5-2.6,2.5s-2.6-1.1-2.6-2.5C133.3,13,134.4,11.8,135.9,11.8z M135.9,15.9
			c0.9,0,1.5-0.7,1.5-1.6s-0.7-1.6-1.5-1.6c-0.9,0-1.5,0.7-1.5,1.6S135,15.9,135.9,15.9z"/>
		<path d="M139.5,11.9h1v4.8h-1V11.9z"/>
		<path d="M141.7,11.9h2.1c1,0,1.6,0.7,1.6,1.6c0,1-0.9,1.4-0.9,1.4l1,1.8h-1.1l-0.9-1.7h-0.9v1.7h-1L141.7,11.9L141.7,11.9z
			 M143.8,12.9h-1.1v1.3h1.1c0.4,0,0.7-0.3,0.7-0.6C144.5,13.1,144.2,12.9,143.8,12.9z"/>
		<path d="M150.2,15.8v0.9h-3.6v-4.8h3.5v0.9h-2.5v1h2v0.9h-2v1.1H150.2z"/>
		<path d="M152.6,11.9h1v4.8h-1V11.9z"/>
		<path d="M159.1,11.9v4.8h-0.9l-2.4-3v3h-1v-4.8h0.9l2.4,3v-3C158.1,11.9,159.1,11.9,159.1,11.9z"/>
		<path d="M163.6,11.9v0.9h-1.4v3.9h-1v-3.9h-1.4v-0.9C159.8,11.9,163.6,11.9,163.6,11.9z"/>
		<path d="M168,15.8v0.9h-3.6v-4.8h3.5v0.9h-2.5v1h2v0.9h-2v1.1H168z"/>
		<path d="M168.9,11.9h2.1c1,0,1.6,0.7,1.6,1.6c0,1-0.9,1.4-0.9,1.4l1,1.8h-1.1l-0.9-1.7H170v1.7h-1v-4.8H168.9z M171,12.9h-1v1.3
			h1.1c0.4,0,0.7-0.3,0.7-0.6C171.7,13.1,171.4,12.9,171,12.9z"/>
		<path d="M175.6,11.9c1.4,0,2.5,1.1,2.5,2.4s-1.1,2.4-2.5,2.4h-1.8v-4.8C173.8,11.9,175.6,11.9,175.6,11.9z M174.8,12.9v2.9h0.8
			c0.8,0,1.4-0.7,1.4-1.5s-0.6-1.5-1.4-1.5h-0.8V12.9z"/>
		<path d="M179,11.9h1v4.8h-1V11.9z"/>
		<path d="M181,13.2c0-0.8,0.7-1.4,1.7-1.4c1.1,0,1.6,0.7,1.6,0.7l-0.6,0.7c0,0-0.3-0.4-0.9-0.4c-0.4,0-0.7,0.2-0.7,0.5
			c0,0.9,2.4,0.4,2.4,2.1c0,0.9-0.7,1.5-1.8,1.5c-1.2,0-1.8-0.8-1.8-0.8l0.6-0.6c0,0,0.4,0.5,1.1,0.5c0.5,0,0.8-0.3,0.8-0.6
			C183.4,14.4,181,14.9,181,13.2z"/>
		<path d="M189.7,12.8l-0.7,0.7c0,0-0.4-0.7-1.3-0.7c-0.9,0-1.6,0.7-1.6,1.6s0.7,1.6,1.6,1.6c0.9,0,1.4-0.7,1.4-0.7l0.6,0.7
			c0,0-0.7,1-2,1c-1.5,0-2.6-1.1-2.6-2.5c0-1.4,1.1-2.5,2.6-2.5C189,11.8,189.7,12.8,189.7,12.8z"/>
		<path d="M190.6,11.9h1v4.8h-1V11.9z"/>
		<path d="M194.8,11.9c1,0,1.7,0.7,1.7,1.6s-0.7,1.6-1.7,1.6h-1v1.6h-1v-4.8C192.8,11.9,194.8,11.9,194.8,11.9z M193.8,12.9v1.4h1
			c0.4,0,0.7-0.3,0.7-0.7c0-0.4-0.3-0.7-0.7-0.7C194.8,12.9,193.8,12.9,193.8,12.9z"/>
		<path d="M197.5,16.7v-4.8h1v3.9h2.2v0.9C200.7,16.7,197.5,16.7,197.5,16.7z"/>
		<path d="M201.5,11.9h1v4.8h-1V11.9z"/>
		<path d="M208.1,11.9v4.8h-0.9l-2.4-3v3h-1v-4.8h0.9l2.4,3v-3C207.1,11.9,208.1,11.9,208.1,11.9z"/>
		<path d="M210.3,15.6l-0.4,1.1h-1.1l1.9-4.8h1.1l1.9,4.8h-1.1l-0.4-1.1H210.3z M211.2,13.1l-0.6,1.6h1.2L211.2,13.1z"/>
		<path d="M214.3,11.9h1v4.8h-1V11.9z"/>
		<path d="M216.6,11.9h2.1c1,0,1.6,0.7,1.6,1.6c0,1-0.9,1.4-0.9,1.4l1,1.8h-1.1l-0.9-1.7h-0.9v1.7h-1L216.6,11.9L216.6,11.9z
			 M218.7,12.9h-1.1v1.3h1.1c0.4,0,0.7-0.3,0.7-0.6C219.3,13.1,219,12.9,218.7,12.9z"/>
		<path d="M225,15.8v0.9h-3.6v-4.8h3.5v0.9h-2.5v1h2v0.9h-2v1.1H225z"/>
		<path d="M101.7,20.2c1.4,0,2.5,1.1,2.5,2.4c0,1.3-1.1,2.4-2.5,2.4H100v-4.8C100,20.2,101.7,20.2,101.7,20.2z M101,21.1V24h0.8
			c0.8,0,1.4-0.7,1.4-1.5s-0.6-1.5-1.4-1.5L101,21.1L101,21.1z"/>
		<path d="M106.2,20.5l-0.9,1.5l-0.6-0.3l0.7-1.6L106.2,20.5z"/>
		<path d="M110.5,24v1h-3.6v-4.8h3.5v0.9H108v1h2V23h-2v1H110.5z M108.9,18.5h1l-0.8,1h-0.8L108.9,18.5z"/>
		<path d="M114.8,20.2v0.9h-1.4V25h-1v-3.9H111v-0.9C111,20.2,114.8,20.2,114.8,20.2z"/>
		<path d="M118.7,23v-2.8h1V23c0,1.2-0.9,2.1-2.1,2.1s-2.1-0.9-2.1-2.1v-2.8h1V23c0,0.7,0.5,1.1,1.1,1.1S118.7,23.6,118.7,23z"/>
		<path d="M122.7,20.2c1.4,0,2.5,1.1,2.5,2.4c0,1.3-1.1,2.4-2.5,2.4h-1.8v-4.8C120.9,20.2,122.7,20.2,122.7,20.2z M121.9,21.1V24
			h0.8c0.8,0,1.4-0.7,1.4-1.5s-0.6-1.5-1.4-1.5L121.9,21.1L121.9,21.1z"/>
		<path d="M129.7,24v1h-3.6v-4.8h3.5v0.9h-2.5v1h2V23h-2v1H129.7z"/>
		<path d="M133.8,20.2c1.4,0,2.5,1.1,2.5,2.4c0,1.3-1.1,2.4-2.5,2.4H132v-4.8C132,20.2,133.8,20.2,133.8,20.2z M133.1,21.1V24h0.8
			c0.8,0,1.4-0.7,1.4-1.5s-0.6-1.5-1.4-1.5L133.1,21.1L133.1,21.1z"/>
		<path d="M140.4,23v-2.8h1V23c0,1.2-0.9,2.1-2.1,2.1c-1.2,0-2.1-0.9-2.1-2.1v-2.8h1V23c0,0.7,0.5,1.1,1.1,1.1S140.4,23.6,140.4,23z
			"/>
		<path d="M146,20.2c1,0,1.7,0.7,1.7,1.6c0,0.9-0.7,1.6-1.7,1.6h-1V25h-1v-4.8H146z M145,21.1v1.4h1c0.4,0,0.7-0.3,0.7-0.7
			s-0.3-0.7-0.7-0.7H145z"/>
		<path d="M151,20.1c1.5,0,2.6,1.1,2.6,2.5s-1.1,2.5-2.6,2.5s-2.6-1.1-2.6-2.5C148.4,21.2,149.5,20.1,151,20.1z M151,24.1
			c0.9,0,1.5-0.7,1.5-1.6c0-0.9-0.7-1.6-1.5-1.6c-0.9,0-1.5,0.7-1.5,1.6C149.5,23.4,150.2,24.1,151,24.1z"/>
		<path d="M154.6,25v-4.8h1V24h2.2v1H154.6z"/>
		<path d="M158.6,20.2h1V25h-1V20.2z"/>
		<path d="M164.2,20.2v0.9h-1.4V25h-1v-3.9h-1.4v-0.9C160.4,20.2,164.2,20.2,164.2,20.2z"/>
		<path d="M164.9,20.2h1V25h-1V20.2z"/>
		<path d="M169.5,20.1c1.5,0,2.6,1.1,2.6,2.5c0,1.5-1.3,2.2-1.3,2.2s0.3,0.5,1.2,0.5h0.1V26h-0.2c-1.5,0-2.1-1-2.1-1s-0.2,0-0.4,0
			c-1.5,0-2.6-1.1-2.6-2.5C166.9,21.2,168,20.1,169.5,20.1z M169.5,24.1c0.9,0,1.5-0.7,1.5-1.6c0-0.9-0.7-1.6-1.5-1.6
			s-1.5,0.7-1.5,1.6C168,23.4,168.7,24.1,169.5,24.1z"/>
		<path d="M176.2,23v-2.8h1V23c0,1.2-0.9,2.1-2.1,2.1c-1.2,0-2.1-0.9-2.1-2.1v-2.8h1V23c0,0.7,0.5,1.1,1.1,1.1
			C175.8,24.1,176.2,23.6,176.2,23z"/>
		<path d="M182.1,24v1h-3.6v-4.8h3.5v0.9h-2.5v1h2V23h-2v1H182.1z"/>
		<path d="M188.5,25h-1v-2h-2.1v2h-1v-4.8h1v1.9h2.1v-1.9h1V25z"/>
		<path d="M190.7,23.8l-0.4,1.1h-1.1l1.9-4.8h1.1l1.9,4.8H193l-0.4-1.1H190.7z M191.7,21.4l-0.6,1.6h1.2L191.7,21.4z"/>
		<path d="M199.1,20.2V25h-0.9l-2.4-3v3h-1v-4.8h0.9l2.4,3v-3H199.1z"/>
		<path d="M204.6,20.2V25h-0.9l-2.4-3v3h-1v-4.8h0.9l2.4,3v-3H204.6z"/>
		<path d="M206.8,23.8l-0.4,1.1h-1.1l1.9-4.8h1.1l1.9,4.8H209l-0.4-1.1H206.8z M207.7,21.4l-0.6,1.6h1.2L207.7,21.4z"/>
		<path d="M214.9,25h-1v-2h-2.1v2h-1v-4.8h1v1.9h2.1v-1.9h1V25z"/>
		<path d="M218.5,23.8l-0.4,1.1H217l1.9-4.8h1.1l1.9,4.8h-1.1l-0.4-1.1H218.5z M219.4,21.4l-0.6,1.6h1.2L219.4,21.4z"/>
		<path d="M222.6,20.2h2.1c1,0,1.6,0.7,1.6,1.6c0,1-0.9,1.4-0.9,1.4l1,1.8h-1.1l-0.9-1.7h-0.9V25h-1L222.6,20.2L222.6,20.2z
			 M224.7,21.1h-1.1v1.3h1.1c0.4,0,0.7-0.3,0.7-0.6C225.3,21.4,225,21.1,224.7,21.1z"/>
		<path d="M231,24v1h-3.6v-4.8h3.5v0.9h-2.5v1h2V23h-2v1H231z"/>
		<path d="M236.3,20.2V25h-0.9l-2.4-3v3h-1v-4.8h0.9l2.4,3v-3H236.3z"/>
		<path d="M239.3,20.2c1.4,0,2.5,1.1,2.5,2.4c0,1.3-1.1,2.4-2.5,2.4h-1.8v-4.8C237.5,20.2,239.3,20.2,239.3,20.2z M238.5,21.1V24
			h0.8c0.8,0,1.4-0.7,1.4-1.5s-0.6-1.5-1.4-1.5L238.5,21.1L238.5,21.1z"/>
		<path d="M246,20.2v0.9h-1.4V25h-1v-3.9h-1.4v-0.9C242.2,20.2,246,20.2,246,20.2z"/>
	</g>
	<g>
		<g>
			<path class="st1" d="M16.4,44.5h0.8c0.4,0,0.8-0.2,1-0.5s0.5-1.1,0.8-2.4c0.1-0.5,0.3-0.8,0.4-0.9c0.2-0.1,0.5-0.2,0.9-0.2
				s0.7,0,0.9,0.1c0.1,0.1,0.2,0.2,0.2,0.4c0,0.1,0,0.4-0.1,0.7l-0.5,3.5c-0.1,0.4-0.1,0.6-0.2,0.7c-0.1,0.1-0.3,0.2-0.6,0.2h-9.7
				c-0.4,0-0.6-0.3-0.6-0.8c0-0.4,0-0.6,0.1-0.8c0.1-0.1,0.2-0.2,0.3-0.3c0.6-0.2,0.8-0.7,0.8-1.6V25.3c0-0.4-0.2-0.6-0.5-0.8
				c-0.3-0.1-0.5-0.3-0.6-0.4c-0.1-0.2-0.1-0.4-0.1-0.8c0-0.4,0-0.7,0.1-0.8s0.2-0.2,0.5-0.2h6.8c0.3,0,0.4,0.1,0.5,0.2
				c0.1,0.1,0.1,0.5,0.1,1c0,0.3,0,0.5-0.1,0.7c-0.1,0.1-0.2,0.2-0.5,0.3c-0.5,0.2-0.7,0.5-0.7,1C16.4,25.5,16.4,44.5,16.4,44.5z"/>
			<path class="st1" d="M22,23.5v-0.8c0-0.3,0.2-0.5,0.5-0.5h7.1c0.3,0,0.4,0,0.5,0.1s0.1,0.3,0.1,0.6c0,0.5,0,0.8-0.1,1
				c-0.1,0.1-0.2,0.2-0.4,0.2c-0.6,0.1-0.9,0.5-0.9,1.2v17.8c0,0.4,0.2,0.7,0.7,0.9c0.3,0.1,0.5,0.3,0.5,0.4
				c0.1,0.1,0.1,0.3,0.1,0.6v0.6c0,0.3,0,0.5-0.1,0.5s-0.2,0.1-0.5,0.1h-7.2c-0.3,0-0.4-0.1-0.4-0.3c0-0.7,0-1.1,0.1-1.3
				c0-0.2,0.2-0.3,0.5-0.4c0.5-0.1,0.8-0.4,0.8-0.8V25.8c0-0.4,0-0.7-0.1-0.9s-0.3-0.4-0.7-0.5c-0.2-0.1-0.4-0.2-0.5-0.3
				C22,23.9,22,23.8,22,23.5z"/>
			<path class="st1" d="M37.7,38v5c0,0.6,0.2,0.9,0.7,1.1c0.2,0.1,0.4,0.2,0.5,0.4s0.1,0.4,0.1,0.9c0,0.4-0.1,0.6-0.2,0.7
				c-0.1,0.1-0.3,0.1-0.7,0.1h-6.7c-0.4,0-0.5-0.3-0.5-0.9c0-0.5,0-0.8,0.1-0.9c0-0.1,0.2-0.2,0.5-0.3s0.4-0.2,0.5-0.3
				s0.1-0.3,0.1-0.5V25.4c0-0.4-0.3-0.8-0.8-1c-0.3-0.1-0.4-0.4-0.4-0.7V23c0-0.3,0-0.5,0.1-0.6s0.2-0.1,0.5-0.1h7.6
				c2.2,0,3.9,0.7,5.2,2.1c1.3,1.4,1.9,3.3,1.9,5.8c0,1.4-0.2,2.6-0.6,3.7c-0.4,1.1-0.9,1.9-1.5,2.4s-1.3,0.9-2.1,1.3
				c-0.8,0.3-1.6,0.5-2.5,0.5h-1.8V38z M37.7,23.9v12.4h1c0.4,0,0.7-0.2,1-0.6c0.3-0.4,0.4-1,0.4-1.9v-7.4c0-1.7-0.6-2.5-1.7-2.5
				H37.7z"/>
			<path class="st1" d="M54,32.5h2.4v-7.4c0-0.2,0-0.4-0.1-0.5c0-0.1-0.2-0.2-0.4-0.3s-0.3-0.4-0.3-0.8c0-0.6,0-0.9,0.1-1
				c0-0.1,0.2-0.2,0.4-0.2h6.4c0.3,0,0.5,0.1,0.5,0.2c0.1,0.1,0.1,0.4,0.1,1c0,0.3,0,0.6-0.1,0.6s-0.3,0.2-0.6,0.3
				c-0.4,0.2-0.5,0.5-0.5,0.9V43c0,0.5,0.2,0.8,0.6,1.1c0.3,0.2,0.5,0.4,0.5,0.6v0.9c0,0.2,0,0.3-0.1,0.4c-0.1,0.1-0.2,0.1-0.5,0.1
				H56c-0.2,0-0.4,0-0.4-0.1s-0.1-0.4-0.1-1.1c0-0.3,0.1-0.6,0.4-0.8c0.3-0.2,0.5-0.5,0.5-0.8v-9.2H54v9.3c0,0.3,0.1,0.6,0.4,0.8
				c0.3,0.2,0.4,0.5,0.4,0.9c0,0.5,0,0.8-0.1,0.9c-0.1,0.1-0.2,0.1-0.4,0.1h-6.5c-0.2,0-0.3,0-0.4-0.1c0-0.1-0.1-0.4-0.1-1.1
				c0-0.3,0-0.5,0.1-0.6c0-0.1,0.2-0.2,0.4-0.3c0.4-0.2,0.6-0.5,0.6-0.9V25.3c0-0.3-0.2-0.6-0.5-0.8c-0.4-0.3-0.5-0.6-0.5-1.1
				s0-0.8,0.1-0.9c0.1-0.1,0.3-0.2,0.6-0.2h6.1c0.3,0,0.4,0,0.5,0.1s0.1,0.3,0.1,0.7v0.7c0,0.2-0.1,0.3-0.4,0.5
				c-0.3,0.2-0.5,0.4-0.5,0.8v7.4H54z"/>
			<path class="st1" d="M71.1,41.1h-3.7l-0.2,1.4v0.1c-0.1,0.3-0.1,0.5-0.1,0.8c0,0.4,0.2,0.7,0.7,0.9c0.2,0.1,0.4,0.3,0.5,0.4
				c0.1,0.1,0.1,0.4,0.1,0.7c0,0.4,0,0.6-0.1,0.7c0,0.1-0.2,0.1-0.3,0.1h-4c-0.2,0-0.3-0.2-0.3-0.7s0.2-1,0.5-1.3
				c0.3-0.3,0.5-0.6,0.6-1l2.7-17.4c0-0.3,0.1-0.5,0.1-0.7c0-0.3-0.2-0.6-0.6-0.8c-0.2-0.1-0.3-0.4-0.3-0.8c0-0.5,0-0.9,0.1-1
				s0.2-0.2,0.5-0.2H73c0.3,0,0.6,0.2,0.7,0.5s0.3,1,0.4,2.1c0.1,0.4,0.1,0.8,0.2,1.3l2.4,16.3c0.1,0.8,0.4,1.4,0.9,1.8
				c0.1,0.1,0.2,0.2,0.3,0.3c0,0.1,0.1,0.3,0.1,0.6c0,0.5,0,0.8-0.1,0.9c-0.1,0.1-0.2,0.2-0.4,0.2h-6.6c-0.2,0-0.3-0.2-0.3-0.6
				c0-0.5,0-0.8,0.1-0.9c0-0.1,0.2-0.3,0.4-0.4c0.3-0.2,0.5-0.5,0.5-0.8C71.4,43.1,71.3,42.3,71.1,41.1z M69.3,27.8l-1.7,11.6H71
				L69.3,27.8z"/>
		</g>
		<g>
			<path class="st2" d="M80.5,86H5.4C1.9,86,0,83.2,0,80.6V16.9C0,3.6,11,0,16.8,0h63.7c3.5,0,5.4,2.8,5.4,5.4v75.1
				C85.9,84.1,83.1,86,80.5,86z M5.2,80.9c0,0,0.1,0,0.2,0h75.1c0.1,0,0.3-0.1,0.3-0.1s0-0.1,0-0.2V5.4c0-0.1-0.1-0.3-0.1-0.3
				s-0.1,0-0.2,0H16.9c-1.2,0-11.8,0.4-11.8,11.8v63.7C5.1,80.6,5.1,80.8,5.2,80.9L5.2,80.9z"/>
		</g>
	</g>
</g>
</svg>
