<svg id="Calque_1" data-name="Calque 1" xmlns="http://www.w3.org/2000/svg" viewBox="0 0 1024 435"><defs><style>.cls-1{fill:#e62733;}</style></defs><path d="M620,227.19v15.48c0,5,1,7.47,4.45,7.47,2.94,0,4.45-1.85,4.45-6.8V227.19h4.45v17c0,2.36,0,10.42-10.82,10.42-6.44,0-11.43-3.1-11.43-10.42v-17Z"/><path d="M642.21,227.19h6l11.35,15.58H660V227.19h4.45V253.9H658.4l-11.67-15.58h-.07V253.9h-4.45V227.19Z"/><path d="M673.37,227.19H680V253.9h-6.67Z"/><path d="M684.91,227.19h7.37l7.22,20h.08l7.07-20h4.52l-9.45,26.71h-7.14Z"/><path d="M715.66,227.19h17.8v4.45H722.33v6.68h8.9v4.45h-6.67v6.68h11.13v4.45h-20V227.19Z"/><path d="M742.36,227.19h12.69c3.32,0,7.27,1.88,7.27,6.69a8.67,8.67,0,0,1-5,7.61l8.56,12.41h-8.22l-6-11.13H749V253.9h-6.68V227.19ZM749,238.32h1.41c2.47,1.23,3.8-1.4,3.8-3.36s-.81-3-4-3.32H749Z"/><path d="M769.07,249.13a20.41,20.41,0,0,0,7.49,1.64c2,0,4.59-.53,4.59-3,0-4.47-12.31-4.93-12.31-13.64,0-5.54,5-7.76,9.82-7.76a46.49,46.49,0,0,1,8.22.84v5.24a21.54,21.54,0,0,0-7.07-1.49c-1.46,0-3.6.57-3.6,2.37,0,4.16,12.77,4.7,12.77,13.72,0,2.79-1.46,8.33-11.31,8.33a53.07,53.07,0,0,1-8.6-.69Z"/><path d="M793.56,227.19h6.67V253.9h-6.67Z"/><path d="M815.81,231.64H804.68v-4.45h26.71v4.45h-8.9V253.9h-6.68V231.64Z"/><path d="M835.84,227.19h20v4.45H844.75v6.68h8.9v4.45h-8.9v6.68h11.13v4.45h-20V227.19ZM846,220.51h5.54L846.25,225H842Z"/><path d="M611.05,280.61h11.67c4.74,0,7.6,1.79,7.6,6.78s-3.21,8.8-8.87,8.8h-3.73v11.13h-6.67V280.61Zm6.67,12.24c2.48,0,6.1-.3,6.1-4.69,0-2.44-1.81-3.25-4-3.25a10.85,10.85,0,0,0-2.11.25Z"/><path d="M641.86,280.61H649l10.24,26.71h-7.31l-2.54-6.68H639.11l-2.58,6.68h-4.9Zm6,15.58-3.62-9.46-3.63,9.46Z"/><path d="M664.46,280.61h12.69c3.32,0,7.26,1.88,7.26,6.68a8.65,8.65,0,0,1-5,7.61L688,307.32h-8.22l-6-11.13h-2.62v11.13h-6.68V280.61Zm6.68,11.13h2.2c2.48.78,3.81-1.85,3.81-3.8s-.81-3-4-2.88h-2Z"/><path d="M693.4,280.61h6.67v26.71H693.4Z"/><path d="M706.75,302.1a20.22,20.22,0,0,0,7.49,1.65c2,0,4.59-.54,4.59-3,0-4.47-12.31-4.93-12.31-13.65,0-5.54,5-7.75,9.82-7.75a45.57,45.57,0,0,1,8.22.84v5.23a21.54,21.54,0,0,0-7.07-1.49c-1.46,0-3.6.57-3.6,2.37,0,4.17,12.77,4.7,12.77,13.72,0,2.79-1.46,8.33-11.31,8.33a51.75,51.75,0,0,1-8.6-.69Z"/><path d="M729,294h8.9v4.45H729Z"/><path d="M742.36,280.61h20v4.45H751.27v6.68h8.9v4.45h-8.9v6.67H762.4v4.46h-20V280.61Z"/><path d="M766.85,302.1a20.14,20.14,0,0,0,7.49,1.65c1.94,0,4.58-.54,4.58-3,0-4.47-12.3-4.93-12.3-13.65,0-5.54,5-7.75,9.82-7.75a45.37,45.37,0,0,1,8.21.84v5.23a21.48,21.48,0,0,0-7.07-1.49c-1.45,0-3.59.57-3.59,2.37,0,4.17,12.76,4.7,12.76,13.72,0,2.79-1.45,8.33-11.31,8.33a51.72,51.72,0,0,1-8.59-.69Z"/><path d="M800.23,285.06H789.1v-4.45h26.71v4.45h-8.9v22.26h-6.68V285.06Z"/><path d="M857,285.06c-2.55-.19-5.21-.82-7.94-.82-6.47,0-8.5,4.62-8.5,9.42,0,6,3.14,9.76,9.24,9.76,2.55,0,5.32-.81,6-1.92v4.91c-1.42,1-4.67,1.44-8.37,1.44-8.68,0-14.48-5.14-14.48-14s5.8-14,14.48-14a63.51,63.51,0,0,1,10.59.88v4.37Z"/><path d="M862.55,280.61h12.7c3.32,0,7.26,1.88,7.26,6.68a8.65,8.65,0,0,1-5,7.61l8.57,12.42h-8.24l-6-11.13h-2.62v11.13h-6.68V280.61Zm6.68,11.13h2.92c2.48.78,3.81-1.85,3.81-3.8s-.81-3-4-2.88h-2.74v6.68Z"/><path d="M891.49,280.61h17.8v4.45H898.16v6.68h8.91v4.45h-8.91v6.67h11.13v4.46h-17.8V280.61Zm9.37-6.68h5.54l-5.32,4.45h-4.25Z"/><path d="M924.88,285.06H913.74v-4.45h26.71v4.45h-8.9v22.26h-6.68V285.06Z"/><path d="M944.91,280.61h20v4.45H953.81v6.68h8.9v4.45h-8.9v6.67h11.13v4.46h-20V280.61Z"/><path d="M971.61,280.61h6.68v26.71h-6.68Z"/><path d="M985,280.61h8.9v22.25H1005v4.46H985V280.61Z"/><path d="M609.28,334h7.37l7.22,20h.07L631,334h4.53l-9.46,26.71H619Z"/><path d="M645.33,334h7.14l10.23,26.71h-7.31l-2.54-6.67H642.59L640,360.73H635.1Zm6,15.58-3.62-9.46-3.62,9.46Z"/><path d="M666.69,334h8.9v22.26h11.13v4.45h-20V334Z"/><path d="M706.75,334h14.56c3.69,0,11.27,2.26,11.27,12.9,0,9.38-5.66,13.81-12.56,13.81H706.75V334Zm6.68,22.05a30,30,0,0,0,3.43.25c6.14,0,7.69-4.65,7.69-9.12,0-3.74-1.18-8.72-7.5-8.72h-3.62Z"/><path d="M737.91,334h17.81v4.46H744.59v6.67h8.9v4.45h-8.9v6.68h11.13v4.45H737.91V334Z"/><path d="M777.49,334h9l5.83,17.81h.07L798.29,334h8.62v26.71h-6.68v-20h-.07l-6,17.81h-5.85L782.5,340.7h-.07v20H778V334Z"/><path d="M821.31,334h7.13l10.24,26.71h-7.31l-2.54-6.67H818.56L816,360.73h-4.9Zm6,15.58-3.62-9.46-3.63,9.46Z"/><path d="M844.74,334h12.7c3.32,0,7.27,1.89,7.27,6.69a8.66,8.66,0,0,1-5,7.61l8.56,12.41h-8.24l-6-11.13h-2.62v11.13h-6.67V334Zm6.68,11.13h1.37c2.48.34,3.81-2.29,3.81-4.24s-.81-3-4-2.43h-1.19v6.67Z"/><path d="M872.33,334h6l11.34,15.58h-.37V334h4.45v26.71h-4.56l-11.38-15.58h.36v15.58h-4.45V334Z"/><path d="M902.62,334h17.8v4.46H909.29v6.67h8.91v4.45h-8.91v6.68h11.13v4.45h-17.8V334Z"/><path d="M20.56,414.49a19.92,19.92,0,0,1,5.89-13.9,17.5,17.5,0,0,1,12.33-5.32A11.94,11.94,0,0,1,50,401.85l-2,1c-2-3.4-4.58-5.58-9.37-5.58a14.8,14.8,0,0,0-10.42,4.49,18.23,18.23,0,0,0-5.31,12.59c0,6.41,4.36,10.37,10.33,10.37,4.53,0,7.53-1.79,10.32-4.58l1.53,1.4A15.8,15.8,0,0,1,33,426.86C26.27,426.86,20.56,422.2,20.56,414.49Z"/><path d="M75.76,413.4a13.56,13.56,0,0,1-4.05,9.46,13.13,13.13,0,0,1-9.15,4A9.46,9.46,0,0,1,52.67,417a13.47,13.47,0,0,1,4-9.45,13.06,13.06,0,0,1,9.15-4A9.46,9.46,0,0,1,75.76,413.4ZM70,421.63a11.59,11.59,0,0,0,3.49-8.14c0-5-3.18-7.93-7.8-7.93a10.33,10.33,0,0,0-7.19,3.18A11.59,11.59,0,0,0,55,416.89c0,5,3.18,7.93,7.8,7.93A10.33,10.33,0,0,0,70,421.63Z"/><path d="M87.2,403h2.13l-1.09,4.15c2.18-2.62,4.67-4.67,8.42-4.67,4.41,0,7.29,2.79,7.29,7.06a13.85,13.85,0,0,1-.48,3.15l-3.32,12.57H98l3.4-11.71a11.69,11.69,0,0,0,.35-2.74c0-3.31-2.18-5.36-5.71-5.36-3.79,0-8,3.44-9.28,8.28L83.41,427.5H81.28Z"/><path d="M116,403h2.12L117,407.17c2.18-2.62,4.67-4.67,8.42-4.67,4.41,0,7.29,2.79,7.29,7.06a13.85,13.85,0,0,1-.48,3.15l-3.32,12.57H126.8l3.4-11.71a11.69,11.69,0,0,0,.35-2.74c0-3.31-2.18-5.36-5.71-5.36-3.79,0-8,3.44-9.28,8.28l-3.35,13.75h-2.14Z"/><path d="M138.77,419.57a7.27,7.27,0,0,1,2.14-5.27,11,11,0,0,1,7.88-2.79,33.36,33.36,0,0,1,8.54,1.26l.18-.61a10.28,10.28,0,0,0,.3-2.22c0-3.35-2.35-5.23-6.71-5.23a18.7,18.7,0,0,0-6.45,1.17l-.39-1.91a19.43,19.43,0,0,1,7-1.26c5.44,0,8.62,2.65,8.62,6.92a12.5,12.5,0,0,1-.43,2.92l-3.4,12.73H154l1-3.84a11.38,11.38,0,0,1-8.93,4.36C142.35,425.8,138.77,423.71,138.77,419.57Zm17.61-2.12.52-2a35.13,35.13,0,0,0-8.41-1.05,8.18,8.18,0,0,0-5.88,2.09,5.24,5.24,0,0,0-1.57,3.8c0,2.74,2.09,4.53,5.4,4.53A10.55,10.55,0,0,0,156.38,417.45Z"/><path d="M172.19,403h2.13l-6,22.26h-2.13Zm2.09-6.68h2.65l-.78,2.23h-2.66Z"/><path d="M177.93,422.94l1.52-1.52a11.47,11.47,0,0,0,8.15,3.39c2.83,0,5.75-1.74,5.75-4.4,0-1.7-1-3-4.83-4.4-4.23-1.57-6.23-3.05-6.23-6,0-3.53,3.22-6.45,8.23-6.45a13.14,13.14,0,0,1,8,3l-1.4,1.62a11.2,11.2,0,0,0-6.84-2.62c-3.74,0-5.75,2.05-5.75,4.14,0,1.7.88,2.74,5,4.36,4.45,1.74,6.06,3.35,6.06,6,0,3.88-3.79,6.71-8.28,6.71A13.27,13.27,0,0,1,177.93,422.94Z"/><path d="M201.23,422.94l1.53-1.52a11.46,11.46,0,0,0,8.15,3.39c2.83,0,5.75-1.74,5.75-4.4,0-1.7-1-3-4.84-4.4-4.23-1.57-6.23-3.05-6.23-6,0-3.53,3.22-6.45,8.23-6.45a13.12,13.12,0,0,1,8,3l-1.39,1.62a11.24,11.24,0,0,0-6.84-2.62c-3.75,0-5.75,2.05-5.75,4.14,0,1.7.87,2.74,5,4.36,4.44,1.74,6,3.35,6,6,0,3.88-3.79,6.71-8.28,6.71A13.27,13.27,0,0,1,201.23,422.94Z"/><path d="M225.93,419.57a7.3,7.3,0,0,1,2.13-5.27,11,11,0,0,1,7.89-2.79,33.36,33.36,0,0,1,8.54,1.26l.17-.61a9.72,9.72,0,0,0,.31-2.22c0-3.35-2.35-5.23-6.71-5.23a18.65,18.65,0,0,0-6.45,1.17l-.39-1.91a19.42,19.42,0,0,1,7-1.26c5.45,0,8.63,2.65,8.63,6.92a12,12,0,0,1-.44,2.92l-3.39,12.73h-2.09l1-3.84a11.41,11.41,0,0,1-8.93,4.36C229.5,425.8,225.93,423.71,225.93,419.57Zm17.6-2.12.53-2a35.2,35.2,0,0,0-8.41-1.05,8.22,8.22,0,0,0-5.89,2.09,5.27,5.27,0,0,0-1.56,3.8c0,2.74,2.09,4.53,5.4,4.53A10.54,10.54,0,0,0,243.53,417.45Z"/><path d="M259,403h2.12L260,407.17c2.18-2.62,4.67-4.67,8.42-4.67,4.41,0,7.29,2.79,7.29,7.06a13.82,13.82,0,0,1-.47,3.15l-3.32,12.57H269.8l3.4-11.71a12.23,12.23,0,0,0,.34-2.74c0-3.31-2.18-5.36-5.7-5.36-3.79,0-8,3.44-9.29,8.28L255.2,427.5h-2.13Z"/><path d="M282.94,417.24a14,14,0,0,1,4.14-9.81,12.79,12.79,0,0,1,8.94-3.87,9.31,9.31,0,0,1,8.71,5.35l-1.79,1c-1.35-2.36-3.35-4.36-7.05-4.36a10.21,10.21,0,0,0-7.11,3.13,12.08,12.08,0,0,0-3.52,8.41,7.31,7.31,0,0,0,7.49,7.72,10.25,10.25,0,0,0,7.19-3.19l1.44,1.4a12.36,12.36,0,0,1-8.76,3.79A9.41,9.41,0,0,1,282.94,417.24Z"/><path d="M311.61,416.38a8.4,8.4,0,0,0-.09,1.48,7,7,0,0,0,7.36,7.41,11,11,0,0,0,7.58-3l1.27,1.53a12.93,12.93,0,0,1-8.85,3.44c-5.66,0-9.67-3.83-9.67-9.32a14.76,14.76,0,0,1,4.31-10.2,12.07,12.07,0,0,1,8.54-3.74c5.58,0,8.41,3.92,8.41,8.49a11.74,11.74,0,0,1-.61,3.88Zm.39-2.23h16.12a8.26,8.26,0,0,0,.18-1.83c0-3.57-2-6.66-6.28-6.66a9.61,9.61,0,0,0-6.84,3A12.27,12.27,0,0,0,312,414.15Z"/><path d="M345.49,411.92h10.66l-.6,2.23H344.9Z"/><path d="M387,396.34h2.21l6.05,31.16h-2l-1.63-8.9H372.87l-6.45,8.9h-2.2Zm3.73,20-3.27-17.65-12.81,17.65Z"/><path d="M402.46,417.24a14,14,0,0,1,4.14-9.81,12.75,12.75,0,0,1,8.93-3.87,9.33,9.33,0,0,1,8.72,5.35l-1.79,1c-1.35-2.36-3.36-4.36-7.06-4.36a10.19,10.19,0,0,0-7.1,3.13,12,12,0,0,0-3.53,8.41,7.31,7.31,0,0,0,7.49,7.72,10.23,10.23,0,0,0,7.19-3.19l1.44,1.4a12.35,12.35,0,0,1-8.76,3.79A9.41,9.41,0,0,1,402.46,417.24Z"/><path d="M430.64,422.29a10.71,10.71,0,0,1,.26-2.14l3.79-14.9h-3.22L432,403h3.35l1.8-6.68h2L437.34,403H445l-.52,2.23h-7.67L433,420.19a9.61,9.61,0,0,0-.22,1.88c0,1.83,1.39,2.66,3.62,2.66a9,9,0,0,0,3.22-.7l-.57,2.09a8.18,8.18,0,0,1-3.13.57C433,426.69,430.64,425.34,430.64,422.29Z"/><path d="M453.78,403h2.13l-6,22.26H447.8Zm2.08-6.68h2.66l-.78,2.23h-2.66Z"/><path d="M484.79,413.4a13.56,13.56,0,0,1-4.05,9.46,13.13,13.13,0,0,1-9.15,4A9.46,9.46,0,0,1,461.7,417a13.52,13.52,0,0,1,4.05-9.45,13.09,13.09,0,0,1,9.15-4A9.46,9.46,0,0,1,484.79,413.4ZM479,421.63a11.62,11.62,0,0,0,3.48-8.14c0-5-3.18-7.93-7.8-7.93a10.33,10.33,0,0,0-7.19,3.18,11.63,11.63,0,0,0-3.48,8.15c0,5,3.18,7.93,7.8,7.93A10.34,10.34,0,0,0,479,421.63Z"/><path d="M496.24,403h2.12l-1.09,4.15c2.19-2.62,4.67-4.67,8.43-4.67,4.4,0,7.29,2.79,7.29,7.06a13.88,13.88,0,0,1-.49,3.15l-3.31,12.57H507l3.4-11.71a11.69,11.69,0,0,0,.35-2.74c0-3.31-2.18-5.36-5.71-5.36-3.79,0-8,3.44-9.28,8.28l-3.35,13.75h-2.14Z"/><path d="M163.67,227.19h53.9c31.6,0,50.71,18.9,50.71,46.17v.38c0,30.92-23.85,46.93-53.54,46.93H192.61v40.06H163.67ZM217.09,294c14,0,22.26-8.73,22.26-20.1v-.13c0-12.91-9.2-19.83-24-19.83H192.61V294Z"/><path d="M281.64,227.19H381.79V253.9H310.57v26.71h62.32v24.48H310.57V334h71.22v26.71H281.64Z"/><path d="M390.7,294.24v-.4c0-38.48,29-70,70.64-70,25.54,0,40.84,8.5,53.41,20.87l-19,21.87c-10.45-9.49-21.09-15.28-34.64-15.28-22.82,0-39.28,19-39.28,42.18v3.36c0,21.24,16.74,39.12,38,39.58,16.26.36,26-5.91,36.91-15.86l19,19.17c-13.92,14.9-29.42,24.18-55.53,24.18C420.33,363.9,390.7,333.13,390.7,294.24Z"/><path d="M105.8,303.19c0,21.06-10.92,31.86-28.93,31.86s-28.94-11.18-28.94-32.8V227.19H19V303c0,39,21.82,58.94,57.49,58.94s58.25-19.72,58.25-59.91l.23-90.52-29.17,9.94v81.72Z"/><polygon class="cls-1" points="134.74 134.92 134.74 209.66 134.78 211.54 510.89 85.19 510.89 8.49 134.74 134.92"/><polygon points="564.3 425.28 559.85 425.28 559.85 162.64 564.3 162.64 564.3 425.28"/></svg>