<?xml version="1.0" encoding="UTF-8"?> <svg xmlns="http://www.w3.org/2000/svg" xmlns:xlink="http://www.w3.org/1999/xlink" version="1.1" id="Calque_1" x="0px" y="0px" viewBox="0 0 415.6 140.6" style="enable-background:new 0 0 415.6 140.6;" xml:space="preserve"> <style type="text/css"> .st0{fill:#FF2B44;} .st1{fill:#878787;} </style> <g id="Calque_2_00000075845093054678984490000017948081504108244116_"> <rect x="179.3" y="6.2" class="st0" width="18.8" height="18.8"></rect> <g> <path class="st1" d="M282.4,43.5c2,0,3.6,0.4,4.8,1.3c1.2,0.8,1.9,2.1,1.9,3.9c0,1-0.3,1.8-0.8,2.6c-0.5,0.8-1.3,1.3-2.2,1.7 c1.1,0.4,2,1,2.6,1.8c0.6,0.8,0.9,1.8,0.9,3c0,1.3-0.3,2.3-1,3.1c-0.6,0.8-1.5,1.4-2.6,1.8c-1.1,0.4-2.3,0.6-3.7,0.6h-8.9V43.5 L282.4,43.5L282.4,43.5z M284.4,51c0.6-0.4,0.8-1,0.8-1.8c0-0.8-0.3-1.4-0.8-1.8c-0.5-0.4-1.3-0.5-2.3-0.5h-4.6v4.6h4.6 C283.1,51.5,283.9,51.4,284.4,51z M284.9,59.1c0.6-0.4,1-1,1-1.9c0-0.8-0.3-1.4-0.9-1.8c-0.6-0.4-1.4-0.6-2.4-0.6h-4.9v4.9h4.7 C283.4,59.7,284.2,59.5,284.9,59.1z"></path> <path class="st1" d="M295.9,62.7c-1.1-0.6-1.9-1.4-2.4-2.4c-0.6-1.1-0.8-2.3-0.8-3.7v-8.8h3.9v9c0,1,0.3,1.8,0.9,2.4 c0.6,0.6,1.3,0.9,2.3,0.9s1.7-0.3,2.3-0.9s0.9-1.4,0.9-2.4v-9h3.9v8.8c0,1.4-0.3,2.7-0.8,3.7c-0.6,1.1-1.4,1.9-2.4,2.4 c-1.1,0.6-2.3,0.9-3.7,0.9S297,63.2,295.9,62.7z"></path> <path class="st1" d="M312.6,63.2c-1-0.2-1.9-0.6-2.6-1v-3.5h0.2c0.7,0.5,1.6,0.8,2.5,1.1s1.9,0.4,2.8,0.4c0.7,0,1.2-0.1,1.7-0.4 c0.5-0.2,0.7-0.6,0.7-1.1c0-0.4-0.1-0.7-0.4-0.9s-0.7-0.4-1.2-0.5l-2.4-0.6c-1.3-0.3-2.3-0.9-3-1.6c-0.8-0.7-1.1-1.7-1.1-2.8 c0-1.1,0.3-2,0.8-2.7s1.3-1.3,2.2-1.7c0.9-0.4,2-0.6,3.1-0.6c0.9,0,1.9,0.1,2.8,0.3s1.7,0.6,2.4,1v3.5h-0.2 c-0.7-0.5-1.5-0.9-2.3-1.1c-0.9-0.3-1.8-0.4-2.6-0.4c-0.6,0-1.2,0.1-1.6,0.3c-0.4,0.2-0.7,0.6-0.7,1.1c0,0.4,0.1,0.7,0.4,0.9 s0.7,0.4,1.2,0.5l2.3,0.6c1.2,0.3,2.2,0.8,3,1.6c0.8,0.8,1.2,1.7,1.2,2.8c0,1.1-0.3,2-0.8,2.8c-0.5,0.7-1.3,1.3-2.2,1.6 s-2,0.5-3.2,0.5C314.5,63.5,313.6,63.4,312.6,63.2z"></path> <path class="st1" d="M325.4,46.3c-0.4-0.2-0.6-0.5-0.8-0.8c-0.2-0.3-0.3-0.7-0.3-1.2c0-0.7,0.2-1.2,0.7-1.6c0.4-0.4,1-0.6,1.7-0.6 s1.2,0.2,1.7,0.6c0.5,0.4,0.7,0.9,0.7,1.6c0,0.4-0.1,0.8-0.3,1.2s-0.5,0.6-0.8,0.8c-0.4,0.2-0.8,0.3-1.2,0.3 C326.1,46.6,325.7,46.5,325.4,46.3z M328.5,47.7v15.4h-3.9V47.7H328.5z"></path> <path class="st1" d="M336.1,47.7v2c0.5-0.8,1.1-1.4,1.9-1.8s1.7-0.6,2.7-0.6c1.1,0,2,0.2,2.8,0.7c0.8,0.4,1.5,1.1,1.9,1.9 c0.5,0.8,0.7,1.8,0.7,2.8v10.4h-3.9V54c0-1-0.3-1.8-0.8-2.4c-0.5-0.6-1.3-0.9-2.2-0.9c-0.7,0-1.2,0.1-1.7,0.4 c-0.5,0.3-0.9,0.7-1.1,1.2c-0.3,0.5-0.4,1.1-0.4,1.7v9.1h-3.9V47.7H336.1z"></path> <path class="st1" d="M352.8,62.5c-1.2-0.7-2.1-1.6-2.8-2.8c-0.7-1.2-1-2.7-1-4.3c0-1.6,0.3-3,1-4.2s1.5-2.2,2.7-2.9 c1.2-0.7,2.5-1,4.1-1c1.5,0,2.8,0.3,3.8,1s1.9,1.6,2.4,2.8c0.5,1.2,0.8,2.6,0.8,4.2c0,0.2,0,0.5,0,0.7c0,0.3,0,0.5-0.1,0.7H353 c0.1,0.8,0.3,1.4,0.7,1.9s1,0.9,1.6,1.2s1.4,0.4,2.2,0.4c1,0,1.9-0.1,2.9-0.4s1.8-0.6,2.6-1.1h0.2v3.5c-0.9,0.5-1.8,0.8-2.9,1 s-2.2,0.4-3.3,0.4C355.5,63.5,354,63.2,352.8,62.5z M359.2,51.4c-0.6-0.6-1.4-0.9-2.4-0.9c-1.1,0-2,0.3-2.7,0.9s-1.1,1.4-1.2,2.5 h7.1C360,52.8,359.8,52,359.2,51.4z"></path> <path class="st1" d="M369.2,63.2c-1-0.2-1.9-0.6-2.6-1v-3.5h0.2c0.7,0.5,1.6,0.8,2.5,1.1s1.9,0.4,2.8,0.4c0.7,0,1.2-0.1,1.7-0.4 c0.5-0.2,0.7-0.6,0.7-1.1c0-0.4-0.1-0.7-0.4-0.9s-0.7-0.4-1.2-0.5l-2.4-0.6c-1.3-0.3-2.3-0.9-3-1.6c-0.8-0.7-1.1-1.7-1.1-2.8 c0-1.1,0.3-2,0.8-2.7s1.3-1.3,2.2-1.7c0.9-0.4,2-0.6,3.1-0.6c0.9,0,1.9,0.1,2.8,0.3s1.7,0.6,2.4,1v3.5h-0.2 c-0.7-0.5-1.5-0.9-2.3-1.1c-0.9-0.3-1.8-0.4-2.6-0.4c-0.6,0-1.2,0.1-1.6,0.3c-0.4,0.2-0.7,0.6-0.7,1.1c0,0.4,0.1,0.7,0.4,0.9 s0.7,0.4,1.2,0.5l2.3,0.6c1.2,0.3,2.2,0.8,3,1.6c0.8,0.8,1.2,1.7,1.2,2.8c0,1.1-0.3,2-0.8,2.8c-0.5,0.7-1.3,1.3-2.2,1.6 s-2,0.5-3.2,0.5C371.1,63.5,370.1,63.4,369.2,63.2z"></path> <path class="st1" d="M383.2,63.2c-1-0.2-1.9-0.6-2.6-1v-3.5h0.2c0.7,0.5,1.6,0.8,2.5,1.1s1.9,0.4,2.8,0.4c0.7,0,1.2-0.1,1.7-0.4 c0.5-0.2,0.7-0.6,0.7-1.1c0-0.4-0.1-0.7-0.4-0.9s-0.7-0.4-1.2-0.5l-2.4-0.6c-1.3-0.3-2.3-0.9-3-1.6c-0.8-0.7-1.1-1.7-1.1-2.8 c0-1.1,0.3-2,0.8-2.7s1.3-1.3,2.2-1.7c0.9-0.4,2-0.6,3.1-0.6c0.9,0,1.9,0.1,2.8,0.3s1.7,0.6,2.4,1v3.5h-0.2 c-0.7-0.5-1.5-0.9-2.3-1.1c-0.9-0.3-1.8-0.4-2.6-0.4c-0.6,0-1.2,0.1-1.6,0.3c-0.4,0.2-0.7,0.6-0.7,1.1c0,0.4,0.1,0.7,0.4,0.9 s0.7,0.4,1.2,0.5l2.3,0.6c1.2,0.3,2.2,0.8,3,1.6c0.8,0.8,1.2,1.7,1.2,2.8c0,1.1-0.3,2-0.8,2.8c-0.5,0.7-1.3,1.3-2.2,1.6 s-2,0.5-3.2,0.5C385.1,63.5,384.2,63.4,383.2,63.2z"></path> <path class="st1" d="M276.3,99.2c-1.2-0.2-2.2-0.6-3.2-1.1v-3.7h0.2c1,0.5,2,0.9,3.3,1.1c1.2,0.3,2.4,0.4,3.5,0.4 c1,0,1.8-0.2,2.5-0.6c0.7-0.4,1.1-0.9,1.1-1.7c0-0.6-0.3-1-0.8-1.4s-1.2-0.6-2.1-0.8l-3.2-0.8c-1.5-0.4-2.8-1-3.6-1.9 c-0.9-0.9-1.3-2.1-1.3-3.6c0-1.4,0.4-2.5,1.1-3.4c0.7-0.9,1.7-1.6,2.9-2c1.2-0.4,2.5-0.7,4-0.7c2.3,0,4.4,0.5,6.1,1.4v3.7h-0.2 c-0.9-0.5-1.9-0.9-3-1.1s-2.2-0.4-3.3-0.4c-0.6,0-1.1,0.1-1.6,0.2c-0.5,0.2-1,0.4-1.3,0.7s-0.5,0.7-0.5,1.2c0,0.6,0.2,1.1,0.7,1.4 c0.5,0.3,1.1,0.6,1.9,0.8l3.1,0.8c1.6,0.4,2.8,1.1,3.8,2s1.4,2.1,1.4,3.6c0,1.4-0.4,2.5-1.1,3.4s-1.7,1.6-2.9,2 c-1.2,0.4-2.6,0.7-4.1,0.7C278.6,99.5,277.4,99.4,276.3,99.2z"></path> <path class="st1" d="M293.8,98.5c-1.2-0.7-2.2-1.7-2.9-2.9s-1-2.6-1-4.2s0.3-3,1-4.2s1.6-2.2,2.9-2.9c1.2-0.7,2.6-1,4.1-1 c0.9,0,1.7,0.1,2.5,0.4c0.8,0.2,1.5,0.6,2.2,1v3.5h-0.2c-0.6-0.5-1.2-0.8-1.9-1s-1.5-0.3-2.2-0.3c-0.9,0-1.7,0.2-2.4,0.6 s-1.2,0.9-1.6,1.6c-0.4,0.7-0.5,1.5-0.5,2.4c0,0.9,0.2,1.7,0.5,2.4s0.9,1.2,1.6,1.6s1.5,0.6,2.4,0.6c0.8,0,1.5-0.1,2.2-0.4 c0.7-0.2,1.4-0.6,1.9-1h0.2v3.5c-0.7,0.5-1.4,0.8-2.2,1s-1.6,0.4-2.5,0.4C296.4,99.5,295.1,99.2,293.8,98.5z"></path> <path class="st1" d="M309.5,78.8v6.9c0.5-0.8,1.1-1.4,1.9-1.8s1.7-0.6,2.7-0.6c1.1,0,2,0.2,2.8,0.7c0.8,0.4,1.5,1.1,1.9,1.9 c0.5,0.8,0.7,1.8,0.7,2.8v10.4h-3.9V90c0-1-0.3-1.8-0.8-2.4c-0.5-0.6-1.3-0.9-2.2-0.9c-0.7,0-1.2,0.1-1.7,0.4 c-0.5,0.3-0.9,0.6-1.1,1.1c-0.3,0.5-0.4,1.1-0.4,1.7v9.1h-3.9V78.8H309.5z"></path> <path class="st1" d="M326.3,98.5c-1.2-0.7-2.2-1.6-2.8-2.9s-1-2.6-1-4.2c0-1.6,0.3-3,1-4.2s1.6-2.2,2.8-2.9s2.6-1,4.2-1 s3,0.3,4.2,1s2.2,1.6,2.8,2.9s1,2.6,1,4.2c0,1.6-0.3,3-1,4.2s-1.6,2.2-2.8,2.9s-2.6,1-4.2,1C328.9,99.5,327.5,99.2,326.3,98.5z M332.7,95.4c0.6-0.4,1.1-1,1.5-1.7c0.4-0.7,0.5-1.5,0.5-2.3s-0.2-1.6-0.5-2.3c-0.4-0.7-0.8-1.2-1.5-1.6c-0.6-0.4-1.4-0.6-2.2-0.6 c-0.8,0-1.6,0.2-2.2,0.6s-1.1,1-1.5,1.6c-0.4,0.7-0.5,1.5-0.5,2.3s0.2,1.6,0.5,2.3c0.4,0.7,0.8,1.3,1.5,1.7 c0.6,0.4,1.4,0.6,2.2,0.6S332,95.8,332.7,95.4z"></path> <path class="st1" d="M344.6,98.5c-1.2-0.7-2.2-1.6-2.8-2.9s-1-2.6-1-4.2c0-1.6,0.3-3,1-4.2s1.6-2.2,2.8-2.9s2.6-1,4.2-1 s3,0.3,4.2,1s2.2,1.6,2.8,2.9s1,2.6,1,4.2c0,1.6-0.3,3-1,4.2s-1.6,2.2-2.8,2.9s-2.6,1-4.2,1S345.8,99.2,344.6,98.5z M351,95.4 c0.6-0.4,1.1-1,1.5-1.7c0.4-0.7,0.5-1.5,0.5-2.3s-0.2-1.6-0.5-2.3c-0.4-0.7-0.8-1.2-1.5-1.6c-0.6-0.4-1.4-0.6-2.2-0.6 c-0.8,0-1.6,0.2-2.2,0.6s-1.1,1-1.5,1.6c-0.4,0.7-0.5,1.5-0.5,2.3s0.2,1.6,0.5,2.3c0.4,0.7,0.8,1.3,1.5,1.7 c0.6,0.4,1.4,0.6,2.2,0.6C349.6,96,350.3,95.8,351,95.4z"></path> <path class="st1" d="M363.6,78.8v20.3h-3.9V78.8H363.6z"></path> <path class="st1" d="M277.7,115.5v16.1h9v3.5h-13v-19.6H277.7z"></path> <path class="st1" d="M291.6,134.4c-1-0.7-1.9-1.7-2.4-2.9c-0.6-1.2-0.8-2.6-0.8-4c0-1.5,0.3-2.8,0.8-4s1.4-2.2,2.4-2.9 c1-0.7,2.3-1.1,3.7-1.1c1,0,1.9,0.2,2.8,0.6s1.5,1,2,1.8v-2.1h3.9v15.4h-3.9V133c-0.5,0.8-1.2,1.4-2,1.8s-1.8,0.6-2.8,0.6 C293.8,135.5,292.6,135.1,291.6,134.4z M298.3,131.4c0.6-0.4,1.1-1,1.4-1.7s0.5-1.5,0.5-2.3c0-0.8-0.2-1.6-0.5-2.3 s-0.8-1.2-1.4-1.7s-1.3-0.6-2.1-0.6c-0.8,0-1.5,0.2-2.1,0.6c-0.6,0.4-1.1,1-1.4,1.7c-0.3,0.7-0.5,1.5-0.5,2.3 c0,0.9,0.2,1.6,0.5,2.3c0.3,0.7,0.8,1.2,1.4,1.7c0.6,0.4,1.3,0.6,2.1,0.6C297,132,297.7,131.8,298.3,131.4z"></path> <path class="st1" d="M310.8,134.7c-1.1-0.6-1.9-1.4-2.4-2.4c-0.6-1.1-0.8-2.3-0.8-3.7v-8.8h3.9v9c0,1,0.3,1.8,0.9,2.4 c0.6,0.6,1.3,0.9,2.3,0.9s1.7-0.3,2.3-0.9c0.6-0.6,0.9-1.4,0.9-2.4v-9h3.9v8.8c0,1.4-0.3,2.7-0.8,3.7c-0.6,1.1-1.4,1.9-2.4,2.4 c-1.1,0.6-2.3,0.9-3.7,0.9S311.9,135.2,310.8,134.7z"></path> <path class="st1" d="M327.5,135.2c-1-0.2-1.9-0.6-2.6-1v-3.5h0.2c0.7,0.5,1.6,0.8,2.5,1.1s1.9,0.4,2.8,0.4c0.7,0,1.2-0.1,1.7-0.4 c0.5-0.2,0.7-0.6,0.7-1.1c0-0.4-0.1-0.7-0.4-0.9c-0.3-0.2-0.7-0.4-1.2-0.5l-2.4-0.6c-1.3-0.3-2.3-0.9-3-1.6 c-0.8-0.7-1.1-1.7-1.1-2.8c0-1.1,0.3-2,0.8-2.7s1.3-1.3,2.2-1.7c0.9-0.4,2-0.6,3.1-0.6c0.9,0,1.9,0.1,2.8,0.4s1.7,0.6,2.4,1v3.5 h-0.2c-0.7-0.5-1.5-0.9-2.3-1.1c-0.9-0.3-1.8-0.4-2.6-0.4c-0.6,0-1.2,0.1-1.6,0.4c-0.4,0.2-0.7,0.6-0.7,1.1c0,0.4,0.1,0.7,0.4,0.9 c0.3,0.2,0.7,0.4,1.2,0.5l2.3,0.6c1.2,0.3,2.2,0.8,3,1.6c0.8,0.8,1.2,1.7,1.2,2.8s-0.3,2.1-0.8,2.8c-0.5,0.7-1.3,1.3-2.2,1.6 s-2,0.5-3.2,0.5C329.4,135.5,328.5,135.4,327.5,135.2z"></path> <path class="st1" d="M342.1,134.4c-1-0.7-1.9-1.7-2.4-2.9c-0.6-1.2-0.8-2.6-0.8-4c0-1.5,0.3-2.8,0.8-4s1.4-2.2,2.4-2.9 c1-0.7,2.3-1.1,3.7-1.1c1,0,1.9,0.2,2.8,0.6s1.5,1,2,1.8v-2.1h3.9v15.4h-3.9V133c-0.5,0.8-1.2,1.4-2,1.8s-1.8,0.6-2.8,0.6 C344.4,135.5,343.1,135.1,342.1,134.4z M348.8,131.4c0.6-0.4,1.1-1,1.4-1.7s0.5-1.5,0.5-2.3c0-0.8-0.2-1.6-0.5-2.3 s-0.8-1.2-1.4-1.7s-1.3-0.6-2.1-0.6c-0.8,0-1.5,0.2-2.1,0.6c-0.6,0.4-1.1,1-1.4,1.7c-0.3,0.7-0.5,1.5-0.5,2.3 c0,0.9,0.2,1.6,0.5,2.3c0.3,0.7,0.8,1.2,1.4,1.7c0.6,0.4,1.3,0.6,2.1,0.6C347.5,132,348.2,131.8,348.8,131.4z"></path> <path class="st1" d="M362.1,119.7v2c0.5-0.8,1.1-1.4,1.9-1.8s1.7-0.6,2.7-0.6c1.1,0,2,0.2,2.8,0.7c0.8,0.4,1.5,1.1,1.9,1.9 c0.5,0.8,0.7,1.8,0.7,2.8v10.4h-3.9V126c0-1-0.3-1.8-0.8-2.4c-0.5-0.6-1.3-0.9-2.2-0.9c-0.7,0-1.2,0.1-1.7,0.4 c-0.5,0.3-0.9,0.6-1.1,1.1c-0.3,0.5-0.4,1.1-0.4,1.7v9.1h-3.9v-15.4H362.1z"></path> <path class="st1" d="M379.6,119.7v2c0.5-0.8,1.1-1.4,1.9-1.8s1.7-0.6,2.7-0.6c1.1,0,2,0.2,2.8,0.7c0.8,0.4,1.5,1.1,1.9,1.9 c0.5,0.8,0.7,1.8,0.7,2.8v10.4h-3.9V126c0-1-0.3-1.8-0.8-2.4c-0.5-0.6-1.3-0.9-2.2-0.9c-0.7,0-1.2,0.1-1.7,0.4 c-0.5,0.3-0.9,0.6-1.1,1.1c-0.3,0.5-0.4,1.1-0.4,1.7v9.1h-3.9v-15.4H379.6z"></path> <path class="st1" d="M396.4,134.5c-1.2-0.7-2.1-1.6-2.8-2.8c-0.7-1.2-1-2.6-1-4.3c0-1.6,0.3-3,1-4.2s1.5-2.2,2.7-2.9 c1.2-0.7,2.5-1,4.1-1c1.5,0,2.8,0.3,3.8,1s1.9,1.6,2.4,2.8s0.8,2.6,0.8,4.1c0,0.2,0,0.5,0,0.7c0,0.3,0,0.5-0.1,0.7h-10.7 c0.1,0.8,0.3,1.4,0.7,1.9s1,0.9,1.6,1.2s1.4,0.4,2.2,0.4c1,0,1.9-0.1,2.9-0.4s1.8-0.6,2.6-1.1h0.2v3.5c-0.9,0.5-1.8,0.8-2.9,1 s-2.2,0.4-3.3,0.4C399,135.5,397.6,135.2,396.4,134.5z M402.8,123.4c-0.6-0.6-1.4-0.9-2.4-0.9c-1.1,0-2,0.3-2.7,0.9 s-1.1,1.4-1.2,2.5h7.1C403.6,124.8,403.3,124,402.8,123.4z"></path> </g> <path class="st0" d="M48.5,43.7c9.2,0,16.7,1.9,22.4,5.8s8.6,9.9,8.6,17.9c0,4.5-1.2,8.5-3.7,12s-5.8,6.2-10.1,8 c5.3,1.8,9.3,4.5,12.2,8.2c2.9,3.7,4.3,8.3,4.3,13.7c0,5.8-1.5,10.6-4.4,14.3s-6.9,6.4-11.9,8.2s-10.6,2.6-16.9,2.6h-41V43.7 L48.5,43.7L48.5,43.7z M57.6,78.3c2.6-1.7,3.9-4.4,3.9-8.1c0-3.8-1.2-6.6-3.8-8.2c-2.5-1.6-6-2.5-10.4-2.5H26.1v21.4h21.4 C51.6,80.9,55,80.1,57.6,78.3z M59.6,115.8c3-1.8,4.5-4.8,4.5-8.9c0-3.8-1.4-6.5-4.3-8.4c-2.9-1.8-6.6-2.8-10.9-2.8H26.1v22.8h21.8 C52.7,118.6,56.7,117.7,59.6,115.8z"></path> <path class="st0" d="M111.6,134.7c-5.4-1.2-10.2-2.9-14.6-5.1v-17.3H98c4.4,2.2,9.4,4,15.1,5.2c5.7,1.2,11.1,1.9,16.3,1.9 c4.5,0,8.4-0.9,11.7-2.6c3.3-1.7,5-4.3,5-7.9c0-2.7-1.2-4.8-3.6-6.2c-2.4-1.5-5.6-2.8-9.5-3.8l-14.6-3.6c-7.1-1.8-12.7-4.8-16.8-9 s-6-9.7-6-16.5c0-6.2,1.6-11.5,5-15.7c3.3-4.2,7.7-7.3,13.3-9.4c5.5-2.1,11.7-3.1,18.5-3.1c10.7,0,20.1,2.2,28.1,6.7v17.3h-1.1 c-4.2-2.3-8.8-4.1-13.9-5.2c-5.1-1.2-10.1-1.7-15.1-1.7c-2.7,0-5.2,0.4-7.6,1.1c-2.4,0.7-4.4,1.8-6,3.4c-1.6,1.5-2.4,3.4-2.4,5.8 c0,2.8,1.1,4.9,3.4,6.4c2.2,1.5,5.2,2.7,8.8,3.6l14.5,3.6c7.3,1.9,13.1,4.9,17.4,9.2s6.4,9.7,6.4,16.4c0,6.2-1.7,11.5-5.1,15.8 c-3.4,4.2-7.9,7.4-13.6,9.4c-5.7,2.1-11.9,3.1-18.8,3.1C122.2,136.4,116.9,135.8,111.6,134.7z"></path> <path class="st0" d="M198,43.7V118h37.5v16.4h-56.3V43.7H198z"></path> <rect x="179.3" y="43.7" class="st0" width="18.8" height="18.8"></rect> <rect x="216.8" y="43.7" class="st0" width="18.8" height="18.8"></rect> <rect x="235.6" y="24.9" class="st0" width="18.8" height="18.8"></rect> <rect x="216.8" y="6.2" class="st0" width="18.8" height="18.8"></rect> </g> </svg> 