<svg xmlns="http://www.w3.org/2000/svg" viewBox="0 0 251 34"><path fill="#565655" d="M182.3 404.8h-2.2v-5.6h-5.9v5.6H172v-13.1h2.2v5.8h5.9v-5.8h2.2v13.1zm13.6-5.3c0 1.6-.5 2.9-1.5 4s-2.3 1.5-3.9 1.5c-1.5 0-2.8-.5-3.8-1.5-1-1.1-1.5-2.4-1.5-4v-2.4c0-1.6.5-2.9 1.5-4s2.3-1.5 3.8-1.5c1.6 0 2.9.5 3.9 1.5 1 1.1 1.5 2.4 1.5 4v2.4zm-2.2-2.4c0-1.1-.3-2-.9-2.7-.5-.7-1.4-1.1-2.4-1.1s-1.7.4-2.3 1.1c-.5.7-.8 1.6-.8 2.7v2.4c0 1.1.3 2 .8 2.7s1.4 1.1 2.3 1.1c1 0 1.8-.4 2.4-1.1.6-.7.9-1.6.9-2.7v-2.4zm14.6 3.4c0 1.4-.4 2.4-1.3 3.3-.9.8-2.1 1.3-3.6 1.3s-2.8-.5-3.7-1.5c-1-1-1.5-2.4-1.5-4V397c0-1.6.5-2.9 1.5-4 .9-1 2.2-1.5 3.7-1.5s2.8.4 3.6 1.2c.9.8 1.4 1.9 1.3 3.3v.1h-2.1c0-.9-.3-1.5-.7-2.1-.5-.5-1.2-.7-2.1-.7-.9 0-1.6.4-2.1 1.1s-.8 1.6-.8 2.6v2.5c0 1.1.3 2 .8 2.7s1.3 1.1 2.2 1.1 1.6-.3 2.1-.7c.5-.5.7-1.2.7-2.1h2zm13.2 4.3h-2.2v-5.6h-5.9v5.6h-2.2v-13.1h2.2v5.8h5.9v-5.8h2.2v13.1zm10.7-3.3c0-.5-.2-1-.6-1.4-.5-.4-1.1-.6-2.2-.9-1.5-.4-2.6-.9-3.4-1.5-.8-.6-1.2-1.5-1.2-2.4 0-1.1.5-1.9 1.3-2.6.9-.7 2-1 3.4-1 1.5 0 2.6.4 3.4 1.2.8.8 1.3 1.7 1.3 2.8v.1h-2.1c0-.6-.3-1.2-.7-1.6s-1.1-.6-2-.6c-.8 0-1.5.2-1.8.5-.5.4-.6.8-.6 1.4 0 .5.3.9.7 1.3.5.4 1.3.6 2.3.9 1.5.4 2.4.9 3.2 1.5.7.6 1.1 1.5 1.1 2.5 0 1.1-.5 2-1.3 2.6-.9.6-2 1-3.4 1s-2.5-.4-3.6-1.1c-1-.7-1.5-1.7-1.5-3v-.2h2.1c0 .8.3 1.4.8 1.8s1.3.5 2.2.5c.8 0 1.5-.2 1.9-.5.5-.3.7-.8.7-1.3zm14.8-1c0 1.4-.4 2.4-1.3 3.3-.9.8-2.1 1.3-3.6 1.3s-2.8-.5-3.7-1.5c-1-1-1.5-2.4-1.5-4V397c0-1.6.5-2.9 1.5-4 .9-1 2.2-1.5 3.7-1.5s2.8.4 3.6 1.2c.9.8 1.4 1.9 1.3 3.3v.1h-2.1c0-.9-.3-1.5-.7-2.1-.5-.5-1.2-.7-2.1-.7s-1.6.4-2.1 1.1-.8 1.6-.8 2.6v2.5c0 1.1.3 2 .8 2.7s1.3 1.1 2.2 1.1 1.6-.3 2.1-.7c.5-.5.7-1.2.7-2.1h2zm13.5 4.3h-2.2v-5.6h-5.9v5.6h-2.2v-13.1h2.2v5.8h5.9v-5.8h2.2v13.1zm13.5-13v8.8c0 1.5-.5 2.5-1.5 3.4-.9.8-2.2 1.2-3.7 1.2s-2.7-.4-3.6-1.2-1.4-1.9-1.4-3.4v-8.8h2.2v8.8c0 .9.3 1.6.8 2.1s1.2.7 2.1.7 1.6-.3 2.2-.7c.5-.5.8-1.2.8-2.1v-8.8h2.1zm5.6 11.3h6v1.7h-8.3v-13.1h2.2l.1 11.4zm16.3-4.2h-5.7v4.2h6.6v1.7H288v-13.1h8.8v1.7h-6.6v3.7h5.7v1.8zm19.6.6c0 1.6-.5 2.9-1.5 4s-2.3 1.5-3.9 1.5c-1.5 0-2.8-.5-3.8-1.5-1-1.1-1.5-2.4-1.5-4v-2.4c0-1.6.5-2.9 1.5-4s2.3-1.5 3.8-1.5c1.6 0 2.9.5 3.9 1.5 1 1.1 1.5 2.4 1.5 4v2.4zm-2.1-2.4c0-1.1-.3-2-.9-2.7-.5-.7-1.4-1.1-2.4-1.1s-1.7.4-2.3 1.1c-.5.7-.8 1.6-.8 2.7v2.4c0 1.1.3 2 .8 2.7s1.4 1.1 2.3 1.1c1 0 1.8-.4 2.4-1.1.5-.7.9-1.6.9-2.7v-2.4zm12.6 4.4c0-.5-.2-1-.6-1.4s-1.1-.6-2.2-.9c-1.5-.4-2.6-.9-3.4-1.5s-1.2-1.5-1.2-2.4c0-1.1.5-1.9 1.3-2.6.9-.7 2-1 3.4-1 1.5 0 2.6.4 3.4 1.2s1.3 1.7 1.3 2.8v.1h-2.1c0-.6-.3-1.2-.7-1.6-.5-.5-1.1-.6-2-.6-.8 0-1.5.2-1.8.5-.5.4-.6.8-.6 1.4 0 .5.3.9.7 1.3.5.4 1.3.6 2.3.9 1.5.4 2.4.9 3.2 1.5.8.6 1.1 1.5 1.1 2.5 0 1.1-.5 2-1.3 2.6-.9.6-2 1-3.4 1s-2.5-.4-3.6-1.1c-1-.7-1.5-1.7-1.5-3v-.2h2.1c0 .8.3 1.4.8 1.8s1.3.5 2.2.5c.8 0 1.5-.2 1.9-.5.6-.3.7-.8.7-1.3zm15.8 3.3h-2.2l-5.8-9.6h-.1v9.5h-2.2v-13.1h2.2l5.8 9.5h.1v-9.5h2.2v13.2zm11.3-3.1h-5.2l-1.1 3.1h-2.1l4.8-13.1h2.1l4.8 13.1h-2.3l-1-3.1zm-4.5-1.8h3.9l-1.9-5.6h-.1l-1.9 5.6zm10.6 4.9v-13.1h4.4c1.5 0 2.6.3 3.4.9s1.3 1.5 1.3 2.7c0 .6-.2 1.1-.5 1.6-.4.5-.8.8-1.5 1.1.8.2 1.4.5 1.8 1.1s.6 1.3.6 2c0 1.3-.4 2.2-1.2 2.8-.8.6-1.9 1-3.4 1l-4.9-.1zm2.3-7.6h2.4c.6 0 1.2-.2 1.6-.5.4-.4.6-.8.6-1.4s-.2-1.1-.6-1.5c-.5-.3-1-.5-1.8-.5h-2.3l.1 3.9zm0 1.6v4.2h2.7c.7 0 1.4-.2 1.7-.5.4-.4.6-.8.6-1.5s-.2-1.3-.5-1.6c-.4-.4-.9-.5-1.6-.5l-2.9-.1zm13 .6v5.4h-2.2v-13.1h4.8c1.5 0 2.6.4 3.4 1 .7.6 1.2 1.6 1.2 2.8 0 .6-.2 1.3-.5 1.7-.4.5-.9.9-1.5 1.2.7.3 1.3.6 1.6 1.2s.5 1.2.5 2v1.1c0 .4.1.7.2 1.1s.3.6.5.8v.2h-2.3c-.3-.2-.4-.5-.5-.9-.1-.5-.1-.8-.1-1.3v-1.1c0-.6-.2-1.2-.5-1.6-.4-.4-.9-.6-1.5-.6l-3.1.1zm0-1.7h2.5c.9 0 1.5-.2 1.9-.5.4-.4.6-.8.6-1.5 0-.6-.2-1.2-.6-1.5-.4-.4-1-.5-1.8-.5h-2.6v4zm21-5.9v8.8c0 1.5-.5 2.5-1.5 3.4-.9.8-2.2 1.2-3.7 1.2s-2.7-.4-3.6-1.2-1.4-1.9-1.4-3.4v-8.8h2.2v8.8c0 .9.3 1.6.8 2.1s1.2.7 2.1.7 1.6-.3 2.2-.7c.5-.5.8-1.2.8-2.1v-8.8h2.1zm-6.1-1.4h-2.2v-1.8h2.2v1.8zm4.3 0h-2.2v-1.8h2.2v1.8zm15.1 10.1c0 1.4-.4 2.4-1.3 3.3-.9.8-2.1 1.3-3.6 1.3s-2.8-.5-3.7-1.5c-1-1-1.5-2.4-1.5-4V397c0-1.6.5-2.9 1.5-4 .9-1 2.2-1.5 3.7-1.5s2.8.4 3.6 1.2c.9.8 1.4 1.9 1.3 3.3v.1h-2.1c0-.9-.3-1.5-.7-2.1-.5-.5-1.2-.7-2.1-.7s-1.6.4-2.1 1.1-.8 1.6-.8 2.6v2.5c0 1.1.3 2 .8 2.7s1.3 1.1 2.2 1.1c.9 0 1.6-.3 2.1-.7.5-.5.7-1.2.7-2.1h2zm7.2-1.3h-1.5v5.7h-2.2v-13.1h2.2v5.5h1.4l4.1-5.5h2.6l-4.8 6.3 5.2 6.9h-2.6l-4.4-5.8zm-198.4 16.7v4.4c0 .7-.2 1.3-.6 1.6-.5.4-1 .5-1.7.5s-1.3-.2-1.7-.5c-.5-.4-.6-.9-.6-1.6v-4.4h.5v4.4c0 .5.2 1 .5 1.3.4.3.7.5 1.3.5.5 0 1-.2 1.4-.5s.5-.7.5-1.3v-4.4h.4zm7.2 6.4h-.5l-3.7-5.6v5.6h-.5v-6.5h.5l3.7 5.6v-5.6h.5v6.5zm3.1 0h-.5v-6.5h.5v6.5zm4.4-1.1l.1.5.1-.5 2-5.4h.5l-2.4 6.5h-.5l-2.4-6.5h.5l2.1 5.4zm8.3-2h-3.2v2.7h3.6v.5h-4.2v-6.5h4.2v.5h-3.6v2.4h3.2v.4zm2.8.2v3h-.5v-6.5h2.2c.7 0 1.3.2 1.6.5.4.3.5.7.5 1.4 0 .4-.1.6-.3.9s-.5.5-.8.6c.4.1.7.3.9.5.2.3.3.6.3 1v.6c0 .2 0 .4.1.5.1.2.1.3.3.4v.1h-.5c-.1-.1-.2-.3-.3-.5l-.1-.6v-.6c0-.4-.1-.7-.4-.9-.3-.2-.6-.4-1.1-.4h-1.9zm0-.4h1.6c.6 0 1-.1 1.3-.4s.5-.5.5-1-.2-.7-.4-1c-.3-.3-.7-.4-1.3-.4h-1.7v2.8zm10 1.7c0-.4-.1-.6-.4-.9-.3-.2-.7-.5-1.4-.6-.7-.2-1.3-.5-1.6-.7-.4-.3-.5-.6-.5-1.2 0-.5.2-.9.6-1.3.5-.4.9-.5 1.6-.5.6 0 1.2.2 1.6.5.5.4.6.8.6 1.4h-.5c0-.5-.2-.8-.5-1.1-.3-.3-.7-.5-1.3-.5-.5 0-.9.1-1.3.4-.4.3-.5.5-.5.9s.2.6.5.8c.3.2.7.5 1.5.5.7.2 1.3.5 1.6.7.4.3.5.7.5 1.2s-.2.9-.6 1.3c-.5.3-1 .5-1.6.5s-1.3-.2-1.7-.5c-.5-.4-.7-.8-.7-1.5h.5c0 .5.2.9.5 1.1.4.3.8.4 1.4.4.5 0 .9-.1 1.3-.4.2.2.4-.2.4-.5zm3.2 1.6h-.5v-6.5h.5v6.5zm6.8-6h-2.3v6.1h-.5v-6.1h-2.3v-.5h5.1v.5zm3.7 3.2l2-3.6h.6l-2.4 4.2v2.4h-.5V420l-2.4-4.2h.6l2.1 3.7zm12.2.2c0 .8-.3 1.5-.7 2.1-.5.5-1.1.8-1.9.8-.7 0-1.4-.3-1.8-.8-.5-.5-.7-1.2-.7-2.1v-1.1c0-.8.3-1.5.7-2.1.5-.5 1.1-.8 1.8-.8.8 0 1.4.3 1.9.8s.7 1.2.7 2.1v1.1zm-.6-1.1c0-.7-.2-1.3-.5-1.7-.4-.5-.8-.6-1.5-.6s-1.1.2-1.5.6c-.4.5-.5 1-.5 1.7v1.1c0 .7.2 1.3.5 1.7.3.4.8.6 1.5.6s1.2-.2 1.5-.6c.4-.5.5-1 .5-1.7v-1.1zm6.5.7H282v3.1h-.5v-6.5h4.2v.5h-3.6v2.5h3.2l-.1.4zm8.7 1.2h-3l-.6 1.8h-.5l2.4-6.5h.5l2.4 6.5h-.5l-.7-1.8zm-2.8-.5h2.6l-1.3-3.5-1.3 3.5zm6.4-.3v2.7h-.5v-6.5h2.3c.7 0 1.2.2 1.6.5.4.4.5.8.5 1.4s-.2 1.1-.5 1.4c-.4.4-.9.5-1.6.5h-1.8zm0-.5h1.7c.5 0 .9-.2 1.2-.5.3-.3.4-.6.4-1 0-.5-.1-.7-.4-1.1-.3-.3-.6-.5-1.2-.5h-1.7v3.1zm6.4.5v2.7h-.5v-6.5h2.3c.7 0 1.2.2 1.6.5.4.4.5.8.5 1.4s-.2 1.1-.5 1.4c-.4.4-.9.5-1.6.5h-1.8zm0-.5h1.7c.5 0 .9-.2 1.2-.5.3-.3.4-.6.4-1 0-.5-.1-.7-.4-1.1-.3-.3-.6-.5-1.2-.5h-1.7v3.1zm6.5 2.7h3.3v.5h-3.9V416h.5l.1 5.9zm5.7.4h-.5v-6.5h.5v6.5zm6.2-3.1h-3.2v2.7h3.6v.5h-4.2v-6.5h4.2v.5h-3.6v2.4h3.2v.4zm2.4 3.1v-6.5h1.9c.8 0 1.5.3 2 .8s.8 1.2.8 2.1v.8c0 .8-.3 1.5-.8 2.1-.5.5-1.2.8-2 .8l-1.9-.1zm.5-6v5.6h1.4c.6 0 1.2-.2 1.6-.6.5-.5.6-1 .6-1.7v-.8c0-.7-.2-1.3-.6-1.7-.5-.5-1-.7-1.6-.7l-1.4-.1zm12.9 4.4c0-.4-.1-.6-.4-.9-.3-.2-.7-.5-1.4-.6-.7-.2-1.3-.5-1.6-.7-.4-.3-.5-.6-.5-1.2 0-.5.2-.9.6-1.3s.9-.5 1.6-.5c.6 0 1.2.2 1.6.5.5.4.6.8.6 1.4h-.5c0-.5-.2-.8-.5-1.1-.3-.3-.7-.5-1.3-.5-.6 0-.9.1-1.3.4-.3.3-.5.5-.5.9s.2.6.5.8.7.5 1.5.5c.7.2 1.3.5 1.6.7.4.3.5.7.5 1.2s-.2.9-.6 1.3c-.5.3-1 .5-1.6.5s-1.3-.2-1.7-.5c-.5-.4-.7-.8-.7-1.5h.5c0 .5.2.9.5 1.1.4.3.8.4 1.4.4s.9-.1 1.3-.4c.2.2.4-.2.4-.5zm7-.4c-.1.7-.3 1.2-.7 1.5-.5.4-1 .5-1.6.5-.7 0-1.4-.3-1.7-.8-.4-.5-.6-1.2-.6-2.1v-1.1c0-.8.2-1.5.6-2.1.5-.5 1-.8 1.7-.8s1.3.2 1.6.5.6.9.7 1.5h-.5c-.1-.5-.3-1-.5-1.3-.3-.3-.7-.5-1.3-.5-.6 0-1 .2-1.4.6s-.5 1-.5 1.7v1.1c0 .7.2 1.3.5 1.7.4.5.8.6 1.4.6s1-.2 1.3-.5.5-.7.5-1.3l.5.8zm2.8 2h-.5v-6.5h.5v6.5zm6.2-3.1h-3.2v2.7h3.6v.5h-4.2v-6.5h4.2v.5h-3.6v2.4h3.2v.4zm7.2 3.1h-.5l-3.7-5.6v5.6h-.5v-6.5h.5l3.7 5.6v-5.6h.5v6.5zm7-2c-.1.7-.3 1.2-.7 1.5-.5.4-1 .5-1.6.5-.7 0-1.4-.3-1.7-.8-.5-.5-.6-1.2-.6-2.1v-1.1c0-.8.2-1.5.6-2.1.5-.5 1-.8 1.7-.8s1.3.2 1.6.5c.3.3.6.9.7 1.5h-.6c-.1-.5-.3-1-.5-1.3-.3-.3-.7-.5-1.3-.5s-1 .2-1.4.6c-.4.5-.5 1-.5 1.7v1.1c0 .7.2 1.3.5 1.7.4.5.8.6 1.4.6s1-.2 1.3-.5.5-.7.5-1.3l.6.8zm5.8-1.1h-3.2v2.7h3.6v.5h-4.2v-6.5h4.2v.5h-3.6v2.4h3.2v.4zm6.1 1.5c0-.4-.1-.6-.4-.9-.3-.2-.7-.5-1.4-.6-.7-.2-1.3-.5-1.6-.7-.4-.3-.5-.6-.5-1.2 0-.5.2-.9.6-1.3.5-.3.9-.5 1.6-.5.6 0 1.2.2 1.6.5.5.4.6.8.6 1.4h-.5c0-.5-.2-.8-.5-1.1-.3-.3-.7-.5-1.3-.5-.6 0-.9.1-1.3.4-.3.3-.5.5-.5.9s.2.6.5.8.7.5 1.5.5c.7.2 1.3.5 1.6.7.4.3.5.7.5 1.2s-.2.9-.6 1.3c-.5.3-1 .5-1.6.5s-1.3-.2-1.7-.5c-.5-.4-.7-.8-.7-1.5h.5c0 .5.2.9.5 1.1.4.3.8.4 1.4.4s.9-.1 1.3-.4c.2.2.4-.2.4-.5z"/><path d="M45.3 6.8V16h-1.5v-4h-4.1v3.9h-1.5V6.8h1.5v4h4.1v-4h1.5zm9.5 3.7v1.6c0 2.3-1.5 3.9-3.8 3.9-2.2 0-3.7-1.6-3.7-3.9v-1.6c0-2.2 1.5-3.9 3.7-3.9 2.3 0 3.8 1.7 3.8 3.9zm-1.5 1.7v-1.7c0-1.5-.9-2.6-2.3-2.6s-2.2 1.1-2.2 2.6v1.7c0 1.5.8 2.6 2.2 2.6 1.5 0 2.3-1.1 2.3-2.6zm8.8.8h1.5c-.2 1.9-1.4 3.1-3.5 3.1-2.2 0-3.6-1.5-3.6-3.8v-1.7c0-2.3 1.4-3.8 3.6-3.8s3.3 1.1 3.5 3.1h-1.5c-.2-1.3-.7-1.9-2-1.9s-2 1.1-2 2.6v1.8c0 1.6.7 2.6 2 2.6 1.3-.2 1.9-.8 2-2zm10.7-6.2V16h-1.5v-4h-4.1v3.9h-1.5V6.8h1.5v4h4.1v-4h1.5zm7.4 6.8c0-.8-.5-1.2-1.9-1.6-2.1-.6-3.2-1.3-3.2-2.8s1.3-2.5 3.3-2.5 3.4 1.2 3.4 2.8h-1.5c0-1-.6-1.6-1.8-1.6-1.1 0-1.7.5-1.7 1.3 0 .4.2.7.5.9s.9.4 1.6.7c2 .5 3 1.4 3 2.9 0 1.6-1.3 2.5-3.3 2.5s-3.6-1-3.6-2.9h1.5c0 1.1.8 1.7 2.1 1.7 1-.2 1.6-.6 1.6-1.4zm8.7-.6h1.5c-.2 1.9-1.4 3.1-3.5 3.1-2.2 0-3.6-1.5-3.6-3.8v-1.7c0-2.3 1.4-3.8 3.6-3.8s3.3 1.1 3.5 3.1h-1.5c-.2-1.3-.7-1.9-2-1.9s-2 1.1-2 2.6v1.8c0 1.6.7 2.6 2 2.6 1.3-.2 1.9-.8 2-2zm10.7-6.2V16h-1.5v-4H94v3.9h-1.5V6.8H94v4h4.1v-4h1.5zm7.9 0h1.5v6.1c0 2.1-1.4 3.2-3.6 3.2-2.1 0-3.5-1.1-3.5-3.2V6.8h1.5v6.1c0 1.3.8 1.9 2 1.9 1.3 0 2.1-.6 2.1-1.9V6.8zm5.5 0v8h4.4V16h-5.9V6.8h1.5zm11.7 3.8v1.2h-4v2.9h4.7v1.2h-6.2V6.8h6.1V8h-4.6v2.6h4zm14.6-.1v1.6c0 2.3-1.5 3.9-3.8 3.9-2.2 0-3.7-1.6-3.7-3.9v-1.6c0-2.2 1.5-3.9 3.7-3.9 2.3 0 3.8 1.7 3.8 3.9zm-1.5 1.7v-1.7c0-1.5-.9-2.6-2.3-2.6s-2.2 1.1-2.2 2.6v1.7c0 1.5.8 2.6 2.2 2.6 1.5 0 2.3-1.1 2.3-2.6zm8.5 1.4c0-.8-.5-1.2-1.9-1.6-2.1-.6-3.2-1.3-3.2-2.8s1.3-2.5 3.3-2.5 3.4 1.2 3.4 2.8h-1.5c0-1-.6-1.6-1.8-1.6-1.1 0-1.7.5-1.7 1.3 0 .4.2.7.5.9s.9.4 1.6.7c2 .5 3 1.4 3 2.9 0 1.6-1.3 2.5-3.3 2.5s-3.6-1-3.6-2.9h1.5c0 1.1.8 1.7 2.1 1.7 1-.2 1.6-.6 1.6-1.4zm10.8-6.8V16h-1.5l-4.1-6.7V16H150V6.8h1.5l4.1 6.7V6.8h1.5zm8.1 9.1l-.8-2.2h-3.5l-.8 2.2h-1.6l3.4-9.2h1.5l3.3 9.2h-1.5zm-2.5-7.3l-1.3 3.9h2.7l-1.4-3.9zm9.1 7.3h-3.5V6.8h3.1c2.1 0 3.2.8 3.2 2.5 0 .8-.5 1.5-1.3 1.8 1.1.2 1.7 1.1 1.7 2.2 0 1.7-1.2 2.6-3.2 2.6zM169.9 8v2.6h1.7c1 0 1.5-.4 1.5-1.3s-.5-1.3-1.7-1.3h-1.5zm2.1 3.8h-2.1v2.9h2c1.1 0 1.6-.5 1.6-1.4-.1-1-.5-1.5-1.5-1.5zm11.6-2.4c0 1.1-.5 1.9-1.5 2.4l2.1 4v.1h-1.7l-1.8-3.7h-2v3.7h-1.5V6.8h3.3c2 0 3.1.9 3.1 2.6zm-5-1.4v3h1.8c1.1 0 1.7-.5 1.7-1.5 0-.9-.5-1.5-1.7-1.5h-1.8zm12.8-1.2h1.5v6.1c0 2.1-1.4 3.2-3.6 3.2-2.1 0-3.5-1.1-3.5-3.2V6.8h1.5v6.1c0 1.3.8 1.9 2 1.9 1.3 0 2.1-.6 2.1-1.9V6.8zm-2.7-2.3v1.3h-1.5V4.5h1.5zm2.8 0v1.3H190V4.5h1.5zm9 8.5h1.5c-.2 1.9-1.4 3.1-3.5 3.1-2.2 0-3.6-1.5-3.6-3.8v-1.7c0-2.3 1.4-3.8 3.6-3.8s3.3 1.1 3.5 3.1h-1.5c-.2-1.3-.7-1.9-2-1.9s-2 1.1-2 2.6v1.8c0 1.6.7 2.6 2 2.6 1.3-.2 1.9-.8 2-2zm9 2.9l-2.9-4-.9 1v3H204V6.8h1.5V11l3.6-4.2h1.8l-3.4 4 3.8 5.2h-1.8v-.1zM60.6 23.1h.4v3.7c0 1.2-.8 1.8-1.9 1.8-1.2 0-1.9-.6-1.9-1.8v-3.7h.4v3.7c0 .9.6 1.4 1.5 1.4s1.5-.5 1.5-1.4v-3.7zm6.1 0v5.4h-.4l-3.1-4.7v4.6h-.4V23h.4l3.1 4.6V23h.4v.1zm2.6 0v5.4h-.4v-5.4h.4zm2 0l1.6 4.5.1.4.1-.4 1.6-4.5h.5l-2 5.4h-.4l-2-5.4h.5zm8.2 2.4v.4h-2.6v2.2h3v.4h-3.4v-5.4h3.4v.4h-3v2h2.6zm5.7-.9c0 .7-.4 1.2-1 1.4l1.3 2.4v.1H85l-1.3-2.4H82v2.4h-.4v-5.4h1.8c1.1 0 1.8.5 1.8 1.5zM82 23.5v2.2h1.5c.8 0 1.2-.5 1.2-1.1 0-.7-.5-1.1-1.3-1.1H82zm8.1 3.7c0-.6-.4-.9-1.5-1.2-1.2-.3-1.8-.7-1.8-1.5s.7-1.4 1.8-1.4 1.9.7 1.9 1.6H90c0-.7-.5-1.2-1.4-1.2s-1.4.4-1.4 1 .4.9 1.5 1.2c1.2.3 1.8.8 1.8 1.6 0 .9-.8 1.4-1.9 1.4s-2-.5-2-1.6h.4c0 .9.7 1.2 1.6 1.2.9-.1 1.5-.5 1.5-1.1zm2.7-4.1v5.4h-.4v-5.4h.4zm5.7 0v.4h-1.8v5h-.4v-5h-1.8v-.4h4zm1.3 0l1.7 3 1.7-3h.5l-2 3.4v2h-.4v-2l-2-3.4h.5zm11.2 2.2v.9c0 1.4-.8 2.3-2.1 2.3s-2.1-.9-2.1-2.3v-.9c0-1.4.8-2.3 2.1-2.3s2.1 1 2.1 2.3zm-.5.9v-.9c0-1.2-.6-1.9-1.7-1.9-1 0-1.6.8-1.6 1.9v.9c0 1.2.6 1.9 1.6 1.9 1.1.1 1.7-.7 1.7-1.9zm5.1-.6v.4H113v2.5h-.4v-5.4h3.4v.4h-3v2.1h2.6zm7.4 2.9l-.6-1.5H120l-.6 1.5h-.4l2-5.4h.4l2 5.4h-.4zm-1.8-4.9l-1.1 2.9h2.2l-1.1-2.9zm5.3 2.6h-1.4v2.2h-.4V23h1.9c1.2 0 1.8.6 1.8 1.6-.1 1-.7 1.6-1.9 1.6zm-1.4-2.7v2.4h1.4c.9 0 1.3-.5 1.3-1.2s-.4-1.2-1.3-1.2h-1.4zm6.4 2.7H130v2.2h-.4V23h1.9c1.2 0 1.8.6 1.8 1.6-.1 1-.7 1.6-1.8 1.6zm-1.5-2.7v2.4h1.4c.9 0 1.3-.5 1.3-1.2s-.4-1.2-1.3-1.2H130zm5.1-.4v5h2.7v.4h-3.1v-5.4h.4zm4.8 0v5.4h-.4v-5.4h.4zm5.1 2.4v.4h-2.6v2.2h3v.4H142v-5.4h3.4v.4h-3v2h2.6zm3.6 3h-1.5v-5.4h1.6c1.4 0 2.3.9 2.3 2.3v.7c-.1 1.4-1 2.4-2.4 2.4zm.1-5h-1.1v4.6h1.1c1.2 0 1.9-.8 1.9-2v-.7c-.1-1.2-.8-1.9-1.9-1.9zm9.5 3.7c0-.6-.4-.9-1.5-1.2-1.2-.3-1.8-.7-1.8-1.5s.7-1.4 1.8-1.4 1.9.7 1.9 1.6h-.4c0-.7-.5-1.2-1.4-1.2s-1.4.4-1.4 1 .4.9 1.5 1.2c1.2.3 1.8.8 1.8 1.6 0 .9-.8 1.4-1.9 1.4-1.1 0-2-.5-2-1.6h.4c0 .9.7 1.2 1.6 1.2.8-.1 1.4-.5 1.4-1.1zm5.2-.4h.4c-.1 1.1-.8 1.8-2 1.8s-2-.9-2-2.3v-.9c0-1.4.8-2.3 2-2.3s1.8.6 2 1.8h-.4c-.1-.9-.6-1.4-1.5-1.4-1 0-1.6.8-1.6 2v.9c0 1.2.6 2 1.6 2 .9-.2 1.4-.7 1.5-1.6zm2.7-3.7v5.4h-.4v-5.4h.4zm5.1 2.4v.4h-2.6v2.2h3v.4h-3.4v-5.4h3.4v.4h-3v2h2.6zm5.9-2.4v5.4h-.4l-3.1-4.7v4.6h-.4V23h.4l3.1 4.6V23h.4v.1zm5.2 3.7h.4c-.1 1.1-.8 1.8-2 1.8s-2-.9-2-2.3v-.9c0-1.4.8-2.3 2-2.3s1.8.6 2 1.8h-.4c-.1-.9-.6-1.4-1.5-1.4-1 0-1.6.8-1.6 2v.9c0 1.2.6 2 1.6 2 .9-.2 1.3-.7 1.5-1.6zm4.9-1.3v.4h-2.6v2.2h3v.4h-3.4v-5.4h3.4v.4h-3v2h2.6zm4.8 1.7c0-.6-.4-.9-1.5-1.2-1.2-.3-1.8-.7-1.8-1.5s.7-1.4 1.8-1.4 1.9.7 1.9 1.6h-.4c0-.7-.5-1.2-1.4-1.2s-1.4.4-1.4 1 .4.9 1.5 1.2c1.2.3 1.8.8 1.8 1.6 0 .9-.8 1.4-1.9 1.4-1.1 0-2-.5-2-1.6h.4c0 .9.7 1.2 1.6 1.2.9-.1 1.4-.5 1.4-1.1z" fill="#575756"/></svg>